<svg xmlns="http://www.w3.org/2000/svg" viewBox="0 0 512 512" width="512" height="512">
<title>Scorpius — calibrated outline derivative</title>
<desc>Scorpius outline derivative, 2026-10-09. Original: Johan Meuris, Stellarium constellation art (2005), Free Art License; vector tracing/calibration: Tran Vu Anh Duy portfolio / Codex. Modified silhouette/ink contours, grayscale, removed shading; not a recovered vector master.</desc>
<metadata>Copyleft: Free Art License 1.3 https://artlibre.org/licence/lal/en/ ; original https://raw.githubusercontent.com/Stellarium/stellarium/daace2add6a1bf886e8ee1934f51e9c69f818d18/skycultures/modern/illustrations/scorpius.png ; source-to-vector matrix and HIP anchors: /constellations/manifest.json</metadata>
<g fill="none" stroke="#FAFAFA" stroke-width="2.3" stroke-linejoin="round" stroke-linecap="round">
<path d="M363.2819,15.3600 L378.8172,16.0814 L378.8148,17.0723 L382.7009,17.0051 L382.6982,17.9960 L388.5256,18.8863 L388.5225,19.8771 L392.4066,20.8010 L393.3716,22.7654 L397.2556,23.6894 L399.1881,26.6269 L401.1319,26.5938 L401.1279,27.5839 L402.0999,27.5674 L402.0958,28.5573 L407.9056,33.4067 L407.8875,37.3627 L406.9159,37.3789 L406.9115,38.3675 L404.0016,37.4275 L402.0712,34.4937 L391.3917,33.6841 L391.3950,32.6952 L378.7768,32.9076 L378.7744,33.8960 L369.0736,35.0470 L369.0720,36.0348 L366.1638,36.0835 L366.1623,37.0711 L364.2239,37.1035 L364.2226,38.0910 L370.0380,37.9940 L370.0363,38.9814 L373.9141,38.9169 L373.9121,39.9043 L379.7276,40.7951 L379.7251,41.7824 L383.6016,42.7055 L384.5658,44.6636 L386.5054,44.6317 L386.5025,45.6187 L387.4723,45.6027 L387.4693,46.5895 L393.2717,51.4269 L393.2649,53.3991 L396.1666,55.3236 L396.1593,57.2948 L397.1288,57.2792 L397.1251,58.2646 L398.0946,58.2490 L398.0908,59.2343 L399.0603,59.2187 L399.0565,60.2039 L400.0259,60.1884 L400.0220,61.1734 L400.9915,61.1580 L400.9874,62.1429 L401.9569,62.1274 L401.9528,63.1122 L402.9222,63.0968 L402.9181,64.0815 L403.8875,64.0661 L403.8833,65.0507 L404.8527,65.0353 L404.8484,66.0198 L405.8178,66.0044 L405.8134,66.9888 L411.6065,71.8174 L411.5969,73.7846 L412.5661,73.7694 L413.5206,76.7042 L415.4538,77.6572 L415.4437,79.6229 L416.4127,79.6079 L416.4024,81.5731 L417.3713,81.5582 L417.3609,83.5229 L418.3297,83.5080 L418.3139,86.4540 L419.2826,86.4393 L419.2612,90.3653 L420.2296,90.3507 L420.2134,93.2938 L419.2452,93.3083 L418.2665,95.2841 L415.3678,94.3470 L415.3830,91.4048 L414.4149,91.4194 L413.4665,87.5092 L411.5348,86.5571 L411.5444,84.5937 L409.6124,83.6414 L409.6216,81.6772 L408.6532,81.6921 L404.8013,76.8394 L402.8643,76.8694 L402.8684,75.8866 L400.9315,75.9167 L400.9355,74.9338 L398.9986,74.9639 L399.0025,73.9809 L397.0657,74.0111 L397.0694,73.0281 L389.3271,72.1661 L389.3303,71.1829 L379.6521,71.3347 L379.6496,72.3175 L372.8768,73.4060 L372.8749,74.3883 L370.9411,74.4185 L370.9393,75.4006 L369.0059,75.4307 L369.0043,76.4126 L363.2035,78.4658 L362.2351,80.4432 L358.3711,81.4836 L357.4039,83.4598 L354.5080,83.5041 L354.5074,84.4845 L351.6121,84.5288 L351.6118,85.5089 L341.0013,86.6506 L341.0009,85.6709 L333.2872,84.8091 L332.3212,82.8644 L330.3932,82.8940 L330.3920,81.9141 L326.5321,79.0333 L326.5291,77.0724 L325.5651,77.0874 L326.5203,71.1864 L325.5558,71.2016 L325.5542,70.2201 L324.5897,70.2353 L324.5881,69.2537 L323.6235,69.2689 L323.6219,68.2872 L317.8248,63.4688 L317.8205,61.5039 L315.8889,60.5522 L314.9079,53.6855 L312.0127,53.7325 L311.0530,55.7150 L313.9524,57.6346 L314.9288,62.5327 L315.8934,62.5173 L315.9069,68.4091 L314.9428,68.4243 L314.9544,73.3301 L313.9907,73.3452 L314.0026,78.2472 L313.0393,78.2621 L312.0963,86.1123 L311.1337,86.1270 L311.1389,88.0843 L310.1765,88.0990 L308.2602,91.0629 L306.3362,91.0920 L306.3391,92.0699 L304.4154,92.0989 L304.4185,93.0766 L300.5721,93.1345 L300.5754,94.1119 L285.2042,95.3199 L285.2087,96.2966 L278.4922,97.3736 L276.5878,100.3302 L274.6686,100.3587 L274.6739,101.3343 L272.7605,102.3382 L272.7713,104.2886 L270.8531,104.3169 L270.8587,105.2918 L267.9878,106.3089 L267.9936,107.2834 L266.0764,107.3115 L266.0705,106.3370 L263.1889,105.4047 L262.2181,103.4693 L258.3841,103.5259 L258.4099,107.4239 L262.2612,110.2900 L262.2735,112.2375 L265.1595,114.1429 L265.1714,116.0895 L268.0452,116.0481 L268.0395,115.0748 L270.9029,113.0862 L270.9085,114.0598 L272.8306,115.0057 L272.8414,116.9524 L275.7266,118.8574 L275.7370,120.8032 L276.6951,120.7895 L276.7002,121.7622 L277.6583,121.7486 L277.6634,122.7212 L283.4359,127.5012 L283.4451,129.4449 L285.3655,130.3898 L286.3455,135.2328 L290.1765,135.1798 L290.1724,134.2087 L294.0047,134.1557 L294.0008,133.1843 L295.9174,133.1577 L295.9137,132.1862 L296.8722,132.1729 L299.7341,128.2447 L301.6521,128.2179 L302.6047,126.2593 L305.4826,126.2188 L305.4796,125.2460 L313.1571,125.1377 L313.1595,126.1108 L316.0392,126.0702 L316.0437,128.0161 L313.1644,128.0565 L313.1717,130.9740 L312.2123,130.9874 L310.3094,136.8448 L313.1888,137.7766 L313.1912,138.7479 L315.1092,138.7216 L315.1115,139.6927 L321.8273,140.5722 L321.8111,131.8262 L322.7710,131.8129 L322.7640,127.9219 L323.7243,127.9085 L324.6814,125.9486 L327.5631,125.9080 L327.5645,126.8814 L330.4465,126.8409 L331.4095,128.7740 L334.2927,129.7068 L334.2945,131.6527 L335.2551,131.6393 L335.2568,133.5847 L336.2173,133.5714 L336.2234,141.3473 L335.2634,141.3604 L335.2642,142.3317 L337.1848,143.2769 L337.1862,145.2190 L338.1460,145.2060 L339.1070,147.1347 L341.9866,147.0960 L341.9862,146.1252 L347.7473,146.0476 L347.7472,147.0186 L349.6678,146.9928 L349.6676,147.9637 L351.5883,147.9379 L351.5880,148.9087 L353.5088,148.8830 L353.5083,149.8538 L355.4292,149.8281 L355.4285,150.7988 L357.3495,150.7732 L357.3487,151.7438 L359.2698,151.7183 L359.2688,152.6887 L361.1900,152.6633 L361.1889,153.6337 L369.8344,154.4898 L369.8327,155.4601 L386.1760,155.2448 L386.1731,156.2155 L390.0206,156.1649 L390.0174,157.1356 L395.7864,158.0307 L395.7828,159.0012 L401.5484,160.8669 L401.5444,161.8373 L404.4271,162.7701 L404.4229,163.7402 L410.2021,162.6953 L410.2067,161.7249 L411.1695,161.7124 L411.1883,157.8291 L412.1514,157.8165 L412.1706,153.9307 L413.1340,153.9180 L415.0911,148.0592 L418.9475,148.0076 L419.9010,149.9400 L421.8294,149.9143 L421.8349,148.9417 L424.7395,146.9572 L424.7510,145.0107 L422.8271,144.0633 L422.9389,124.5657 L423.9051,124.5521 L423.9277,120.6455 L424.8942,120.6318 L424.9115,117.7004 L425.8782,117.6866 L425.8899,115.7315 L426.8568,115.7176 L426.8745,112.7838 L427.8417,112.7698 L427.8537,110.8132 L428.8211,110.7992 L428.8332,108.8419 L429.8008,108.8278 L429.8191,105.8908 L430.7870,105.8766 L430.7994,103.9178 L431.7675,103.9036 L431.7800,101.9441 L432.7483,101.9298 L432.7610,99.9697 L433.7295,99.9554 L433.7423,97.9946 L434.7110,97.9802 L434.7304,95.0380 L435.6994,95.0235 L435.7125,93.0612 L436.6816,93.0467 L436.7015,90.1020 L437.6709,90.0874 L437.6910,87.1414 L438.6607,87.1267 L438.6878,83.1966 L439.6579,83.1817 L439.7058,76.2982 L440.6764,76.2832 L440.7457,66.4370 L439.7744,66.4523 L438.8643,57.5942 L437.8924,57.6098 L437.9059,55.6364 L436.9340,55.6520 L436.9539,52.6909 L435.9818,52.7067 L435.9950,50.7319 L435.0228,50.7477 L433.1169,44.8521 L431.1783,43.8958 L430.2305,39.9572 L428.2913,39.0005 L428.3034,37.0221 L426.3638,36.0652 L426.3756,34.0861 L425.4027,34.1024 L424.4472,31.1492 L423.4742,31.1656 L423.5083,25.2226 L425.4551,25.1894 L425.4493,26.1804 L426.4227,26.1638 L426.4168,27.1546 L432.2265,32.0082 L432.2139,33.9882 L438.0205,38.8388 L438.0070,40.8172 L441.8785,43.7195 L441.8645,45.6967 L444.7690,47.6255 L444.7545,49.6017 L445.7273,49.5858 L446.6781,52.5333 L448.6161,53.4893 L449.5585,57.4224 L451.4958,58.3781 L452.4372,62.3088 L453.4095,62.2933 L453.4647,55.3856 L454.4376,55.3699 L455.4266,53.3791 L457.3730,53.3476 L457.3566,55.3228 L460.2594,57.2505 L460.2427,59.2247 L462.1802,60.1805 L462.1632,62.1540 L465.0646,64.0806 L466.0023,68.0096 L466.9750,67.9943 L467.9209,70.9360 L469.8571,71.8910 L469.8389,73.8614 L470.8114,73.8463 L472.7008,79.7244 L474.6359,80.6787 L474.6076,83.6307 L475.5797,83.6159 L475.5607,85.5832 L476.5326,85.5684 L476.5135,87.5352 L477.4854,87.5204 L477.4565,90.4696 L478.4282,90.4550 L478.4088,92.4204 L479.3804,92.4059 L479.3511,95.3531 L480.3226,95.3386 L480.2931,98.2845 L481.2644,98.2701 L481.2347,101.2149 L482.2058,101.2006 L483.0867,110.0133 L484.0573,109.9993 L483.9664,118.8149 L484.9365,118.8011 L483.8152,133.4817 L482.8463,133.4951 L482.7964,138.3767 L481.8279,138.3899 L481.7882,142.2925 L480.8200,142.3056 L479.7933,148.1680 L478.8257,148.1809 L478.8064,150.1295 L477.8389,150.1423 L477.8101,153.0640 L476.8429,153.0768 L476.8239,155.0238 L475.8569,155.0365 L475.8380,156.9829 L474.8712,156.9955 L472.8824,162.8561 L471.9163,162.8686 L470.9228,165.7965 L468.9823,166.7928 L468.9644,168.7354 L467.9989,168.7477 L464.0944,173.6501 L462.1647,173.6744 L462.1816,171.7337 L454.4560,172.8015 L454.4875,168.9198 L455.4523,168.9076 L455.4841,165.0235 L456.4492,165.0111 L456.5135,157.2358 L455.5479,157.2485 L455.5798,153.3575 L454.6139,153.3703 L454.6297,151.4240 L453.6638,151.4369 L453.7030,146.5689 L454.6693,146.5559 L454.7089,141.6842 L453.7422,141.6973 L452.7523,144.6337 L451.7859,144.6467 L449.8307,147.5944 L447.8989,147.6203 L446.9183,149.5801 L443.0490,150.6047 L443.0349,152.5506 L444.9583,153.4978 L444.9439,155.4429 L442.0347,157.4253 L442.0208,159.3691 L441.0561,159.3817 L438.1357,163.3048 L436.2074,163.3297 L435.2304,165.2839 L433.3027,165.3087 L433.2964,166.2792 L431.3691,166.3040 L431.3629,167.2743 L428.4726,167.3113 L428.4666,168.2815 L425.5770,168.3184 L425.5712,169.2883 L421.7140,170.3070 L421.7085,171.2765 L423.6340,171.2521 L423.6396,170.2825 L426.5285,170.2458 L426.5343,169.2760 L430.3872,169.2269 L430.3933,168.2569 L435.2174,167.2250 L436.1943,165.2715 L438.1223,165.2467 L438.1290,164.2758 L442.9785,160.3283 L442.9926,158.3847 L443.9574,158.3721 L444.9439,155.4429 L445.9091,155.4302 L445.9018,156.4026 L447.8248,157.3495 L448.7600,161.2247 L449.7250,161.2122 L450.6139,170.9099 L449.6496,170.9221 L449.6195,174.8021 L448.6555,174.8143 L447.6547,179.6729 L446.6912,179.6849 L443.7726,183.5950 L441.8466,183.6187 L441.8396,184.5868 L439.9140,184.6105 L439.9072,185.5784 L436.0569,185.6256 L436.0504,186.5933 L411.0470,186.8989 L411.0423,187.8657 L406.2386,187.9242 L407.2213,183.0777 L408.1824,183.0658 L408.2048,178.2273 L409.1663,178.2153 L409.1754,176.2788 L407.2567,175.3346 L407.2257,182.1103 L406.2647,182.1222 L406.2516,185.0238 L405.2908,185.0356 L402.3925,188.9375 L400.4720,188.9609 L400.4681,189.9271 L392.7887,190.0203 L392.7921,189.0543 L387.0345,189.1243 L387.0374,188.1584 L384.1591,188.1935 L384.1619,187.2275 L378.4087,186.3318 L378.4110,185.3657 L376.4927,185.3893 L376.4948,184.4231 L370.7442,182.5614 L369.7886,180.6403 L365.9542,179.7214 L364.9979,177.7998 L361.1634,176.8809 L360.2065,174.9588 L358.2887,174.9830 L358.2896,174.0158 L355.4137,173.0848 L354.4561,171.1621 L350.6212,170.2433 L350.6215,169.2756 L347.7454,168.3446 L346.7867,166.4210 L341.0340,164.5589 L341.0336,163.5907 L340.0749,163.6031 L340.0716,156.8216 L337.1937,155.8902 L336.2506,176.2270 L335.2931,176.2390 L335.2964,180.1032 L333.3822,180.1270 L333.3841,182.0581 L334.3410,182.0462 L334.3464,187.8363 L333.3898,187.8480 L333.3918,189.7769 L331.4802,190.7643 L331.4835,193.6559 L332.4395,193.6444 L333.3985,196.5235 L335.3112,197.4639 L335.3169,204.2030 L334.3615,204.2142 L334.3633,206.1383 L333.4081,206.1495 L331.5011,209.0567 L328.6367,209.0899 L328.6380,210.0512 L326.7303,211.0343 L326.7332,212.9561 L321.0082,213.0218 L321.0063,212.0611 L315.2806,211.1664 L315.2784,210.2056 L313.3707,210.2277 L313.3683,209.2669 L311.4607,209.2890 L311.4582,208.3281 L309.5507,208.3502 L309.5480,207.3893 L307.6406,207.4115 L307.6377,206.4504 L305.7304,206.4727 L305.7274,205.5115 L303.8202,205.5338 L303.8171,204.5726 L301.9099,204.5950 L301.9067,203.6336 L299.9996,203.6561 L299.9962,202.6947 L298.0892,202.7172 L298.0856,201.7557 L296.1787,201.7782 L296.1750,200.8166 L294.2682,200.8392 L294.2644,199.8776 L291.4043,199.9115 L291.4003,198.9498 L288.5405,198.9839 L288.5362,198.0221 L285.6767,198.0562 L285.6723,197.0944 L282.8130,197.1286 L282.8084,196.1668 L278.9966,196.2125 L278.9917,195.2506 L275.1804,195.2964 L275.1752,194.3344 L270.4120,194.3918 L270.4065,193.4299 L258.9732,192.6062 L258.9796,193.5679 L268.5071,194.4148 L268.5128,195.3765 L272.3225,195.3307 L272.3279,196.2924 L276.1383,196.2467 L276.1434,197.2084 L279.0015,197.1742 L279.0064,198.1358 L281.8648,198.1017 L281.8695,199.0633 L287.5916,199.9568 L287.5959,200.9183 L289.5020,200.8957 L289.5061,201.8571 L291.4123,201.8345 L291.4163,202.7958 L294.2758,202.7621 L294.2796,203.7234 L296.1860,203.7009 L296.1897,204.6621 L298.0962,204.6397 L298.0997,205.6008 L300.0063,205.5785 L300.0097,206.5395 L301.9164,206.5172 L301.9196,207.4781 L303.8264,207.4559 L303.8295,208.4167 L307.6462,209.3332 L308.6053,211.2434 L313.3755,212.1489 L313.3780,213.1093 L315.2852,213.0875 L315.2875,214.0478 L319.1023,214.0041 L319.1043,214.9644 L326.7361,214.8773 L326.7404,217.7580 L325.7864,217.7688 L325.7895,219.6885 L324.8357,219.6993 L324.8420,223.5370 L323.8886,223.5476 L323.9001,230.2580 L322.9472,230.2684 L322.9507,232.1844 L319.1382,231.2681 L317.2268,228.4149 L315.3215,228.4359 L315.3192,227.4777 L312.4591,226.5509 L311.5015,224.6445 L307.6886,223.7284 L306.7304,221.8215 L302.9174,220.9054 L301.9585,218.9981 L296.2372,217.1444 L295.2775,215.2364 L293.3728,215.2582 L293.3689,214.2987 L291.4643,214.3205 L291.4603,213.3608 L289.5558,213.3827 L289.5517,212.4230 L287.6472,212.4449 L287.6430,211.4851 L285.7386,211.5071 L285.7342,210.5472 L283.8299,210.5692 L283.8253,209.6093 L281.9211,209.6313 L281.9164,208.6713 L279.0603,208.7045 L279.0554,207.7444 L277.1515,207.7666 L277.1464,206.8064 L274.2907,206.8398 L274.2855,205.8795 L272.3818,205.9018 L272.3764,204.9415 L269.5211,204.9750 L269.5155,204.0146 L266.6605,204.0482 L266.6547,203.0878 L263.7999,203.1215 L263.7939,202.1610 L260.9395,202.1947 L260.9333,201.2342 L258.0791,201.2680 L258.0727,200.3074 L250.4563,199.4373 L250.4494,198.4767 L231.4218,196.7830 L231.4301,197.7433 L233.3304,197.7206 L233.3386,198.6809 L239.9907,198.6015 L239.9984,199.5618 L249.5124,200.4091 L249.5194,201.3694 L256.1831,202.2509 L256.1897,203.2112 L259.0431,203.1775 L259.0495,204.1377 L261.9032,204.1042 L261.9093,205.0643 L264.7633,205.0308 L264.7693,205.9909 L270.4839,206.8842 L270.4894,207.8442 L272.3926,207.8220 L272.3980,208.7819 L275.2529,208.7487 L275.2581,209.7086 L277.1616,209.6865 L277.1666,210.6463 L279.0701,210.6243 L279.0750,211.5839 L281.9305,211.5510 L281.9352,212.5106 L283.8390,212.4887 L283.8435,213.4482 L285.7474,213.4264 L285.7518,214.3858 L287.6558,214.3641 L287.6601,215.3234 L289.5641,215.3017 L289.5682,216.2610 L295.2886,218.1144 L296.2482,220.0216 L300.0604,220.9375 L301.0193,222.8443 L302.9237,222.8230 L303.8822,224.7294 L305.7867,224.7082 L306.7448,226.6142 L308.6494,226.5931 L309.6071,228.4989 L311.5117,228.4779 L312.4690,230.3833 L314.3736,230.3624 L316.2851,233.2146 L318.1898,233.1939 L319.1462,235.0985 L321.0509,235.0779 L321.0527,236.0351 L322.9592,236.9718 L322.9695,242.7122 L320.1138,242.7424 L318.2042,239.8934 L316.3005,239.9137 L315.3442,238.0106 L313.4405,238.0310 L312.4838,236.1276 L310.5802,236.1481 L309.6232,234.2443 L305.8133,233.3285 L304.8556,231.4242 L302.9522,231.4450 L302.9490,230.4876 L301.0457,230.5085 L301.0424,229.5509 L298.1876,229.5823 L298.1841,228.6247 L296.2810,228.6457 L296.2774,227.6880 L294.3744,227.7090 L294.3706,226.7512 L292.4677,226.7723 L292.4637,225.8145 L289.6095,225.8462 L289.6054,224.8883 L287.7028,224.9094 L287.6985,223.9515 L284.8447,223.9833 L284.8402,223.0253 L281.9867,223.0572 L281.9821,222.0991 L279.1288,222.1311 L279.1240,221.1730 L276.2710,221.2051 L276.2659,220.2469 L269.6049,219.3638 L269.6105,220.3219 L272.4625,220.2898 L272.4679,221.2478 L275.3201,221.2158 L275.3253,222.1738 L278.1779,222.1418 L278.1828,223.0998 L283.8936,223.9939 L283.8981,224.9518 L285.8003,224.9306 L285.8047,225.8884 L288.6583,225.8567 L288.6625,226.8145 L290.5649,226.7934 L290.5690,227.7510 L292.4716,227.7300 L292.4755,228.6876 L294.3781,228.6666 L294.3819,229.6241 L296.2846,229.6032 L296.2883,230.5606 L298.1911,230.5397 L298.1946,231.4971 L303.9101,233.3492 L304.8677,235.2529 L308.6769,236.1687 L308.6796,237.1254 L311.5371,238.0515 L313.4477,240.9006 L315.3510,240.8803 L320.1215,246.5662 L319.1700,246.5761 L318.2288,251.3624 L316.3268,251.3821 L314.4319,254.2656 L310.6298,254.3045 L310.6272,253.3502 L308.7263,253.3697 L307.7703,251.4705 L303.9657,250.5552 L303.0091,248.6555 L299.2044,247.7403 L298.2471,245.8401 L296.3465,245.8601 L296.3429,244.9049 L294.4424,244.9249 L294.4386,243.9697 L292.5382,243.9897 L292.5343,243.0344 L290.6339,243.0545 L290.6298,242.0991 L288.7296,242.1192 L288.7254,241.1637 L286.8252,241.1840 L286.8208,240.2284 L284.9207,240.2486 L284.9162,239.2930 L283.0162,239.3133 L283.0116,238.3575 L281.1116,238.3779 L281.1069,237.4221 L275.4027,236.5276 L275.3975,235.5716 L270.6436,234.6671 L270.6381,233.7110 L267.7893,233.7419 L267.7836,232.7858 L263.9857,232.8272 L263.9797,231.8710 L257.3285,230.9876 L257.3221,230.0313 L253.5257,230.0730 L253.5189,229.1167 L249.7232,229.1586 L249.7162,228.2023 L244.9723,228.2546 L244.9649,227.2983 L240.2221,227.3509 L240.2144,226.3946 L235.4726,226.4472 L235.4645,225.4909 L230.7237,225.5437 L230.7153,224.5874 L225.0276,224.6509 L225.0189,223.6946 L221.2279,223.7370 L221.2188,222.7807 L216.4810,222.8338 L216.4716,221.8775 L210.7777,220.9852 L210.7384,217.1588 L207.8961,217.1911 L209.7315,211.4259 L206.8983,212.4163 L206.9084,213.3737 L205.0133,213.3955 L205.0236,214.3527 L203.1289,214.3744 L203.1393,215.3315 L201.2449,215.3531 L201.2554,216.3100 L199.3614,216.3316 L199.3721,217.2882 L188.9711,218.3630 L188.9597,217.4068 L187.0558,216.4721 L186.9981,211.6887 L184.1468,210.7645 L184.1351,209.8074 L179.3546,206.0330 L179.3304,204.1174 L177.4248,203.1818 L177.4003,201.2656 L176.4536,201.2768 L176.4289,199.3601 L175.4821,199.3714 L175.4573,197.4541 L174.5104,197.4655 L174.4730,194.5886 L173.5259,194.6001 L172.5159,189.8143 L171.5686,189.8259 L171.5305,186.9460 L170.5831,186.9576 L169.5074,177.3611 L170.4555,177.3492 L170.4172,174.4639 L171.3655,174.4519 L171.3528,173.4898 L173.2498,173.4657 L173.2373,172.5034 L178.9057,170.5056 L180.7679,167.5922 L182.6668,167.5677 L182.6549,166.6044 L184.5542,166.5798 L184.5424,165.6163 L186.4420,165.5917 L186.4304,164.6279 L188.3304,164.6033 L188.3189,163.6393 L190.2192,163.6146 L190.2079,162.6504 L193.0590,162.6133 L193.0478,161.6489 L194.9490,161.6240 L195.8777,159.6823 L197.7795,159.6573 L197.7687,158.6924 L199.6708,158.6674 L199.6601,157.7022 L202.5034,156.6992 L201.5204,153.8149 L200.5688,153.8276 L200.5582,152.8617 L196.7197,150.0143 L196.6979,148.0815 L192.8580,145.2328 L192.8021,140.3968 L193.7542,140.3838 L193.7431,139.4161 L199.4570,139.3377 L199.4677,140.3055 L203.2778,140.2533 L203.2882,141.2211 L207.1090,142.1368 L208.0819,144.0590 L209.9873,144.0331 L209.9972,145.0005 L215.7618,149.7590 L215.7808,151.6923 L216.7333,151.6796 L216.7522,153.6125 L217.7047,153.5998 L217.7234,155.5322 L218.6758,155.5196 L218.7780,166.1378 L217.8264,166.1501 L217.8451,168.0788 L215.9423,168.1033 L215.0101,170.0435 L210.2650,171.0680 L210.2749,172.0315 L206.4724,172.0800 L206.4825,173.0432 L202.6812,173.0915 L202.6916,174.0545 L198.8914,174.1027 L198.9021,175.0655 L196.0527,175.1015 L196.0636,176.0641 L191.3273,177.0862 L191.3498,179.0103 L193.2594,179.9484 L193.2816,181.8717 L194.2307,181.8599 L194.2528,183.7827 L195.2018,183.7709 L195.2238,185.6932 L196.1727,185.6815 L196.1945,187.6034 L197.1434,187.5917 L197.1650,189.5130 L198.1138,189.5014 L199.1161,194.2910 L201.0238,195.2280 L201.0132,194.2681 L202.9106,194.2452 L203.8386,192.3134 L205.7366,192.2903 L205.7264,191.3299 L207.6247,191.3068 L207.6146,190.3462 L209.5132,190.3231 L209.5033,189.3622 L212.3519,189.3274 L212.3422,188.3664 L221.8416,188.2500 L221.8507,189.2113 L224.7191,191.0989 L224.7367,193.0207 L225.6868,193.0092 L226.6543,194.9191 L227.6044,194.9077 L227.5871,192.9862 L230.4464,193.9126 L230.4379,192.9517 L233.2893,192.9172 L233.2811,191.9561 L238.9856,191.8868 L238.9778,190.9254 L233.2317,186.1865 L232.2393,181.3865 L233.1906,181.3747 L234.1256,179.4371 L239.8203,177.4390 L239.8126,176.4754 L242.6540,174.5118 L242.6313,171.6192 L239.7738,171.6557 L239.7505,168.7621 L240.7032,168.7499 L240.6878,166.8201 L241.6406,166.8078 L242.5784,164.8651 L234.9556,164.9637 L234.9475,163.9985 L233.0339,163.0579 L233.0174,161.1269 L232.0647,161.1393 L232.0563,160.1736 L230.1423,159.2328 L230.1254,157.3008 L229.1725,157.3134 L228.1594,150.5600 L227.2062,150.5727 L227.1105,139.9269 L228.0646,139.9138 L228.0473,137.9763 L229.9473,136.9811 L229.9218,134.0732 L232.7774,133.0638 L232.7692,132.0940 L227.0060,128.2938 L226.9799,125.3824 L241.3192,126.1509 L241.3269,127.1218 L243.2384,127.0949 L243.2459,128.0657 L246.1281,129.9668 L246.1793,136.7573 L245.2241,136.7705 L245.2388,138.7093 L243.3288,138.7355 L243.3363,139.7047 L240.4795,140.7128 L240.5027,143.6187 L241.4572,143.6057 L241.4801,146.5104 L242.4345,146.4975 L242.4648,150.3686 L245.3274,150.3303 L245.3200,149.3627 L248.1833,149.3243 L248.1761,148.3564 L260.5901,148.1896 L260.5964,149.1579 L262.5069,149.1322 L262.5191,151.0684 L265.3908,151.9981 L265.4027,153.9336 L264.4476,153.9463 L264.4595,155.8812 L265.4145,155.8685 L265.4086,154.9011 L266.3637,154.8885 L266.3578,153.9209 L267.3130,153.9083 L267.3073,152.9405 L268.2626,152.9278 L268.2569,151.9599 L269.2124,151.9472 L269.2067,150.9791 L270.1623,150.9664 L270.1568,149.9981 L271.1125,149.9854 L271.1070,149.0169 L276.8174,144.0950 L276.8123,143.1256 L267.2495,143.2554 L267.2437,142.2861 L263.4138,141.3689 L262.4456,139.4429 L260.5337,139.4691 L256.6777,134.6724 L250.9425,134.7518 L250.9356,133.7817 L248.0541,131.8811 L248.0398,129.9401 L246.1208,128.9962 L246.1061,127.0545 L244.1868,126.1104 L243.2007,122.2386 L242.2446,122.2522 L242.2217,119.3368 L241.2654,119.3505 L241.1885,109.6236 L242.1455,109.6096 L242.1303,107.6625 L243.0875,107.6485 L244.0222,104.7125 L244.9797,104.6984 L244.9129,95.9246 L245.8711,95.9102 L246.7856,90.0399 L247.7443,90.0253 L247.7298,88.0721 L249.6406,87.0660 L249.6264,85.1119 L250.5856,85.0972 L250.5716,83.1424 L252.4836,82.1352 L252.4698,80.1794 L256.2893,77.1849 L256.2761,75.2275 L257.2364,75.2125 L257.2299,74.2335 L258.1903,74.2185 L258.1838,73.2394 L259.1444,73.2243 L259.1380,72.2450 L260.0987,72.2299 L260.0924,71.2504 L261.0532,71.2353 L265.8226,65.2787 L267.7458,65.2481 L267.7400,64.2674 L270.6199,63.2405 L271.5709,61.2627 L273.4953,61.2318 L273.4899,60.2504 L275.4147,60.2195 L275.4095,59.2378 L277.3347,59.2068 L277.3296,58.2249 L279.2551,58.1939 L279.2502,57.2118 L281.1760,57.1807 L281.1712,56.1984 L284.0607,56.1517 L284.0561,55.1692 L286.9463,55.1223 L286.9419,54.1396 L289.8327,54.0926 L289.8286,53.1097 L293.6841,53.0469 L293.6802,52.0637 L298.5013,51.9851 L298.4978,51.0016 L312.9703,50.7653 L313.9236,45.8274 L314.8893,45.8114 L314.8823,42.8563 L315.8482,42.8403 L316.8055,38.8818 L318.7362,37.8636 L318.7321,35.8911 L319.6988,35.8749 L322.5921,31.8790 L324.5265,31.8463 L328.3894,26.8428 L330.3252,26.8098 L331.2909,24.8168 L333.2274,24.7837 L333.2264,23.7952 L335.1632,23.7621 L335.1623,22.7733 L338.0682,22.7235 L338.0675,21.7345 L340.0052,21.7013 L340.0047,20.7121 L345.8194,19.6225 L345.8193,18.6329 L354.5470,17.4921 L354.5476,16.5019 L363.2806,16.3506 Z"/>
<path d="M273.6291,85.7219 L270.7533,86.7436 L269.8043,88.7131 L267.8843,88.7423 L267.8900,89.7194 L265.9763,90.7255 L265.9880,92.6790 L265.0285,92.6934 L265.0404,94.6462 L264.0811,94.6607 L264.0931,96.6128 L263.1340,96.6272 L263.1523,99.5543 L266.0234,98.5358 L265.9998,94.6318 L266.9593,94.6174 L267.8958,90.6964 L268.8557,90.6819 L270.7589,87.7211 L272.6794,87.6919 Z"/>
<path d="M295.9913,152.5593 L292.1758,155.5152 L292.1837,157.4511 L286.4683,162.3632 L286.4770,164.2968 L280.7685,169.2018 L280.7781,171.1332 L279.8234,171.1454 L279.8282,172.1108 L277.9241,173.1003 L277.9341,175.0303 L276.0307,176.0192 L276.0409,177.9483 L275.0870,177.9603 L275.0974,179.8887 L274.1436,179.9006 L274.1646,183.7558 L273.2112,183.7676 L273.2325,187.6204 L274.1857,187.6087 L274.1962,189.5343 L275.1493,189.5227 L275.1129,182.7804 L276.0666,182.7686 L277.0051,179.8649 L279.8574,177.9004 L279.8477,175.9711 L280.8021,175.9591 L281.7423,173.0519 L284.5976,171.0845 L284.5886,169.1530 L287.4456,167.1840 L287.4369,165.2511 L290.2957,163.2805 L290.2875,161.3463 L292.1956,160.3540 L292.1877,158.4189 L294.0966,157.4260 L294.0890,155.4899 L295.0456,155.4773 Z"/>
<path d="M363.0932,167.1798 L362.1336,167.1921 L362.1325,168.1604 L363.0920,168.1482 L365.9654,171.9836 L367.8845,171.9592 L367.8830,172.9270 L369.8022,172.9027 L370.7583,174.8259 L373.6372,174.7896 L373.6353,175.7571 L375.5547,175.7330 L375.5526,176.7005 L383.2292,177.5717 L383.2265,178.5391 L394.7503,178.3952 L394.7538,177.4275 L392.8325,177.4515 L392.8359,176.4837 L382.2717,176.6162 L382.2743,175.6486 L378.4342,175.6968 L378.4365,174.7292 L376.5166,174.7533 L376.5188,173.7856 L373.6392,173.8220 L373.6412,172.8541 L371.7216,172.8784 L371.7234,171.9106 L365.9683,170.0477 L365.9697,169.0796 L363.0920,168.1482 Z"/>
<path d="M294.1425,169.0307 L293.1868,169.0429 L292.2431,171.9530 L291.2878,171.9651 L291.2999,174.8616 L290.3448,174.8736 L290.3571,177.7688 L289.4023,177.7807 L288.4856,186.4700 L287.5315,186.4817 L287.5444,189.3716 L286.5906,189.3832 L285.6502,192.2832 L286.6037,192.2717 L287.5444,189.3716 L289.4480,188.3851 L289.4356,185.4947 L290.3898,185.4829 L290.3775,182.5912 L291.3320,182.5794 L291.3119,177.7568 L292.2668,177.7448 L292.2471,172.9186 L293.2024,172.9065 L293.1907,170.0090 L294.1463,169.9968 Z"/>
<path d="M338.1651,175.2365 L340.0806,175.2123 L340.0811,176.1789 L345.8287,180.9380 L345.8288,182.8696 L348.7015,184.7652 L348.7012,186.6958 L350.6159,187.6375 L350.6153,189.5674 L351.5727,189.5557 L351.5720,191.4851 L352.5293,191.4735 L352.5284,193.4024 L353.4857,193.3908 L353.4841,196.2832 L354.4412,196.2717 L353.4821,200.1376 L348.6989,201.1574 L348.6991,200.1943 L345.8299,200.2283 L345.8298,199.2651 L342.9604,197.3726 L342.0027,193.5292 L340.0891,192.5883 L340.0882,190.6598 L339.1315,190.6715 L339.1304,188.7425 L338.1737,188.7542 L338.1725,186.8248 L337.2157,186.8365 Z"/>
<path d="M362.1110,186.5315 L364.9845,187.4619 L365.9387,190.3461 L363.0620,192.3108 L363.0596,194.2400 L362.1019,194.2515 L359.2255,198.1423 L355.3964,199.1515 L355.3977,197.2241 L356.3548,197.2127 L356.3598,190.4624 L359.2338,189.4625 L359.2347,188.4974 L361.1506,188.4740 Z"/>
<path d="M383.1678,199.7859 L391.7961,199.6837 L391.7928,200.6481 L393.7107,200.6254 L393.7072,201.5897 L395.6216,202.5314 L395.6073,206.3869 L394.6487,206.3981 L394.6452,207.3616 L390.8082,208.3694 L389.8437,210.3065 L386.9697,210.3396 L386.9668,211.3024 L384.0935,211.3354 L384.0908,212.2979 L380.2609,212.3419 L380.2535,215.2282 L381.2107,215.2173 L381.2057,217.1408 L382.1628,217.1300 L382.1576,219.0530 L383.1147,219.0422 L383.1093,220.9648 L384.0663,220.9541 L384.0581,223.8369 L385.0149,223.8263 L385.0093,225.7475 L385.9660,225.7370 L385.9603,227.6577 L386.9169,227.6472 L386.9111,229.5674 L384.9982,229.5884 L384.9898,232.4676 L386.8994,233.4063 L386.8935,235.3249 L387.8496,235.3146 L387.8436,237.2327 L388.7997,237.2224 L388.7935,239.1400 L389.7495,239.1298 L389.7432,241.0469 L390.6991,241.0367 L390.6863,244.8694 L391.6419,244.8593 L390.6639,251.5711 L389.7088,251.5809 L385.8747,256.4024 L381.1003,257.4067 L381.0978,258.3624 L379.1897,258.3817 L379.1874,259.3373 L374.4184,259.3853 L374.4164,260.3405 L364.8820,261.3911 L364.8807,262.3458 L361.0695,262.3839 L361.0685,263.3384 L359.1633,263.3573 L359.1624,264.3116 L356.3053,264.3400 L356.3046,265.2940 L352.4962,265.3317 L352.4958,266.2855 L348.6886,266.3231 L348.6884,267.2766 L347.7368,267.2860 L347.7372,262.5171 L340.1235,262.5931 L340.1231,261.6392 L339.1715,261.6487 L339.1705,259.7404 L340.1221,259.7308 L340.1198,254.9575 L341.0719,254.9477 L341.0703,251.1265 L342.0227,251.1166 L342.9746,249.1952 L344.8799,249.1754 L346.7855,246.2869 L348.6917,246.2670 L349.6454,244.3436 L355.3677,242.3691 L353.4632,236.6436 L362.0558,233.6757 L362.0659,225.0417 L361.1105,225.0523 L361.1136,222.1719 L362.0693,222.1612 L362.0749,217.3576 L363.0309,217.3468 L363.0333,215.4243 L363.9895,215.4134 L363.9946,211.5666 L364.9511,211.5556 L364.9538,209.6313 L365.9105,209.6203 L368.7875,205.7364 L370.7021,205.7141 L371.6631,203.7765 L374.5359,203.7428 L374.5379,202.7793 L376.4535,202.7568 L376.4557,201.7931 L383.1652,200.7501 Z"/>
<path d="M142.5680,212.2024 L152.0113,212.0932 L152.0253,213.0491 L155.8176,213.9614 L155.8452,215.8728 L156.7898,215.8620 L156.8172,217.7729 L157.7617,217.7621 L156.9679,228.2728 L156.0242,228.2832 L156.0929,233.0503 L155.1496,233.0606 L155.2049,236.8717 L154.2619,236.8819 L153.4304,244.5071 L154.3728,244.4971 L154.3590,243.5457 L158.1293,243.5057 L158.1157,242.5540 L161.8871,242.5139 L161.8738,241.5619 L163.7599,241.5418 L163.7731,242.4938 L166.6026,242.4637 L166.5896,241.5116 L172.2504,241.4512 L172.2629,242.4034 L176.9814,242.3532 L176.9936,243.3054 L180.7810,244.2176 L181.7487,246.1116 L182.6925,246.1017 L182.6807,245.1497 L185.5244,246.0719 L185.4779,242.2628 L186.4222,242.2527 L187.2976,236.5245 L188.2425,236.5143 L188.2196,234.6071 L189.1646,234.5969 L190.9874,228.8509 L191.9330,228.8405 L196.5968,223.0569 L198.4895,223.0356 L199.4147,221.1133 L202.2547,221.0813 L202.2443,220.1251 L206.0320,220.0823 L206.0422,221.0386 L206.9892,221.0279 L206.0727,223.9066 L207.0195,223.8960 L207.0396,225.8073 L207.9864,225.7968 L208.0164,228.6628 L207.0699,228.6733 L206.1539,231.5484 L203.3362,233.4884 L203.3569,235.3968 L201.4759,236.3712 L201.4968,238.2786 L200.5514,238.2888 L200.5725,240.1956 L199.6272,240.2057 L199.6484,242.1119 L198.7033,242.1220 L198.7460,245.9326 L197.8013,245.9426 L197.8549,250.7027 L196.9106,250.7125 L196.0423,257.3803 L195.0985,257.3899 L195.1204,259.2909 L192.3120,261.2198 L191.4246,265.9775 L190.4817,265.9868 L190.5042,267.8851 L189.5615,267.8944 L188.6416,269.8013 L183.9298,269.8475 L183.9181,268.8989 L182.0336,268.9175 L182.0217,267.9688 L181.0795,267.9781 L181.0914,268.9268 L168.8481,269.0473 L168.8353,268.0990 L151.8827,267.3184 L151.8686,266.3703 L146.2255,266.4264 L146.2110,265.4783 L139.6144,264.5959 L139.5995,263.6478 L137.7192,263.6666 L137.7041,262.7184 L135.8088,261.7890 L135.7784,259.8920 L134.8382,259.9016 L134.8077,258.0041 L133.8674,258.0137 L134.7467,254.2075 L136.6129,253.2386 L136.5827,251.3391 L135.6418,251.3489 L135.5202,243.7457 L136.4617,243.7357 L136.4162,240.8822 L137.3579,240.8721 L137.3277,238.9690 L138.2696,238.9589 L140.0642,233.2255 L141.0066,233.2152 L141.9049,230.3463 L143.7758,229.3724 L144.6604,225.5477 L143.7172,225.5582 L142.7447,223.6609 L139.9152,223.6927 L139.9002,222.7386 L127.6437,222.8765 L127.6279,221.9226 L128.5705,221.9120 L128.5390,220.0039 L129.4818,219.9932 L131.3208,217.1084 L133.2071,217.0869 L133.1917,216.1321 L135.0783,216.1105 L135.0630,215.1555 L136.9500,215.1338 L136.9349,214.1786 L138.8222,214.1569 L138.8072,213.2015 L142.5827,213.1580 Z"/>
<path d="M333.4119,209.9960 L334.3669,209.9850 L334.3686,211.9074 L336.2784,211.8855 L336.2792,212.8465 L338.1884,211.8635 L338.1896,213.7856 L337.2347,213.7966 L337.2361,215.7181 L338.1908,215.7072 L338.1969,225.3067 L337.2429,225.3173 L336.2956,233.9551 L335.3423,233.9654 L335.3448,236.8386 L336.2979,236.8283 L336.3031,243.5276 L337.2558,243.5176 L337.2598,249.2546 L336.3076,249.2645 L336.3098,252.1311 L335.3578,252.1409 L336.3120,254.9964 L333.4577,255.9803 L333.4587,256.9349 L331.5557,256.9542 L331.5547,255.9997 L328.7004,256.0288 L328.6991,255.0741 L326.7950,254.1389 L326.7922,252.2291 L325.8407,252.2389 L325.8347,248.4178 L324.8830,248.4277 L324.8625,235.9941 L325.8151,235.9838 L325.8136,235.0263 L324.8609,235.0366 L324.8546,231.2056 L325.8076,231.1952 L325.7955,223.5263 L326.7490,223.5157 L326.7433,219.6778 L327.6971,219.6670 L327.6944,217.7472 L328.6485,217.7364 L328.6459,215.8159 L329.6001,215.8050 L329.5952,211.9623 L330.5498,211.9514 L330.5486,210.9903 L333.4129,210.9573 Z"/>
<path d="M213.6582,224.7777 L222.1935,225.6386 L222.2025,226.5945 L225.9929,226.5525 L226.0016,227.5083 L229.7926,227.4664 L229.8010,228.4222 L234.5406,228.3699 L234.5487,229.3257 L238.3410,229.2839 L238.3488,230.2398 L242.1417,230.1981 L242.1493,231.1539 L246.8913,231.1019 L246.8985,232.0577 L250.6929,232.0163 L250.6998,232.9720 L254.4947,232.9307 L254.5014,233.8864 L259.2458,233.8348 L259.2522,234.7906 L262.0993,234.7597 L262.1054,235.7154 L265.9021,235.6743 L265.9079,236.6300 L268.7558,236.5993 L268.7614,237.5549 L272.5591,237.5141 L272.5644,238.4696 L278.2670,239.3641 L278.2719,240.3196 L280.1713,240.2993 L280.1761,241.2547 L285.8795,242.1495 L285.8839,243.1048 L287.7837,243.0847 L287.7880,244.0399 L289.6879,244.0198 L289.6920,244.9749 L292.5421,244.9449 L292.5460,245.9000 L294.4462,245.8800 L294.4499,246.8350 L296.3502,246.8151 L296.3538,247.7700 L298.2541,247.7502 L298.2576,248.7050 L303.9657,250.5552 L304.9221,252.4544 L310.6298,254.3045 L310.6324,255.2587 L311.5828,255.2490 L311.5904,258.1109 L310.6402,258.1205 L310.6428,259.0742 L308.7454,260.0469 L308.7509,261.9534 L306.8543,262.9254 L306.8601,264.8310 L305.9106,264.8405 L305.9165,266.7454 L304.9673,266.7548 L304.9733,268.6592 L304.0242,268.6685 L304.0304,270.5723 L303.0815,270.5815 L303.0878,272.4847 L302.1391,272.4939 L302.1455,274.3965 L301.1970,274.4056 L301.2069,277.2584 L299.3105,277.2765 L298.3554,275.3840 L296.4590,275.4023 L296.4554,274.4514 L293.6073,273.5278 L292.6514,271.6347 L290.7551,271.6532 L290.7511,270.7019 L288.8549,270.7204 L288.8508,269.7690 L286.9547,269.7876 L286.9504,268.8361 L285.0543,268.8547 L285.0499,267.9032 L283.1539,267.9219 L283.1494,266.9702 L281.2535,266.9890 L281.2488,266.0373 L278.4052,266.0654 L278.4003,265.1137 L273.6564,264.2090 L273.6511,263.2571 L271.7558,263.2760 L271.7504,262.3240 L268.9076,262.3525 L268.9020,261.4005 L266.0594,261.4290 L266.0536,260.4769 L263.2114,260.5056 L263.2054,259.5534 L260.3634,259.5821 L260.3572,258.6300 L257.5155,258.6587 L257.5090,257.7065 L254.6676,257.7354 L254.6610,256.7831 L250.8729,256.8216 L250.8660,255.8693 L248.0253,255.8983 L248.0182,254.9460 L245.1778,254.9751 L245.1705,254.0226 L241.3837,254.0615 L241.3761,253.1090 L234.7428,252.2249 L234.7348,251.2723 L230.9496,251.3116 L230.9412,250.3590 L225.2646,250.4179 L225.2559,249.4654 L209.1815,249.6328 L209.1914,250.5849 L203.5222,250.6438 L203.5016,248.7398 L202.5568,248.7497 L202.5360,246.8453 L201.5911,246.8552 L201.5178,240.1855 L202.4632,240.1754 L203.3672,236.3507 L204.3130,236.3405 L204.3027,235.3865 L209.9294,230.5520 L209.9096,228.6419 L210.8563,228.6315 Z"/>
<path d="M209.1914,250.5849 L222.4271,250.4474 L222.4360,251.3997 L228.1112,251.3410 L228.1198,252.2933 L235.6972,253.1676 L235.7052,254.1199 L238.5442,254.0907 L238.5520,255.0429 L241.3913,255.0138 L241.3989,255.9660 L245.1851,255.9274 L245.1924,256.8795 L248.0324,256.8506 L248.0396,257.8027 L250.8798,257.7738 L250.8867,258.7259 L256.5749,259.6204 L256.5814,260.5724 L258.4754,260.5533 L258.4817,261.5052 L261.3230,261.4766 L261.3291,262.4284 L264.1707,262.4000 L264.1766,263.3517 L267.0184,263.3233 L267.0241,264.2750 L270.8137,264.2373 L270.8192,265.1890 L274.6093,265.1513 L274.6145,266.1030 L276.5097,266.0842 L276.5148,267.0358 L279.3579,267.0077 L279.3627,267.9592 L281.2582,267.9405 L281.2629,268.8920 L284.1064,268.8640 L284.1109,269.8154 L289.8071,271.6624 L290.7632,273.5554 L292.6592,273.5370 L294.5667,276.3712 L296.4627,276.3530 L296.4663,277.3037 L299.3173,279.1775 L299.3275,282.0280 L298.3798,282.0369 L298.3902,284.8861 L297.4427,284.8950 L297.4569,288.6919 L296.5097,288.7006 L294.6379,294.4088 L292.7486,295.3739 L292.7564,297.2693 L291.8101,297.2778 L290.8719,299.1810 L284.2505,299.2400 L284.2460,298.2929 L280.4585,297.3795 L279.5032,295.4934 L277.6119,295.5104 L276.6562,293.6239 L274.7649,293.6411 L273.8089,291.7542 L271.9176,291.7715 L270.9612,289.8843 L267.1733,288.9711 L266.2162,287.0835 L264.3251,287.1010 L264.3192,286.1527 L262.4282,286.1703 L262.4221,285.2219 L259.5858,285.2483 L259.5796,284.2999 L257.6888,284.3176 L257.6824,283.3690 L254.8465,283.3957 L254.8399,282.4471 L252.9495,282.4649 L252.9427,281.5162 L249.1621,281.5519 L249.1551,280.6032 L245.3751,280.6390 L245.3679,279.6903 L241.5885,279.7262 L241.5809,278.7774 L237.8021,278.8135 L237.7942,277.8647 L233.0716,277.9098 L233.0634,276.9610 L227.3976,277.0154 L227.3890,276.0666 L203.7901,275.3453 L203.7798,274.3969 L199.0761,275.3908 L198.9059,260.2030 L199.8497,260.1935 L199.8179,257.3418 L200.7620,257.3322 L200.7410,255.4303 L201.6852,255.4206 L203.5429,252.5472 L205.4321,252.5277 L205.4219,251.5760 L209.2013,251.5368 Z"/>
<path d="M315.3849,255.2102 L317.2863,255.1907 L317.2905,257.0992 L318.2412,257.0895 L318.2678,269.4811 L317.3181,269.4904 L317.3308,275.2015 L316.3815,275.2106 L316.3924,279.9660 L315.4435,279.9750 L314.5132,287.5851 L313.5650,287.5938 L313.5721,290.4419 L312.6242,290.4506 L312.6291,292.3485 L311.6813,292.3571 L311.6863,294.2545 L310.7387,294.2631 L309.7965,296.1683 L307.9019,296.1854 L307.9047,297.1335 L302.2225,297.1844 L301.2658,294.3488 L300.3188,294.3574 L300.2854,284.8684 L301.2331,284.8596 L301.2200,281.0601 L302.1680,281.0511 L302.1584,278.1999 L303.1066,278.1909 L303.1004,276.2894 L304.0488,276.2803 L304.0396,273.4269 L304.9883,273.4177 L304.9823,271.5147 L305.9312,271.5055 L305.9224,268.6499 L306.8716,268.6405 L307.8096,264.8216 L309.7060,263.8499 L309.7007,261.9439 L310.6506,261.9344 L310.6454,260.0277 L312.5431,259.0550 L312.5381,257.1474 L315.3871,256.1644 Z"/>
<path d="M189.6632,276.4295 L191.5475,276.4114 L192.6116,286.8200 L193.5532,286.8112 L193.6082,291.5412 L194.5494,291.5326 L194.6150,297.2043 L195.5559,297.1958 L195.5342,295.3058 L196.4752,295.2972 L196.3889,287.7313 L197.3305,287.7226 L197.2768,282.9893 L198.2189,282.9804 L198.1762,279.1912 L199.1185,279.1822 L199.1079,278.2346 L215.1377,278.0813 L215.1472,279.0294 L221.7517,278.9665 L221.7607,279.9147 L228.3673,279.8519 L228.3758,280.8001 L237.8256,281.6590 L237.8334,282.6073 L241.6112,282.5717 L241.6187,283.5199 L249.1832,284.3972 L249.1902,285.3454 L252.0248,285.3189 L252.0316,286.2670 L254.8664,286.2406 L254.8730,287.1887 L257.7081,287.1624 L257.7145,288.1104 L263.3917,289.0060 L263.3977,289.9539 L265.2882,289.9365 L265.2941,290.8843 L267.1847,290.8670 L267.1904,291.8147 L269.0811,291.7974 L269.0867,292.7451 L274.7701,294.5886 L275.7259,296.4748 L279.5129,297.3880 L280.4680,299.2737 L282.3592,299.2569 L282.3638,300.2038 L283.3094,300.1954 L283.3458,307.7662 L282.4008,307.7744 L282.4100,309.6657 L281.4652,309.6738 L281.4746,311.5645 L280.5299,311.5726 L280.5394,313.4626 L279.5950,313.4707 L279.6046,315.3601 L278.6603,315.3681 L276.8021,321.0487 L275.8584,321.0565 L275.8635,322.0001 L273.0329,322.0234 L273.0276,321.0799 L271.1406,321.0955 L271.1352,320.1519 L269.2484,320.1675 L269.2428,319.2238 L267.3560,319.2395 L267.3503,318.2957 L265.4636,318.3115 L265.4578,317.3676 L262.6279,317.3913 L262.6219,316.4474 L257.8998,315.5431 L257.8934,314.5990 L256.0073,314.6150 L256.0008,313.6708 L254.1147,313.6869 L254.1080,312.7426 L251.2791,312.7667 L251.2722,311.8225 L248.4435,311.8466 L248.4365,310.9023 L245.6081,310.9265 L245.6008,309.9822 L242.7727,310.0065 L242.7652,309.0620 L239.9374,309.0864 L239.9297,308.1420 L237.1021,308.1664 L237.0943,307.2219 L233.3246,307.2546 L233.3165,306.3101 L229.5475,306.3429 L229.5390,305.3983 L224.8286,305.4395 L224.8198,304.4949 L218.2270,304.5527 L218.2178,303.6081 L197.5021,302.8462 L197.4914,301.9020 L195.6101,301.9186 L195.5884,300.0299 L194.6478,300.0383 L195.6752,307.5815 L196.6154,307.5734 L196.6585,311.3460 L197.5985,311.3380 L198.6023,316.9851 L199.5420,316.9772 L199.5631,318.8613 L200.5027,318.8535 L200.5236,320.7370 L201.4632,320.7292 L201.4840,322.6123 L202.4234,322.6046 L202.4441,324.4872 L203.3835,324.4795 L203.4040,326.3616 L204.3433,326.3540 L204.3739,329.1762 L205.3131,329.1687 L205.3333,331.0495 L206.2724,331.0421 L206.2925,332.9224 L207.2315,332.9150 L207.2614,335.7346 L208.2003,335.7273 L208.2300,338.5458 L209.1687,338.5385 L209.2081,342.2948 L210.1465,342.2876 L209.2376,345.1105 L201.7335,345.1672 L201.7646,347.9811 L202.7022,347.9741 L202.7331,350.7869 L203.6706,350.7800 L203.6911,352.6545 L202.7537,352.6614 L202.7640,353.5985 L203.7013,353.5916 L202.7949,356.4088 L199.9944,357.3656 L200.0049,358.3019 L195.3217,358.3354 L195.3326,359.2714 L180.3563,359.3783 L180.3444,358.4427 L175.6667,358.4762 L175.6545,357.5405 L169.0948,356.6521 L169.0821,355.7164 L165.3286,354.8077 L164.3675,352.9428 L161.5622,352.9633 L161.5755,353.8992 L159.7057,353.9129 L159.7190,354.8485 L157.8496,354.8621 L157.8631,355.7976 L151.3221,355.8450 L151.3082,354.9097 L147.5572,354.0016 L147.5429,353.0661 L145.6602,352.1442 L145.6315,350.2727 L143.7485,349.3506 L143.7195,347.4784 L142.7851,347.4854 L142.7559,345.6127 L141.8215,345.6198 L141.7922,343.7466 L140.8576,343.7537 L140.8282,341.8801 L139.8936,341.8872 L139.8492,339.0758 L138.9144,339.0831 L138.8698,336.2705 L137.9349,336.2779 L137.8901,333.4642 L136.9551,333.4716 L136.9401,332.5335 L134.1350,332.5558 L134.1502,333.4938 L131.3457,333.5160 L131.3611,334.4539 L129.4919,334.4686 L129.5074,335.4063 L126.7042,335.4283 L126.7199,336.3657 L124.8515,336.3804 L123.9492,338.2620 L122.0814,338.2765 L121.1797,340.1574 L119.3125,340.1718 L119.2800,338.2983 L118.3463,338.3056 L119.1662,331.7369 L120.1004,331.7294 L120.0680,329.8535 L121.9207,328.9002 L121.8886,327.0233 L122.8233,327.0157 L122.8072,326.0771 L123.7421,326.0695 L123.7261,325.1306 L124.6610,325.1230 L124.6452,324.1840 L125.5802,324.1763 L130.1633,318.5002 L132.0349,318.4846 L132.9401,316.5963 L135.7485,316.5726 L135.7334,315.6321 L139.4788,315.6004 L141.3960,318.4062 L146.0929,319.3074 L146.1072,320.2477 L147.0438,320.2399 L147.0581,321.1801 L152.7474,325.8332 L152.7752,327.7121 L155.6118,329.5679 L155.6391,331.4459 L157.5252,332.3699 L157.5523,334.2472 L159.4381,335.1709 L159.4649,337.0475 L162.2732,337.0256 L162.2600,336.0873 L164.1327,336.0726 L164.1196,335.1341 L176.2977,335.0383 L176.3099,335.9772 L180.0586,335.9478 L180.0705,336.8866 L182.8823,336.8647 L182.8941,337.8035 L183.8314,337.7962 L183.7847,334.0401 L186.5978,334.0179 L185.6024,329.3270 L184.6643,329.3346 L183.2463,290.6907 L184.1870,290.6820 L184.1170,285.0064 L185.0581,284.9976 L185.0233,282.1579 L185.9647,282.1490 L186.8602,278.3517 L189.6745,277.3771 Z"/>
<path d="M309.8018,298.0645 L312.6438,298.0391 L312.6462,298.9870 L314.5410,298.9702 L315.4929,300.8574 L317.3877,300.8406 L317.3898,301.7883 L323.0786,303.6334 L324.0294,305.5199 L325.9245,305.5034 L325.9260,306.4506 L327.8212,306.4341 L328.7714,308.3202 L330.6666,308.3038 L331.6165,310.1895 L333.5117,310.1732 L335.4097,312.9971 L336.3573,312.9891 L336.3536,308.2548 L337.3016,308.2466 L337.3002,306.3518 L342.0421,307.2582 L342.0418,306.3107 L343.9388,306.2942 L344.8871,304.3902 L349.6317,303.4006 L349.6320,302.4522 L359.1261,302.3687 L359.1252,303.3173 L361.0235,304.2492 L361.0215,306.1459 L361.9710,306.1376 L361.9677,308.9817 L362.9171,308.9735 L362.9112,313.7110 L363.8603,313.7029 L363.8478,323.1679 L362.8994,323.1756 L362.8971,325.0669 L356.2606,325.1208 L355.3146,322.2920 L351.5233,321.3774 L351.5229,322.3231 L348.6795,323.2919 L346.7844,326.1427 L344.8900,326.1580 L344.8898,325.2131 L341.1009,324.2989 L340.1529,322.4164 L338.2587,322.4319 L337.3150,327.1639 L336.3683,327.1715 L335.4233,329.0678 L329.7445,328.1691 L328.7958,326.2882 L326.9034,326.3035 L325.9543,324.4223 L324.0619,324.4377 L324.0603,323.4931 L319.3221,319.7526 L319.3182,317.8621 L318.3719,317.8700 L318.3698,316.9246 L312.6805,312.2440 L312.6756,310.3518 L309.8310,308.4835 L309.8257,306.5904 L308.8791,306.5986 L308.8737,304.7050 L307.9270,304.7132 L307.9130,299.9769 L308.8601,299.9685 Z"/>
<path d="M196.5831,304.7424 L213.5290,305.5382 L213.5385,306.4823 L219.1870,306.4331 L219.1961,307.3773 L223.9043,307.3364 L223.9131,308.2806 L228.6223,308.2398 L228.6308,309.1840 L233.3409,309.1433 L233.3491,310.0875 L237.1179,310.0551 L237.1257,310.9992 L240.8951,310.9669 L240.9027,311.9110 L248.4506,312.7908 L248.4576,313.7349 L251.2859,313.7109 L251.2928,314.6548 L254.1213,314.6309 L254.1280,315.5749 L259.7923,316.4712 L259.7986,317.4150 L261.6848,317.3992 L261.6909,318.3429 L263.5771,318.3272 L263.5831,319.2709 L266.4127,319.2473 L266.4185,320.1910 L270.1973,321.1033 L271.1515,322.9823 L273.9868,323.9024 L274.0024,326.7315 L273.0593,326.7391 L273.0699,328.6244 L271.1894,329.5819 L271.2003,331.4663 L269.3206,332.4232 L269.3317,334.3067 L268.3894,334.3141 L264.6500,339.0494 L260.8834,339.0785 L260.8772,338.1377 L258.0526,338.1596 L258.0463,337.2188 L253.3326,336.3146 L253.3259,335.3737 L250.5020,335.3958 L250.4951,334.4548 L242.0181,333.5806 L242.0106,332.6395 L236.3658,332.6843 L236.3579,331.7433 L207.2015,330.0941 L207.1815,328.2129 L206.2422,328.2205 L206.2220,326.3387 L205.2826,326.3464 L205.2624,324.4642 L204.3229,324.4718 L204.3025,322.5891 L203.3629,322.5969 L203.3424,320.7137 L202.4027,320.7215 L202.3820,318.8378 L201.4423,318.8456 L201.4215,316.9615 L200.4817,316.9694 L200.4607,315.0847 L199.5208,315.0927 L199.4997,313.2075 L198.5598,313.2155 L198.5279,310.3869 L197.5878,310.3950 Z"/>
<path d="M288.0675,306.7793 L289.0130,306.7711 L289.0213,308.6630 L289.9666,308.6549 L289.9870,313.3825 L289.0420,313.3905 L289.0627,318.1146 L288.1181,318.1225 L288.1349,321.8991 L287.1906,321.9069 L287.2035,324.7379 L286.2594,324.7456 L286.2768,328.5183 L285.3331,328.5259 L285.3507,332.2963 L284.4073,332.3038 L284.4252,336.0719 L283.4822,336.0792 L283.5003,339.8451 L282.5576,339.8523 L282.5714,342.6752 L281.6289,342.6824 L280.7149,348.3314 L279.7729,348.3384 L279.7825,350.2179 L278.8407,350.2248 L276.9873,355.8734 L276.0461,355.8802 L274.1794,358.7091 L272.2978,358.7225 L271.3678,360.6052 L268.5463,360.6252 L268.5519,361.5629 L261.9708,361.6093 L261.0185,359.7408 L258.1922,358.8231 L258.1669,355.0709 L259.1072,355.0641 L260.0351,353.1803 L261.9161,353.1666 L261.9101,352.2278 L262.8508,352.2210 L262.8447,351.2820 L263.7855,351.2751 L263.7796,350.3360 L264.7205,350.3291 L264.7147,349.3899 L270.3343,344.6490 L270.3234,342.7684 L272.2018,341.8136 L272.1911,339.9321 L273.1332,339.9249 L273.1227,338.0428 L274.0650,338.0355 L274.0546,336.1528 L274.9971,336.1455 L274.9868,334.2622 L275.9295,334.2548 L275.9194,332.3710 L276.8623,332.3635 L276.8472,329.5366 L277.7904,329.5291 L277.7805,327.6438 L278.7238,327.6362 L278.7092,324.8071 L279.6528,324.7994 L279.6431,322.9127 L280.5869,322.9049 L280.5727,320.0737 L281.5167,320.0658 L281.5074,318.1776 L282.4516,318.1697 L282.4424,316.2809 L283.3868,316.2730 L283.3777,314.3835 L284.3223,314.3755 L284.3133,312.4855 L285.2581,312.4775 L285.2493,310.5868 L287.1350,309.6251 Z"/>
<path d="M212.8664,332.8704 L223.2021,332.7885 L223.2109,333.7290 L237.3221,334.5584 L237.3300,335.4990 L245.8038,336.3734 L245.8110,337.3140 L248.6337,337.2920 L248.6408,338.2326 L254.2939,339.1294 L254.3005,340.0698 L256.1828,340.0553 L256.1893,340.9956 L259.0130,340.9740 L259.0193,341.9143 L259.9605,341.9071 L259.9792,344.7272 L257.1690,346.6278 L257.1818,348.5065 L256.2412,348.5135 L256.2541,350.3916 L255.3137,350.3986 L255.3268,352.2761 L254.3865,352.2830 L254.4130,356.0363 L253.4730,356.0431 L254.5054,369.1560 L253.5664,369.1625 L250.7771,372.9249 L248.9002,372.9375 L248.9072,373.8729 L240.4640,373.9294 L240.4564,372.9942 L234.8295,373.0320 L234.8215,372.0968 L231.0711,372.1221 L231.0628,371.1869 L228.2503,371.2059 L228.2419,370.2707 L225.4297,370.2898 L225.4210,369.3545 L222.6091,369.3737 L222.6002,368.4384 L216.9681,367.5416 L216.0124,365.6771 L214.1382,365.6901 L213.1822,363.8252 L211.3080,363.8383 L211.2984,362.9025 L208.4676,361.0503 L207.4908,357.3117 L206.5536,357.3184 L206.5034,352.6339 L207.4410,352.6271 L207.4211,350.7523 L209.2966,350.7384 L210.2052,347.9181 L211.1433,347.9111 L211.0365,337.5845 L210.0976,337.5918 L210.0585,333.8328 L212.8760,333.8106 Z"/>
<path d="M73.0697,358.2780 L85.1604,358.1911 L85.1790,359.1241 L87.9703,359.1041 L87.9887,360.0371 L91.7290,360.9435 L92.6958,362.8024 L94.5569,362.7893 L95.5412,365.5803 L97.4199,366.4996 L97.4732,369.2958 L98.4035,369.2894 L98.6156,380.4622 L97.6861,380.4683 L97.7570,384.1882 L96.8278,384.1942 L96.8633,386.0533 L95.9343,386.0592 L95.9878,388.8468 L95.0591,388.8526 L95.0949,390.7103 L94.1663,390.7161 L94.2022,392.5732 L93.2738,392.5789 L93.3098,394.4354 L92.3816,394.4411 L90.6345,400.0184 L88.7975,400.9565 L87.9436,404.6691 L86.1078,405.6063 L85.2550,409.3158 L84.3283,409.3210 L83.4577,412.1029 L82.5313,412.1081 L82.5875,414.8834 L81.6614,414.8885 L81.7178,417.6626 L80.7919,417.6676 L80.8861,422.2883 L79.9606,422.2932 L79.9984,424.1405 L80.9238,424.1357 L81.0180,428.7518 L81.9432,428.7472 L82.9432,432.4332 L83.8681,432.4287 L87.6604,437.0215 L89.5102,437.0126 L89.5285,437.9345 L91.3784,437.9256 L91.3965,438.8474 L93.2465,438.8386 L93.2645,439.7604 L96.0397,439.7472 L96.0575,440.6689 L103.4598,440.6341 L103.4426,439.7122 L105.2938,439.7034 L107.0943,436.9279 L108.9464,436.9190 L108.9801,438.7637 L107.1453,439.6946 L107.1792,441.5385 L105.3280,441.5472 L104.4369,443.3947 L101.6610,443.4075 L101.6784,444.3288 L91.5050,444.3756 L91.4869,443.4545 L85.9400,443.4802 L85.9216,442.5592 L79.4332,441.6683 L79.4142,440.7472 L75.6988,439.8435 L74.7363,438.0053 L72.8882,438.0142 L72.8688,437.0927 L70.0577,435.2630 L70.0185,433.4194 L69.0943,433.4239 L69.0550,431.5799 L68.1308,431.5845 L68.0715,428.8174 L67.1472,428.8221 L67.0877,426.0540 L66.1632,426.0588 L65.7850,408.5004 L66.7107,408.4952 L66.6511,405.7184 L67.5771,405.7130 L67.5176,402.9350 L68.4439,402.9296 L68.3648,399.2236 L69.2914,399.2181 L69.0942,389.9436 L68.1670,389.9494 L67.0610,381.5973 L66.1333,381.6033 L66.0734,378.8151 L65.1456,378.8212 L65.1055,376.9617 L64.1776,376.9679 L64.1374,375.1079 L63.2094,375.1142 L63.1489,372.3234 L60.3850,373.2725 L60.4054,374.2027 L57.6631,376.0812 L58.6522,378.8638 L59.5797,378.8577 L59.6409,381.6454 L60.5682,381.6394 L61.6983,390.9177 L62.6250,390.9119 L62.8671,402.0359 L61.9411,402.0414 L61.1773,409.4519 L60.2519,409.4571 L59.4081,413.1615 L57.5787,414.0962 L57.6197,415.9446 L56.6950,415.9496 L53.1007,420.5879 L51.2525,420.5978 L49.4677,423.3766 L47.6203,423.3863 L47.6415,424.3089 L45.7944,424.3186 L44.9137,426.1682 L43.0672,426.1777 L43.1962,431.7087 L44.1191,431.7041 L44.1405,432.6255 L53.3918,433.5013 L53.4125,434.4227 L57.1262,435.3260 L58.0904,437.1639 L59.9370,437.1550 L61.8442,439.9091 L63.6909,439.9003 L63.7109,440.8211 L64.6342,440.8168 L64.6542,441.7374 L70.2926,446.3137 L70.3317,448.1537 L75.0249,451.8118 L75.0633,453.6505 L77.8706,455.4768 L77.9086,457.3146 L79.7734,458.2256 L80.7716,461.8955 L82.6358,462.8061 L82.7104,466.4775 L84.5555,466.4703 L82.7851,470.1468 L83.7073,470.1433 L83.6887,469.2261 L86.4193,467.3806 L86.3825,465.5452 L88.2098,464.6200 L87.2319,461.8692 L89.9832,460.9394 L90.0195,462.7763 L89.0964,462.7800 L89.1146,463.6982 L90.0377,463.6945 L90.9246,461.8542 L92.7713,461.8466 L92.7533,460.9281 L96.4476,460.9129 L96.4298,459.9941 L99.1837,459.0637 L99.1662,458.1445 L102.8627,458.1291 L102.8454,457.2097 L105.6185,457.1980 L105.6014,456.2784 L111.1493,456.2549 L111.1160,454.4150 L114.8161,454.3991 L114.7997,453.4789 L124.9801,453.4349 L124.9958,454.3555 L130.5510,454.3316 L130.5663,455.2522 L134.2705,455.2364 L134.2855,456.1569 L138.0051,457.0617 L138.0199,457.9821 L132.4638,458.0053 L131.5685,459.8492 L137.1531,461.6660 L138.1086,463.5016 L139.9602,463.4941 L139.9749,464.4136 L142.7814,466.2414 L142.7958,467.1606 L141.8701,467.1642 L142.0150,476.3487 L139.2547,477.2764 L139.2694,478.1940 L141.1190,478.1873 L140.3110,485.5264 L141.2353,485.5233 L142.2031,488.2692 L139.4453,489.1942 L139.4599,490.1101 L127.4685,491.0640 L127.4840,491.9793 L119.1777,492.0055 L119.1938,492.9204 L101.6905,493.8896 L101.7078,494.8037 L99.8649,494.8094 L98.9784,496.6400 L91.5922,495.7487 L91.5742,494.8349 L88.8115,494.8434 L88.7933,493.9296 L85.0918,493.0272 L84.1341,491.2021 L82.2926,491.2080 L82.2739,490.2939 L80.4137,489.3856 L80.3761,487.5568 L79.4553,487.5598 L79.4175,485.7306 L78.4966,485.7337 L78.4398,482.9889 L76.5978,482.9952 L74.6983,480.2559 L71.9353,480.2656 L71.9159,479.3502 L70.0741,479.3567 L70.0545,478.4412 L68.2128,478.4478 L68.1931,477.5323 L62.6285,475.7210 L61.6675,473.8927 L59.8260,473.8995 L59.8058,472.9835 L58.8850,472.9870 L58.8647,472.0709 L57.9439,472.0744 L57.9235,471.1582 L57.0028,471.1617 L56.9823,470.2454 L56.0615,470.2489 L56.0410,469.3325 L50.4124,464.7707 L50.3705,462.9365 L47.5656,461.1132 L47.5233,459.2782 L44.7177,457.4542 L44.6750,455.6183 L41.8686,453.7938 L40.8610,450.1238 L39.9397,450.1279 L38.9531,447.3752 L38.0317,447.3794 L37.9662,444.6216 L37.0447,444.6258 L36.9790,441.8669 L36.0573,441.8712 L35.9034,435.4294 L33.1150,434.5222 L33.0928,433.6013 L31.2487,433.6104 L31.2264,432.6895 L29.3823,432.6987 L29.3149,429.9353 L28.3928,429.9399 L28.3252,427.1755 L27.4029,427.1802 L27.0635,413.3407 L27.9868,413.3355 L27.8738,408.7157 L28.7975,408.7104 L28.7073,405.0121 L29.6312,405.0068 L30.4206,399.4496 L31.3451,399.4441 L32.1580,394.8083 L33.0829,394.8026 L34.7999,389.2301 L36.6288,388.2911 L37.4665,384.5743 L39.2965,383.6344 L39.2528,381.7777 L41.0835,380.8371 L41.0401,378.9796 L41.9665,378.9735 L41.9449,378.0445 L42.8715,378.0384 L42.8499,377.1092 L43.7766,377.1031 L48.2837,371.4937 L50.1386,371.4811 L50.1175,370.5508 L51.9727,370.5382 L51.9518,369.6077 L59.3753,369.5568 L59.3344,367.6950 L60.2627,367.6886 L61.1301,364.8884 L62.9874,364.8754 L64.7846,362.0671 L66.6427,362.0540 L66.6228,361.1219 L68.4812,361.1087 L68.4614,360.1764 L70.3201,360.1631 L70.3004,359.2307 L73.0892,359.2107 Z"/>
<path d="M282.6540,359.5870 L288.3027,359.5469 L288.3068,360.4853 L290.1900,360.4720 L290.1941,361.4104 L291.1357,361.4037 L291.1396,362.3420 L296.8078,366.9923 L296.8149,368.8673 L297.7564,368.8609 L302.4833,374.4517 L304.3660,374.4391 L304.3630,373.5023 L307.1820,371.6091 L310.0181,375.3384 L315.6647,373.4267 L317.5428,370.6016 L319.4278,370.5888 L322.2486,366.8172 L324.1347,366.8043 L324.1331,365.8657 L326.9613,364.9075 L327.9021,363.0230 L333.5634,362.0441 L333.5644,362.9834 L335.4530,363.9095 L335.4554,366.7264 L338.2880,368.5843 L338.2892,370.4612 L339.2328,370.4548 L339.2339,372.3312 L340.1774,372.3248 L341.1238,378.8820 L342.0670,378.8759 L342.0696,386.3692 L341.1269,386.3751 L341.1277,388.2470 L340.1853,388.2529 L339.2445,391.0655 L337.3602,391.0771 L337.3609,392.0124 L333.5933,392.0354 L333.5924,391.1003 L329.8242,390.1883 L330.7591,384.5684 L329.8170,384.5744 L329.8134,381.7657 L327.9289,381.7778 L326.0490,384.5984 L324.1653,384.6103 L324.1669,385.5461 L323.2252,385.5521 L319.4686,390.2523 L317.5865,390.2639 L316.6498,392.1392 L314.7682,392.1507 L314.7705,393.0852 L312.8893,393.0967 L312.8917,394.0310 L310.0705,394.0481 L310.0731,394.9822 L305.3725,395.0106 L305.3695,394.0766 L303.4895,394.0880 L303.4864,393.1540 L300.6600,391.3029 L300.6534,389.4341 L299.7133,389.4399 L299.6999,385.7008 L296.8791,385.7186 L296.8755,384.7836 L295.9353,384.7895 L295.9317,383.8544 L296.8720,383.8484 L295.9244,381.9837 L293.1034,382.0018 L293.0996,381.0663 L290.2789,381.0846 L290.2749,380.1490 L285.5744,380.1795 L285.5700,379.2440 L276.1673,378.3699 L276.1623,377.4343 L273.3436,377.4529 L272.3936,375.5878 L270.5146,375.6002 L269.5475,370.9264 L270.4873,370.9201 L270.4819,369.9836 L271.4217,369.9772 L271.4163,369.0406 L277.0322,364.3163 L277.0222,362.4411 L278.9039,362.4279 L279.8352,360.5453 L282.6586,360.5253 Z"/>
<path d="M219.8248,372.1979 L219.8339,373.1326 L221.7076,373.1200 L221.7165,374.0547 L226.3928,373.0886 L226.4100,374.9580 L229.2214,374.9393 L229.2298,375.8739 L231.1041,375.8615 L231.1124,376.7960 L233.9241,376.7774 L234.8775,378.6401 L239.5720,379.5437 L239.5797,380.4780 L246.1426,380.4354 L246.1785,385.1054 L247.1160,385.0994 L248.1098,392.5590 L249.0468,392.5533 L249.1373,404.6669 L248.2012,404.6723 L248.2293,408.3949 L247.2935,408.4002 L246.3863,412.1258 L245.4509,412.1310 L242.6745,415.8643 L240.8046,415.8744 L240.8121,416.8035 L230.5322,416.8590 L230.5239,415.9302 L226.7870,415.9505 L226.7785,415.0217 L219.2977,414.1337 L219.3339,417.8478 L218.4004,417.8528 L218.4187,419.7090 L230.5653,420.5727 L230.5735,421.5008 L232.4415,421.4910 L232.4496,422.4190 L234.3176,422.4092 L234.3256,423.3372 L236.2016,424.2553 L237.1747,428.8879 L238.1084,428.8832 L238.2165,441.8509 L237.2837,441.8553 L237.3148,445.5555 L236.3823,445.5597 L236.4058,448.3334 L235.4735,448.3376 L235.4893,450.1860 L234.5572,450.1901 L232.7417,455.7399 L231.8102,455.7439 L230.9033,458.5167 L229.9721,458.5206 L225.3683,464.0732 L223.5073,464.0807 L222.5944,465.9276 L220.7340,465.9349 L220.7429,466.8563 L218.8828,466.8635 L218.8918,467.7847 L216.1022,467.7955 L216.1115,468.7165 L210.5341,468.7380 L210.5244,467.8172 L207.7362,467.8280 L207.7264,466.9071 L203.9991,466.0007 L203.9890,465.0797 L199.3013,461.4131 L198.3194,456.8080 L197.3898,456.8119 L197.3474,453.1224 L196.4176,453.1265 L196.4070,452.2038 L191.7695,453.1465 L191.7805,454.0689 L190.8511,454.0729 L190.9064,458.6828 L191.8355,458.6789 L191.8684,461.4434 L192.7973,461.4396 L192.8192,463.2820 L193.7480,463.2782 L193.7697,465.1201 L194.6985,465.1164 L194.7308,467.8784 L196.5881,467.8712 L199.4162,471.5416 L202.2125,472.4512 L198.5716,478.9012 L196.7157,478.9078 L196.7263,479.8266 L195.7985,479.8299 L193.9755,482.5920 L192.1206,482.5984 L191.2152,484.4378 L189.3609,484.4441 L189.3720,485.3620 L187.5180,485.3682 L187.5293,486.2859 L184.7489,486.2951 L184.7604,487.2126 L181.9806,487.2218 L181.9923,488.1391 L179.2132,488.1482 L179.2251,489.0652 L165.3504,490.0268 L165.3376,489.1103 L158.8607,489.1313 L158.8475,488.2147 L155.1337,487.3103 L154.1679,484.5630 L152.3177,484.5693 L152.3039,483.6523 L150.4399,482.7415 L150.3844,479.0720 L149.4591,479.0753 L150.2732,471.7267 L151.1991,471.7232 L151.1437,468.0473 L152.0699,468.0437 L152.9276,463.4421 L153.8542,463.4384 L153.8269,461.5982 L154.7537,461.5944 L154.7401,460.6741 L152.8727,459.7613 L152.8452,457.9201 L154.6857,456.9915 L154.6584,455.1495 L155.5858,455.1455 L158.3146,451.4476 L160.1702,451.4394 L161.0718,449.5914 L162.9280,449.5832 L162.9150,448.6609 L164.7715,448.6527 L164.7586,447.7302 L166.6155,447.7219 L166.6027,446.7993 L169.3886,446.7867 L169.3760,445.8639 L174.0205,445.8428 L174.0083,444.9197 L183.3018,444.8773 L183.3134,445.8006 L187.0321,445.7837 L187.0434,446.7071 L189.8327,446.6945 L189.8439,447.6177 L193.5743,448.5243 L193.4110,434.6620 L194.3420,434.6575 L195.1760,426.3209 L196.1077,426.3161 L197.9076,420.7454 L198.8398,420.7405 L198.8293,419.8132 L204.3733,415.1439 L204.3631,414.2156 L202.4870,413.2975 L201.5127,409.5879 L200.5796,409.5932 L200.5483,406.8059 L199.6150,406.8112 L199.4787,394.7193 L200.4129,394.7136 L200.3711,390.9884 L201.3056,390.9826 L201.2848,389.1192 L202.2195,389.1133 L204.0279,383.5076 L204.9631,383.5017 L204.9530,382.5688 L205.8883,382.5628 L210.5074,376.9320 L213.3157,376.9134 L213.3061,375.9794 L215.1787,375.9670 L216.0871,373.1578 L218.8971,373.1389 L218.8880,372.2042 Z"/>
<path d="M244.3330,388.8507 L243.3960,388.8565 L242.5112,395.3903 L241.5747,395.3960 L241.5972,398.1916 L240.6610,398.1972 L238.8350,403.7955 L239.7707,403.7900 L239.7554,401.9281 L240.6913,401.9227 L240.6762,400.0602 L241.6122,400.0547 L241.5972,398.1916 L242.5335,398.1860 L242.5186,396.3223 L243.4550,396.3167 Z"/>
<path d="M46.0791,396.5770 L45.1536,396.5826 L45.1964,398.4353 L44.2711,398.4408 L44.3141,400.2930 L43.3890,400.2985 L43.4320,402.1501 L42.5071,402.1555 L42.5503,404.0065 L41.6255,404.0119 L41.6904,406.7873 L40.7660,406.7926 L40.8527,410.4913 L39.9286,410.4965 L40.1242,418.8106 L41.0478,418.8056 L40.9828,416.0354 L41.9066,416.0303 L41.7986,411.4105 L42.7228,411.4053 L42.6366,407.7070 L43.5611,407.7017 L43.4750,404.0011 L44.3999,403.9958 L44.3355,401.2189 L45.2606,401.2134 Z"/>
<path d="M51.3363,424.2897 L54.1079,424.2753 L54.2115,428.8877 L46.8029,428.0031 L46.7817,427.0809 L50.4545,426.1397 Z"/>
<path d="M226.0163,433.5770 L225.0835,433.5815 L225.1181,437.2851 L224.1856,437.2896 L224.2118,440.0658 L223.2795,440.0702 L223.2971,441.9203 L222.3651,441.9247 L221.4776,446.5517 L219.6235,447.4842 L219.6416,449.3320 L217.7882,450.2639 L217.8065,452.1108 L215.0324,453.9692 L215.0511,455.8149 L214.1205,455.8188 L211.3676,459.5200 L212.2977,459.5162 L212.2882,458.5940 L213.2184,458.5902 L213.2090,457.6678 L214.1394,457.6639 L214.1299,456.7414 L219.6686,452.1027 L219.6506,450.2557 L221.5043,449.3238 L221.4865,447.4758 L222.4181,447.4717 L222.4004,445.6232 L223.3322,445.6190 L223.3059,442.8452 L224.2379,442.8409 L224.2118,440.0658 L225.1440,440.0614 L225.1181,437.2851 L226.0506,437.2807 Z"/>
<path d="M145.5876,468.0689 L148.3655,468.0581 L147.5804,477.2465 L146.6552,477.2498 L147.7212,486.4182 L144.0230,486.4305 L143.9943,484.5974 L143.0698,484.6005 L143.0410,482.7670 L143.9657,482.7638 L143.8939,478.1774 L144.8190,478.1741 L144.7619,474.5026 L145.6873,474.4992 Z"/>
<path d="M119.8120,475.5119 L118.8882,475.5153 L118.9043,476.4325 L123.5239,476.4158 L123.5396,477.3330 L135.5706,478.2072 L135.5557,477.2897 L130.9331,477.3064 L130.9178,476.3890 L123.5239,476.4158 L123.5081,475.4984 Z"/>
</g>
<g fill="#D4D4D4" fill-rule="evenodd">
<path d="M356.4762,32.2949 L359.3836,32.2459 L359.3827,33.2339 L357.4445,33.2665 L357.4437,34.2543 L355.5059,34.2869 L355.5053,35.2745 L353.5678,35.3069 L353.5673,36.2943 L351.6302,36.3268 L351.6299,37.3140 L350.6615,37.3301 L350.6612,38.3172 L348.7247,38.3495 L348.7246,39.3363 L347.7565,39.3524 L347.7564,40.3390 L345.8206,40.3712 L345.8206,41.3576 L344.8529,41.3737 L344.8530,42.3599 L342.9178,42.3920 L342.9175,41.4058 L343.8852,41.3897 L343.8850,40.4034 L344.8527,40.3873 L344.8526,39.4007 L345.8205,39.3846 L345.8205,38.3979 L346.7885,38.3818 L346.7885,37.3949 L347.7567,37.3787 L347.7567,36.3916 L349.6934,36.3592 L349.6936,35.3719 L351.6306,35.3394 L351.6310,34.3519 L353.5683,34.3194 L353.5688,33.3317 L356.4755,33.2828 Z M453.3859,65.2516 L456.3027,65.2054 L456.2784,68.1627 L457.2505,68.1474 L457.2342,70.1182 L458.2063,70.1030 L458.1734,74.0430 L457.2016,74.0581 L457.2098,73.0733 L456.2380,73.0885 L456.2622,70.1334 L455.2903,70.1487 L455.3063,68.1780 L454.3343,68.1933 L454.3502,66.2220 L453.3781,66.2374 Z M288.0173,79.6293 L290.9028,79.5846 L290.9110,81.5427 L288.0258,81.5872 L288.0301,82.5660 L285.1457,82.6104 L285.1502,83.5889 L281.3054,83.6479 L281.3102,84.6262 L279.3882,84.6556 L279.3784,82.6991 L281.3006,82.6695 L281.2958,81.6910 L284.1798,81.6465 L284.1752,80.6677 L288.0215,80.6083 Z M461.0048,83.8384 L461.9760,83.8236 L461.9590,85.7901 L462.9302,85.7753 L462.8960,89.7066 L463.8669,89.6920 L463.8066,96.5665 L464.7771,96.5520 L464.6295,113.2183 L463.6602,113.2323 L463.7893,98.5293 L462.8190,98.5437 L462.8874,90.6891 L461.9166,90.7037 L461.9505,86.7731 L460.9795,86.7878 Z M458.9218,100.5633 L459.8918,100.5489 L459.8418,106.4316 L460.8114,106.4174 L460.7946,108.3772 L459.8252,108.3913 L459.7670,115.2458 L458.7981,115.2597 L458.7652,119.1733 L456.8282,119.2008 L456.8120,121.1566 L455.8437,121.1703 L455.8678,118.2365 L456.8363,118.2227 L456.8687,114.3088 L457.8375,114.2948 L457.8783,109.3991 L458.8476,109.3850 Z M257.5364,120.0902 L259.4508,120.0629 L259.4571,121.0352 L260.4143,121.0215 L260.4206,121.9937 L262.3351,121.9665 L262.3412,122.9386 L263.2984,122.9250 L263.3045,123.8970 L264.2617,123.8835 L264.2677,124.8554 L266.1822,124.8283 L266.1880,125.8001 L267.1453,125.7866 L267.1511,126.7583 L268.1083,126.7448 L268.1140,127.7164 L270.0285,127.6895 L270.0341,128.6610 L270.9913,128.6476 L270.9968,129.6190 L271.9540,129.6056 L271.9595,130.5769 L272.9167,130.5635 L272.9221,131.5347 L273.8793,131.5213 L273.8846,132.4924 L274.8418,132.4791 L274.8470,133.4500 L275.8042,133.4367 L275.8145,135.3782 L276.7716,135.3650 L276.7818,137.3060 L274.8679,137.3323 L274.8575,135.3914 L273.9005,135.4047 L273.8952,134.4340 L272.9382,134.4473 L272.9328,133.4766 L271.9758,133.4898 L271.9704,132.5190 L271.0134,132.5323 L271.0078,131.5613 L270.0508,131.5747 L270.0452,130.6036 L269.0882,130.6170 L269.0825,129.6458 L267.1684,129.6725 L267.1627,128.7013 L266.2056,128.7147 L266.1998,127.7433 L264.2857,127.7702 L264.2797,126.7987 L262.3658,126.8257 L262.3596,125.8541 L261.4027,125.8676 L261.3965,124.8960 L260.4395,124.9095 L260.4332,123.9377 L258.5193,123.9648 L258.5064,122.0209 L257.5494,122.0346 Z M281.5721,138.2106 L287.3161,138.1318 L287.3204,139.1022 L289.2354,139.0760 L289.2396,140.0463 L285.4101,140.0987 L285.4146,141.0688 L282.5433,141.1080 L282.5480,142.0779 L280.6342,142.1039 L280.6390,143.0736 L279.6822,143.0866 L279.6627,139.2071 L281.5768,139.1809 Z M297.8520,137.9871 L300.7266,137.9477 L300.7299,138.9185 L304.5632,138.8660 L304.5663,139.8369 L307.4416,139.7976 L307.4444,140.7683 L310.3200,140.7291 L310.3227,141.6998 L312.2399,141.6737 L312.2449,143.6149 L311.2864,143.6279 L311.2838,142.6574 L308.4085,142.6965 L308.4057,141.7259 L305.5306,141.7651 L305.5276,140.7945 L302.6529,140.8337 L302.6497,139.8631 L298.8171,139.9154 L298.8136,138.9448 L297.8556,138.9579 Z M303.6455,151.4886 L306.5182,151.4503 L306.5211,152.4193 L305.5636,152.4321 L305.5666,153.4009 L304.6091,153.4136 L304.6122,154.3824 L303.6549,154.3950 L303.6612,156.3320 L302.7041,156.3446 L302.7073,157.3128 L301.7503,157.3254 L301.7536,158.2934 L300.7968,158.3060 L300.8034,160.2416 L299.8468,160.2541 L299.8502,161.2217 L298.8937,161.2342 L298.9006,163.1688 L297.9443,163.1813 L297.9479,164.1484 L295.0794,164.1855 L295.0757,163.2185 L296.0318,163.2061 L296.0281,162.2389 L296.9844,162.2264 L296.9772,160.2916 L297.9337,160.2791 L297.9301,159.3114 L298.8867,159.2989 L298.8833,158.3311 L299.8400,158.3185 L299.8332,156.3824 L300.7901,156.3698 L300.7868,155.4015 L301.7438,155.3888 L301.7405,154.4204 L302.6977,154.4077 L302.6945,153.4390 L303.6518,153.4263 Z M417.9572,152.8824 L419.8850,152.8569 L419.8689,155.7725 L418.9052,155.7852 L418.8999,156.7568 L417.9364,156.7694 L417.9259,158.7121 L416.9626,158.7246 L416.9574,159.6957 L415.9942,159.7083 L415.9891,160.6792 L415.0260,160.6917 L415.0360,158.7498 L415.9993,158.7372 L416.0094,156.7947 L416.9729,156.7821 L416.9832,154.8389 L417.9468,154.8262 Z M257.7827,156.9364 L261.6011,156.8861 L261.6135,158.8200 L263.5227,158.7949 L263.5288,159.7617 L262.5742,159.7742 L262.5803,160.7408 L261.6259,160.7533 L261.6320,161.7197 L260.6777,161.7321 L260.6840,162.6984 L259.7298,162.7108 L259.7361,163.6769 L257.8279,163.7017 L257.8344,164.6676 L256.8805,164.6799 L256.8870,165.6457 L254.0258,165.6826 L254.0326,166.6481 L251.1721,166.6850 L251.1790,167.6503 L247.3660,167.6993 L247.3733,168.6643 L245.4672,168.6888 L245.4599,167.7238 L246.4129,167.7115 L246.4057,166.7464 L247.3588,166.7341 L247.3516,165.7688 L250.2117,165.7319 L250.2047,164.7663 L253.0654,164.7293 L253.0586,163.7635 L254.9662,163.7388 L254.9595,162.7728 L256.8674,162.7480 L256.8609,161.7819 L257.8150,161.7695 L257.8086,160.8031 L258.7628,160.7907 L258.7564,159.8242 L253.9854,159.8866 L253.9922,160.8530 L251.1304,160.8903 L251.1374,161.8565 L249.2299,161.8813 L249.2229,160.9153 L250.1766,160.9028 L250.1696,159.9366 L253.0314,159.8991 L253.0246,158.9326 L255.8871,158.8951 L255.8805,157.9284 L257.7892,157.9033 Z M204.4786,163.4292 L210.1857,163.3550 L210.1957,164.3196 L211.1470,164.3073 L211.1568,165.2718 L206.4011,165.3333 L206.3909,164.3690 L204.4889,164.3936 Z M417.8582,171.3254 L418.8207,171.3132 L418.8049,174.2206 L416.8804,174.2449 L416.8752,175.2137 L415.9131,175.2258 L415.9081,176.1944 L414.9461,176.2065 L414.9411,177.1749 L413.9793,177.1870 L413.9743,178.1553 L413.0126,178.1673 L413.0029,180.1034 L412.0414,180.1154 L412.0557,177.2110 L413.0175,177.1990 L413.0223,176.2306 L413.9842,176.2185 L413.9891,175.2500 L414.9511,175.2379 L414.9561,174.2691 L415.9182,174.2570 L415.9233,173.2881 L416.8855,173.2759 L416.8906,172.3068 L417.8530,172.2946 Z M241.8310,190.8907 L254.2005,190.7402 L254.2072,191.7021 L256.1109,191.6790 L256.1241,193.6024 L251.3659,193.6599 L251.3590,192.6984 L241.8462,192.8136 Z M221.9321,197.8570 L228.5801,197.7774 L228.5887,198.7376 L226.6891,198.7602 L226.6978,199.7202 L224.7986,199.7428 L224.8162,201.6621 L223.8668,201.6734 L223.8757,202.6328 L222.9264,202.6440 L222.9354,203.6033 L221.9863,203.6145 L221.9953,204.5736 L221.0463,204.5847 L221.0644,206.5025 L220.1156,206.5136 L220.1248,207.4722 L219.1761,207.4833 L219.1945,209.4000 L217.2975,209.4221 L217.3069,210.3802 L216.3585,210.3912 L216.3680,211.3492 L215.4197,211.3601 L215.4387,213.2756 L214.4907,213.2865 L214.5003,214.2440 L213.5523,214.2548 L213.5235,211.3820 L214.4716,211.3711 L214.4524,209.4551 L213.5042,209.4662 L213.4945,208.5080 L214.4429,208.4970 L214.4333,207.5386 L215.3817,207.5276 L215.3722,206.5691 L216.3208,206.5580 L216.3114,205.5993 L217.2601,205.5882 L217.2507,204.6294 L218.1995,204.6182 L218.1902,203.6592 L219.1391,203.6480 L219.1299,202.6889 L220.0790,202.6777 L220.0698,201.7184 L221.0190,201.7071 L221.0099,200.7476 L221.9592,200.7363 Z M221.0917,209.3780 L226.7846,209.3119 L226.7933,210.2703 L232.4878,210.2043 L232.4960,211.1627 L237.2425,211.1078 L237.2505,212.0663 L241.9980,212.0115 L242.0055,212.9699 L246.7541,212.9153 L246.7613,213.8738 L251.5108,213.8193 L251.5177,214.7777 L256.2683,214.7233 L256.2748,215.6818 L260.0760,215.6384 L260.0822,216.5968 L264.8345,216.5427 L264.8404,217.5011 L266.7416,217.4795 L266.7532,219.3960 L263.9019,219.4282 L263.8959,218.4701 L260.0948,218.5132 L260.0885,217.5551 L256.2879,217.5982 L256.2814,216.6401 L252.4814,216.6833 L252.4746,215.7252 L247.7254,215.7794 L247.7183,214.8212 L243.9197,214.8647 L243.9122,213.9065 L240.1142,213.9500 L240.1065,212.9918 L235.3599,213.0464 L235.3518,212.0882 L230.6062,212.1429 L230.5978,211.1846 L224.9044,211.2505 L224.8956,210.2923 L221.1008,210.3362 Z M360.1394,240.4036 L361.0936,240.3934 L361.0926,241.3510 L362.0468,241.3409 L362.0479,240.3833 L379.2347,240.2003 L379.2323,241.1585 L382.0983,241.1280 L382.0957,242.0862 L378.2748,242.1266 L378.2771,241.1686 L365.8643,241.3004 L365.8629,242.2580 L358.2294,242.3388 L358.2302,241.3814 L360.1384,241.3612 Z M183.6717,248.9470 L184.6154,248.9371 L184.6972,255.5947 L183.7539,255.6043 L183.8243,261.3053 L182.8815,261.3148 L182.8697,260.3650 L181.9269,260.3745 L181.8556,254.6731 L182.7989,254.6634 L182.7634,251.8107 L183.7069,251.8009 Z M377.2930,253.6216 L380.1559,253.5922 L380.1535,254.5485 L378.2449,254.5680 L378.2427,255.5240 L374.4265,255.5629 L374.4245,256.5187 L370.6095,256.5575 L370.6077,257.5130 L365.8406,257.5613 L365.8392,258.5166 L362.0267,258.5551 L362.0256,259.5101 L359.1670,259.5389 L359.1679,258.5840 L360.1208,258.5744 L360.1217,257.6193 L362.9809,257.5903 L362.9821,256.6350 L366.7954,256.5962 L366.7968,255.6406 L372.5188,255.5823 L372.5206,254.6265 L377.2908,254.5777 Z M187.5698,336.8281 L190.3829,336.8061 L190.3941,337.7451 L191.3318,337.7378 L191.3429,338.6767 L192.2806,338.6694 L192.2917,339.6082 L193.2294,339.6010 L193.2404,340.5396 L194.1781,340.5324 L194.1890,341.4710 L196.0644,341.4566 L196.0752,342.3951 L197.9507,342.3808 L197.9613,343.3192 L198.8991,343.3120 L198.9203,345.1885 L196.1075,345.2097 L196.0968,344.2716 L194.2218,344.2859 L194.2108,343.3477 L193.2733,343.3548 L193.2624,342.4166 L192.3249,342.4237 L192.3138,341.4854 L191.3763,341.4925 L191.3652,340.5541 L190.4276,340.5613 L190.4164,339.6227 L189.4789,339.6299 L189.4676,338.6912 L188.5301,338.6985 L188.5187,337.7597 L187.5812,337.7670 Z M191.4207,345.2451 L192.3580,345.2380 L192.3469,344.3001 L193.2843,344.2930 L193.3063,346.1688 L196.1183,346.1477 L196.1291,347.0855 L197.0665,347.0784 L197.0772,348.0161 L198.0146,348.0091 L198.0252,348.9467 L196.1506,348.9607 L196.1399,348.0231 L194.2654,348.0371 L194.2545,347.0995 L192.3801,347.1136 L192.3690,346.1759 L191.4318,346.1829 Z M192.4463,352.7370 L198.0677,352.6958 L198.0784,353.6327 L195.2676,353.6532 L195.2784,354.5899 L185.9133,354.6580 L185.9018,353.7216 L192.4573,353.6737 Z M54.0572,380.7526 L55.9114,380.7405 L55.9528,382.5984 L55.0258,382.6043 L55.0465,383.5331 L54.1196,383.5390 L54.1612,385.3960 L53.2345,385.4019 L53.2554,386.3301 L52.3288,386.3360 L52.3706,388.1921 L51.4442,388.1979 L51.4652,389.1257 L50.5389,389.1315 L50.5810,390.9867 L49.6549,390.9924 L49.6760,391.9198 L48.7500,391.9255 L48.7923,393.7798 L46.0150,393.7968 L45.9937,392.8698 L46.9194,392.8641 L46.8769,391.0097 L47.8028,391.0039 L47.7816,390.0765 L48.7076,390.0707 L48.6653,388.2154 L49.5915,388.2096 L49.5704,387.2817 L50.4968,387.2758 L50.4547,385.4196 L51.3813,385.4137 L51.3603,384.4854 L52.2869,384.4794 L52.2660,383.5509 L53.1928,383.5450 L53.1719,382.6163 L54.0988,382.6103 Z M225.9218,423.3809 L227.7889,423.3712 L227.8482,429.8618 L226.9150,429.8665 L226.9235,430.7932 L225.0575,430.8025 L225.0402,428.9491 L225.9733,428.9444 Z M55.3827,439.9397 L56.3057,439.9353 L56.3262,440.8559 L57.2491,440.8515 L57.2696,441.7720 L58.1925,441.7677 L58.2129,442.6880 L59.1358,442.6837 L59.1765,444.5241 L60.0993,444.5199 L60.1196,445.4399 L61.0423,445.4357 L61.0625,446.3556 L61.9853,446.3514 L62.0256,448.1909 L62.9483,448.1868 L62.9684,449.1063 L63.8911,449.1022 L63.9311,450.9410 L64.8537,450.9370 L64.8736,451.8562 L65.7962,451.8522 L65.8359,453.6903 L66.7584,453.6863 L66.7782,454.6052 L67.7007,454.6013 L67.7402,456.4388 L68.6626,456.4348 L68.6823,457.3534 L69.6047,457.3495 L69.6438,459.1863 L70.5662,459.1825 L70.6052,461.0188 L71.5275,461.0150 L71.5469,461.9330 L72.4691,461.9293 L72.5079,463.7649 L73.4301,463.7612 L73.4687,465.5964 L74.3908,465.5927 L74.4292,467.4274 L75.3512,467.4238 L75.3896,469.2581 L76.3115,469.2545 L76.3497,471.0883 L75.4279,471.0918 L75.4088,470.1750 L74.4869,470.1785 L74.4485,468.3446 L73.5266,468.3482 L73.4880,466.5138 L72.5660,466.5174 L72.5467,465.6000 L71.6247,465.6037 L71.5858,463.7686 L70.6637,463.7723 L70.6247,461.9368 L69.7026,461.9405 L69.6830,461.0226 L68.7609,461.0264 L68.7216,459.1901 L67.7993,459.1940 L67.7599,457.3573 L66.8376,457.3612 L66.8178,456.4427 L65.8955,456.4466 L65.8558,454.6092 L64.9334,454.6132 L64.9135,453.6943 L63.9910,453.6983 L63.9511,451.8603 L63.0286,451.8643 L63.0085,450.9451 L62.0860,450.9492 L62.0457,449.1105 L61.1232,449.1146 L61.1030,448.1950 L60.1804,448.1992 L60.1398,446.3598 L59.2172,446.3640 L59.1968,445.4441 L58.2741,445.4483 L58.2537,444.5284 L57.3310,444.5326 L57.2901,442.6923 L56.3673,442.6966 L56.3468,441.7763 L55.4240,441.7806 Z M122.2666,457.1279 L127.8197,457.1046 L127.8352,458.0247 L128.7608,458.0208 L128.7762,458.9408 L126.9252,458.9485 L126.9096,458.0285 L122.2825,458.0479 Z M191.0168,467.8928 L191.9452,467.8892 L191.9672,469.7296 L191.0389,469.7332 L191.0499,470.6532 L189.1936,470.6603 L189.2048,471.5801 L186.4210,471.5906 L186.4323,472.5102 L182.7215,472.5241 L182.7331,473.4435 L178.0961,473.4607 L178.1080,474.3798 L172.5457,474.4003 L172.5580,475.3191 L166.9980,475.3395 L167.0107,476.2580 L162.3790,476.2748 L162.3921,477.1931 L157.7620,477.2098 L157.7754,478.1278 L154.0725,478.1411 L154.0862,479.0589 L153.1606,479.0622 L153.1333,477.2265 L155.9104,477.2165 L155.8969,476.2983 L159.6006,476.2849 L159.5874,475.3665 L164.2186,475.3496 L164.2057,474.4310 L168.8385,474.4139 L168.8259,473.4951 L174.3874,473.4744 L174.3752,472.5553 L179.0115,472.5379 L178.9996,471.6185 L182.7099,471.6045 L182.6983,470.6849 L186.4096,470.6708 L186.3982,469.7509 L189.1825,469.7403 L189.1713,468.8202 L191.0279,468.8130 Z M76.3497,471.0883 L78.1935,471.0813 L78.2314,472.9147 L77.3096,472.9181 L77.3477,474.7509 L76.4261,474.7543 L76.4643,476.5865 L75.5429,476.5898 L75.4854,473.8414 L76.4070,473.8380 Z M87.4336,471.9633 L105.8912,471.8938 L105.9082,472.8112 L111.4491,472.7905 L111.4990,475.5423 L110.5756,475.5457 L110.5589,474.6286 L105.9422,474.6456 L105.9252,473.7285 L98.5408,473.7559 L98.5232,472.8388 L89.2966,472.8733 L89.3148,473.7901 L84.7037,473.8072 L84.6852,472.8905 L87.4519,472.8802 Z M80.0751,472.9078 L81.9190,472.9009 L81.9377,473.8175 L82.8596,473.8140 L82.8783,474.7305 L81.0345,474.7373 L81.1471,480.2332 L80.2257,480.2364 L80.2069,479.3208 L79.2854,479.3241 L79.2666,478.4083 L80.1880,478.4050 Z"/>
</g>
</svg>
