<svg xmlns="http://www.w3.org/2000/svg" viewBox="0 0 512 512" width="512" height="512">
<title>Leo — calibrated outline derivative</title>
<desc>Leo outline derivative, 2026-10-09. Original: Johan Meuris, Stellarium constellation art (2005), Free Art License; vector tracing/calibration: Tran Vu Anh Duy portfolio / Codex. Modified silhouette/ink contours, grayscale, removed shading; not a recovered vector master.</desc>
<metadata>Copyleft: Free Art License 1.3 https://artlibre.org/licence/lal/en/ ; original https://raw.githubusercontent.com/Stellarium/stellarium/daace2add6a1bf886e8ee1934f51e9c69f818d18/skycultures/modern/illustrations/leo.png ; source-to-vector matrix and HIP anchors: /constellations/manifest.json</metadata>
<g fill="none" stroke="#FAFAFA" stroke-width="2.3" stroke-linejoin="round" stroke-linecap="round">
<path d="M446.0711,105.8050 L449.3047,109.9764 L448.6810,110.7246 L450.2961,112.8076 L449.6726,113.5555 L450.7489,114.9431 L450.1255,115.6909 L451.2013,117.0776 L450.5781,117.8252 L452.1911,119.9036 L452.8141,119.1563 L454.4257,121.2334 L455.0484,120.4863 L456.6584,122.5621 L457.2809,121.8154 L459.9611,125.2719 L460.5832,124.5256 L469.6688,136.2461 L469.0481,136.9908 L480.6606,153.5073 L480.0419,154.2499 L483.2218,158.3484 L482.6035,159.0905 L486.7474,165.9669 L486.1298,166.7082 L487.1867,168.0693 L486.5693,168.8103 L487.6259,170.1706 L486.9196,172.3320 L487.8865,175.1105 L486.6526,176.5916 L487.0916,178.6892 L485.2411,180.9103 L485.7691,181.5883 L477.7509,191.2127 L477.2218,190.5359 L474.7542,193.4978 L474.2247,192.8212 L472.3736,195.0430 L471.8437,194.3665 L470.6095,195.8480 L470.0793,195.1715 L467.6105,198.1347 L467.0799,197.4584 L465.8452,198.9403 L464.2520,196.9109 L463.6344,197.6521 L461.9537,197.0399 L460.7182,198.5228 L460.1863,197.8460 L457.8005,199.3939 L456.2026,197.3627 L456.9062,195.2014 L454.2406,191.8109 L453.6220,192.5534 L452.0207,190.5173 L451.4018,191.2601 L447.4069,190.7726 L443.7753,193.8093 L444.3106,194.4882 L443.6913,195.2314 L446.8165,200.7207 L445.0444,201.5285 L441.8335,197.4609 L441.2142,198.2041 L440.2262,195.4248 L439.6066,196.1682 L437.9979,194.1308 L438.6176,193.3871 L437.6279,190.6038 L435.7678,192.8359 L441.1306,199.6255 L440.5113,200.3686 L441.0470,201.0465 L441.6661,200.3035 L446.4796,206.3977 L445.7771,208.5582 L446.8454,209.9098 L447.4635,209.1679 L449.6825,210.4527 L450.3004,209.7111 L450.7491,211.8030 L451.9845,210.3201 L451.0877,206.1345 L451.7058,205.3927 L454.5406,205.9373 L453.9228,206.6788 L454.3704,208.7712 L452.5174,210.9952 L453.4979,213.7605 L452.8805,214.5015 L453.3281,216.5907 L451.4763,218.8134 L452.0089,219.4869 L445.2193,227.6365 L444.6858,226.9640 L442.8337,229.1870 L442.2999,228.5147 L441.0650,229.9969 L440.5308,229.3245 L436.4564,230.2724 L434.8509,228.2538 L433.0792,229.0644 L434.0677,231.8246 L433.3673,233.9801 L434.4377,235.3240 L433.7375,237.4783 L434.8075,238.8209 L434.1900,239.5620 L434.3122,247.2879 L433.0782,248.7691 L433.5305,250.8479 L431.6799,253.0692 L432.2146,253.7378 L426.0465,261.1417 L425.5111,260.4741 L422.4264,264.1768 L422.9623,264.8440 L419.1804,270.6938 L419.7166,271.3600 L416.0161,275.8021 L416.5526,276.4676 L411.5393,283.7948 L413.1497,285.7873 L413.7661,285.0473 L414.8390,286.3750 L415.4552,285.6352 L417.0631,287.6257 L417.6791,286.8862 L419.2856,288.8754 L419.9014,288.1362 L420.9715,289.4617 L421.5871,288.7226 L423.1910,290.7099 L423.8064,289.9711 L424.8748,291.2953 L425.4900,290.5568 L426.5577,291.8804 L427.1727,291.1421 L428.2398,292.4652 L428.8546,291.7271 L429.9210,293.0498 L430.5356,292.3118 L431.6013,293.6340 L432.2158,292.8962 L433.8130,294.8785 L434.4272,294.1410 L435.4912,295.4618 L436.1053,294.7245 L442.0295,300.5834 L442.6428,299.8470 L445.8219,303.7972 L446.4347,303.0613 L449.6085,307.0061 L450.2208,306.2708 L455.0561,310.7873 L455.6678,310.0527 L458.9137,312.5961 L460.6624,311.7831 L461.7146,313.0931 L464.0732,311.5466 L464.5988,312.2015 L466.4312,310.0006 L466.9564,310.6555 L471.2313,305.5209 L471.7558,306.1763 L480.2165,297.2990 L480.7396,297.9553 L483.7038,295.6792 L484.2264,296.3355 L487.1013,295.4494 L489.7097,298.7281 L489.1001,299.4604 L490.1427,300.7705 L488.2262,304.3535 L489.2686,305.6620 L489.8779,304.9301 L493.7877,305.3508 L490.1341,309.7399 L490.6547,310.3931 L490.0458,311.1245 L491.0869,312.4301 L492.3044,310.9676 L492.8245,311.6203 L495.6899,310.7323 L496.6400,313.4201 L492.9906,317.8045 L493.5103,318.4559 L490.9893,322.7600 L489.3409,322.1891 L488.1243,323.6507 L487.6038,322.9998 L485.8663,323.8108 L486.2994,325.8431 L488.1243,323.6507 L489.0769,326.3328 L487.8608,327.7939 L488.3810,328.4438 L484.7328,332.8267 L483.7787,330.1473 L484.4744,328.0356 L482.9112,326.0842 L484.7368,323.8909 L484.2157,323.2398 L483.6071,323.9710 L481.5210,321.3655 L480.9121,322.0970 L480.3901,321.4453 L478.5630,323.6403 L478.0407,322.9887 L476.8224,324.4522 L476.2998,323.8006 L474.5585,324.6127 L471.4185,320.6998 L470.1989,322.1648 L470.6368,324.2017 L468.2838,325.7469 L467.7596,325.0948 L465.9301,327.2925 L468.1125,328.5150 L468.7221,327.7827 L470.2932,329.7365 L472.1212,327.5406 L474.9086,328.0303 L479.6072,324.9430 L483.2577,329.4973 L482.6494,330.2282 L482.9959,333.6385 L478.6522,340.1321 L479.1735,340.7804 L483.4295,335.6672 L483.9501,336.3160 L477.8709,343.6198 L477.3495,342.9719 L474.3093,346.6245 L473.7873,345.9769 L470.8324,348.2520 L470.3098,347.6044 L464.0429,348.7518 L462.9951,347.4555 L461.2531,348.2703 L460.2043,346.9735 L459.5951,347.7053 L458.5456,346.4079 L457.9363,347.1399 L456.8861,345.8421 L456.2766,346.5742 L455.2257,345.2759 L454.6161,346.0083 L453.5645,344.7095 L452.9547,345.4420 L451.3761,343.4929 L450.7660,344.2257 L449.7128,342.9257 L449.1026,343.6587 L447.5215,341.7076 L446.9111,342.4409 L445.3286,340.4887 L444.7179,341.2222 L443.1339,339.2687 L442.5230,340.0025 L440.9376,338.0479 L440.3264,338.7820 L438.7396,336.8261 L438.1281,337.5605 L434.3385,334.3797 L433.7265,335.1146 L432.6659,333.8085 L432.0538,334.5435 L430.4616,332.5833 L429.8493,333.3187 L428.7870,332.0112 L428.1745,332.7468 L423.7579,330.2932 L421.9993,331.1109 L420.9338,329.8013 L419.1742,330.6193 L418.1075,329.3091 L412.9034,330.3721 L411.8343,329.0608 L406.6228,330.1245 L405.5513,328.8121 L401.4840,329.7948 L400.4104,328.4815 L399.7955,329.2198 L397.5687,327.9875 L395.8006,328.8077 L393.0329,326.9169 L391.8016,328.3951 L394.4927,331.6806 L392.7242,332.5013 L391.6475,331.1876 L390.9551,333.3222 L393.6458,336.6034 L393.0308,337.3418 L395.1812,339.9634 L394.5665,340.7015 L396.7150,343.3200 L396.1006,344.0577 L398.7836,347.3267 L398.1697,348.0640 L400.3139,350.6758 L399.7003,351.4127 L401.8427,354.0215 L401.2293,354.7581 L403.3699,357.3639 L402.7569,358.1001 L404.8956,360.7029 L404.2829,361.4388 L406.4197,364.0386 L405.8073,364.7741 L408.4758,368.0197 L407.8638,368.7548 L411.5945,373.2912 L410.9830,374.0256 L415.2392,379.1995 L419.2754,378.2034 L420.3366,379.4950 L424.3681,378.4995 L425.4274,379.7901 L427.1767,378.9700 L428.2349,380.2600 L428.8446,379.5276 L429.9021,380.8172 L430.5116,380.0849 L432.0966,382.0183 L432.7060,381.2863 L435.8719,385.1494 L435.2630,385.8808 L436.8444,387.8099 L436.2358,388.5410 L436.6811,390.5571 L434.8557,392.7502 L435.8281,395.4063 L435.2198,396.1371 L436.2732,397.4194 L434.9756,400.2520 L435.5022,400.8925 L433.6784,403.0839 L434.2051,403.7239 L431.2464,406.0058 L430.7193,405.3659 L427.8399,406.2780 L425.6476,405.0882 L424.4306,406.5503 L424.9589,407.1905 L423.7421,408.6525 L423.2136,408.0125 L420.6998,412.3075 L418.5042,411.1197 L417.8955,411.8510 L416.8366,410.5712 L416.2277,411.3027 L415.1681,410.0224 L414.5591,410.7541 L413.4988,409.4733 L412.8896,410.2051 L411.2979,408.2830 L409.5480,409.1065 L408.4856,407.8243 L407.8759,408.5567 L406.8128,407.2741 L406.2030,408.0067 L405.1392,406.7235 L404.5292,407.4563 L403.4647,406.1727 L402.8545,406.9057 L401.2566,404.9794 L400.6461,405.7126 L397.4461,401.8562 L396.8352,402.5900 L389.8841,394.2154 L390.4961,393.4804 L383.5232,385.0771 L384.1361,384.3409 L373.3652,371.3567 L372.7506,372.0946 L368.4263,366.8832 L367.8110,367.6219 L365.1034,364.3598 L364.4878,365.0989 L362.3189,362.4866 L361.7030,363.2261 L357.8285,360.0433 L357.2121,360.7834 L356.1247,359.4748 L355.5080,360.2150 L353.8756,358.2511 L353.2588,358.9917 L352.1696,357.6818 L351.5526,358.4225 L349.9176,356.4567 L349.3003,357.1977 L348.2095,355.8865 L347.5920,356.6277 L345.9545,354.6599 L345.3368,355.4014 L341.9862,352.8608 L341.3681,353.6027 L339.7264,351.6317 L339.1081,352.3740 L330.3301,341.8380 L330.9498,341.0943 L329.3002,339.1137 L329.9201,338.3697 L328.2695,336.3873 L328.8896,335.6431 L326.7567,331.5906 L327.4470,329.4388 L325.8630,326.0426 L326.5536,323.8889 L325.4505,322.5614 L326.1413,320.4064 L325.0377,319.0776 L325.7287,316.9214 L324.6940,314.1797 L321.5852,317.9099 L321.0324,317.2447 L319.7887,318.7370 L319.2357,318.0718 L314.3963,321.2197 L312.6659,320.6360 L311.4213,322.1293 L308.5121,321.6272 L307.2669,323.1212 L306.7117,322.4558 L304.9107,323.2847 L303.7991,321.9535 L299.6378,322.9462 L296.7864,321.0294 L294.9817,321.8591 L291.5675,319.2733 L290.9434,320.0220 L287.5244,317.4333 L286.8999,318.1824 L281.7946,313.5843 L281.1695,314.3342 L277.8023,310.3171 L277.1766,311.0675 L269.2353,303.0953 L268.6086,303.8470 L265.7879,300.4848 L265.1607,301.2370 L259.4455,295.9278 L258.8176,296.6809 L257.1187,294.6576 L256.4905,295.4109 L253.0270,292.7895 L252.3984,293.5433 L251.2631,292.1924 L249.4374,293.0249 L248.3008,291.6733 L247.6717,292.4276 L242.3093,292.0653 L241.0502,293.5749 L240.4804,292.8986 L224.7376,311.7739 L224.1655,311.0998 L219.7563,316.3864 L219.1835,315.7128 L216.0335,319.4896 L215.4601,318.8163 L211.1053,322.6763 L210.5311,322.0033 L207.4351,324.3533 L204.4488,323.8459 L201.9810,325.4412 L200.8292,324.0945 L197.7833,325.0170 L194.8441,323.0783 L193.5271,326.0232 L194.6817,327.3703 L194.0504,328.1271 L196.3580,330.8188 L195.7271,331.5752 L197.4565,333.5919 L198.0872,332.8358 L202.6916,338.2066 L203.3216,337.4513 L206.1940,340.8029 L206.8236,340.0480 L213.1852,345.9852 L213.8139,345.2313 L225.2319,358.5653 L225.8589,357.8133 L232.1711,363.7044 L232.7973,362.9533 L236.2597,365.5183 L236.8855,364.7678 L238.0188,366.0932 L238.6443,365.3428 L239.7769,366.6677 L240.4023,365.9175 L241.5341,367.2419 L242.1593,366.4920 L243.2904,367.8159 L243.9154,367.0661 L250.1249,374.3364 L249.5007,375.0852 L250.6280,376.4046 L250.0040,377.1532 L250.3862,382.0344 L249.1388,383.5308 L249.7022,384.1891 L245.3369,389.4263 L244.7730,388.7687 L240.5845,389.7892 L237.1345,387.2471 L235.3198,388.0867 L234.1878,386.7693 L236.0031,385.9296 L233.7969,381.8832 L230.7882,382.8129 L229.6538,381.4928 L225.4487,382.5129 L224.3122,381.1918 L223.6864,381.9424 L222.5491,380.6208 L221.9232,381.3716 L217.9375,376.7412 L218.5641,375.9898 L216.8540,374.0025 L215.6004,375.5060 L216.7409,376.8306 L216.0579,378.9956 L218.3373,381.6415 L217.7111,382.3926 L218.8501,383.7143 L219.4761,382.9633 L221.7520,385.6050 L221.1263,386.3556 L219.9885,385.0353 L219.3626,385.7860 L218.2240,384.4652 L217.5979,385.2161 L215.3187,382.5728 L214.6923,383.3241 L208.9830,376.7048 L209.6103,375.9526 L205.6056,371.3082 L206.2334,370.5552 L191.2972,353.2282 L190.6672,353.9836 L185.4197,349.3855 L184.7890,350.1416 L183.0548,348.1315 L182.4238,348.8880 L179.4777,346.9625 L178.2150,348.4762 L179.3732,349.8171 L178.1109,351.3305 L175.1617,349.4058 L173.3186,350.2494 L175.0583,352.2606 L174.4270,353.0175 L176.1656,355.0269 L175.5345,355.7835 L177.2201,359.2161 L176.5893,359.9724 L176.9608,366.3361 L174.3362,372.2041 L174.9149,372.8704 L173.6032,375.8030 L174.1818,376.4686 L171.6617,379.4903 L171.0827,378.8250 L171.8152,375.2268 L167.6057,374.8297 L166.3444,376.3419 L165.7642,375.6756 L161.2991,382.3909 L160.1372,381.0596 L160.8179,378.8809 L159.6554,377.5482 L159.0243,378.3048 L154.3676,372.9680 L151.2574,375.3301 L144.9771,363.6901 L145.6102,362.9313 L143.9025,359.4890 L144.5839,357.2991 L143.4126,355.9556 L144.1901,350.8999 L143.0180,349.5539 L143.6520,348.7939 L143.2094,343.8184 L144.4782,342.2979 L143.8918,341.6233 L144.5262,340.8629 L143.9398,340.1881 L144.8148,332.2457 L143.6409,330.8925 L144.3241,328.6933 L143.1496,327.3387 L143.7849,326.5773 L142.6100,325.2218 L143.2455,324.4603 L142.0702,323.1039 L142.7058,322.3421 L141.5301,320.9848 L142.1659,320.2229 L140.9897,318.8647 L141.6256,318.1026 L139.8604,316.0636 L140.4966,315.3012 L139.3192,313.9408 L139.9556,313.1782 L138.1886,311.1360 L138.8252,310.3731 L137.6466,309.0106 L138.2834,308.2475 L136.5146,306.2020 L137.1517,305.4387 L134.8855,299.8145 L135.5231,299.0506 L135.1210,292.5730 L137.7204,288.0659 L137.1297,287.3803 L142.2347,281.2645 L142.8246,281.9508 L144.7386,279.6578 L146.5554,280.2665 L147.8310,278.7382 L153.3238,279.1141 L154.5984,277.5869 L155.1861,278.2730 L161.9430,277.1230 L164.3378,278.4166 L163.7013,279.1793 L164.2364,281.3118 L162.9637,282.8367 L164.1350,284.2054 L165.4074,282.6808 L167.2137,283.2870 L172.9375,276.4285 L172.3532,275.7435 L174.3132,272.0094 L173.1447,270.6376 L173.7809,269.8752 L167.9298,263.0046 L167.2927,263.7680 L163.1871,258.9484 L162.5493,259.7125 L160.7872,257.6445 L161.4252,256.8802 L159.0739,254.1200 L159.7123,253.3553 L158.5358,251.9739 L159.2246,249.7530 L158.0476,248.3701 L158.6864,247.6049 L158.1478,245.4558 L160.1150,241.7017 L159.5766,239.5502 L161.4940,237.2534 L160.9054,236.5598 L163.4622,233.4971 L162.8738,232.8029 L164.1524,231.2714 L163.5639,230.5768 L161.0065,233.6403 L161.5952,234.3345 L158.3987,238.1635 L158.9877,238.8570 L156.4307,241.9199 L157.0200,242.6128 L155.1024,244.9098 L155.6918,245.6022 L154.4135,247.1334 L153.8240,246.4412 L154.4632,245.6755 L153.9233,243.5244 L155.2020,241.9927 L154.6621,239.8401 L156.5806,237.5420 L155.9910,236.8480 L157.2702,235.3158 L156.6806,234.6215 L160.5690,228.5631 L159.9797,227.8677 L163.1786,224.0361 L162.5896,223.3400 L165.7888,219.5080 L166.3774,220.2046 L168.2451,219.3686 L169.4211,220.7611 L170.0606,219.9951 L171.8232,222.0828 L174.3799,219.0202 L173.8451,216.8620 L171.9789,217.6973 L170.8036,216.3040 L167.7083,217.2090 L166.5312,215.8148 L165.8912,216.5813 L165.3024,215.8840 L164.6623,216.6507 L157.9222,216.3001 L156.6409,217.8347 L152.3544,217.3456 L151.0723,218.8810 L149.2475,218.2527 L147.9651,219.7886 L146.1390,219.1604 L144.8561,220.6967 L144.2633,219.9985 L141.7454,221.6053 L139.9166,220.9772 L138.6330,222.5144 L138.0390,221.8160 L136.7552,223.3534 L136.1609,222.6551 L134.2349,224.9616 L133.6401,224.2634 L132.3559,225.8013 L130.5232,225.1739 L129.2386,226.7122 L128.6429,226.0139 L127.3581,227.5525 L126.7621,226.8542 L125.4771,228.3930 L124.8808,227.6948 L123.5956,229.2338 L122.9989,228.5355 L121.7135,230.0748 L121.1165,229.3765 L119.8309,230.9160 L119.2335,230.2178 L117.9477,231.7575 L117.3500,231.0593 L116.0641,232.5992 L115.4660,231.9010 L114.1798,233.4411 L113.5815,232.7430 L112.2951,234.2833 L111.6964,233.5852 L110.4098,235.1258 L109.8108,234.4276 L108.5240,235.9685 L107.9246,235.2703 L106.6376,236.8114 L106.0379,236.1132 L104.7507,237.6545 L104.1507,236.9564 L102.2196,239.2687 L101.6191,238.5707 L100.3315,240.1124 L99.7307,239.4144 L98.4429,240.9564 L97.8417,240.2584 L95.9097,242.5717 L95.3081,241.8739 L94.0199,243.4163 L93.4180,242.7185 L92.1296,244.2611 L91.5274,243.5633 L90.2387,245.1062 L89.6362,244.4084 L87.7029,246.7231 L87.0999,246.0254 L85.8109,247.5687 L85.2075,246.8710 L83.9183,248.4146 L83.3146,247.7169 L81.3804,250.0327 L80.7763,249.3351 L79.4867,250.8792 L78.8823,250.1816 L76.9474,252.4980 L76.3426,251.8006 L75.0525,253.3451 L74.4473,252.6477 L72.5119,254.9648 L71.9063,254.2675 L70.6158,255.8125 L70.0098,255.1152 L68.7191,256.6605 L68.1128,255.9632 L63.0259,259.2057 L61.1653,258.5842 L59.8736,260.1305 L56.7571,259.5850 L55.4648,261.1320 L54.8561,260.4345 L54.2098,261.2082 L53.6008,260.5106 L46.6726,261.6654 L45.4514,260.2691 L44.8045,261.0436 L42.3239,259.7227 L40.4177,260.5737 L36.7090,257.8532 L36.0612,258.6286 L34.2221,256.5295 L33.5740,257.3052 L31.1193,254.5041 L30.4709,255.2802 L24.3218,248.2654 L24.9711,247.4883 L23.1234,245.3799 L23.7731,244.6025 L21.9575,241.0104 L22.6409,238.7505 L19.5228,236.7095 L20.1732,235.9312 L17.7028,233.1090 L18.3536,232.3303 L17.1176,230.9178 L17.7685,230.1389 L15.3600,224.3374 L16.0115,223.5579 L15.4252,221.3619 L17.4129,217.5343 L16.7940,216.8252 L21.3564,211.3664 L21.9747,212.0763 L23.9296,209.7372 L24.5475,210.4472 L26.5021,208.1085 L27.1196,208.8186 L29.0739,206.4803 L28.4567,205.7699 L32.9823,201.8039 L33.5987,202.5147 L34.9013,200.9561 L35.5174,201.6669 L36.8198,200.1086 L37.4356,200.8195 L38.7377,199.2614 L39.3531,199.9722 L40.6551,198.4144 L41.2702,199.1252 L42.5719,197.5676 L43.1866,198.2784 L44.4882,196.7211 L45.1026,197.4319 L46.4039,195.8748 L47.0179,196.5857 L48.9696,194.2503 L49.5832,194.9613 L55.4372,187.9565 L56.0498,188.6682 L54.7492,190.2246 L55.2111,196.8900 L53.9113,198.4455 L54.4861,200.6423 L53.1866,202.1974 L53.7614,204.3927 L51.8126,206.7248 L52.4249,207.4331 L51.1259,208.9877 L51.7382,209.6956 L47.1920,215.1361 L47.8048,215.8431 L46.5060,217.3974 L45.8930,216.6906 L41.9959,221.3543 L41.3823,220.6479 L39.4334,222.9802 L38.8192,222.2739 L36.8700,224.6065 L36.2555,223.9003 L33.0062,227.7887 L35.5003,229.1277 L34.7807,232.8695 L36.0093,234.2783 L35.3600,235.0553 L36.5881,236.4632 L35.9391,237.2400 L37.1667,238.6469 L36.5178,239.4235 L40.8098,244.3412 L41.4581,243.5653 L43.2949,245.6703 L43.9429,244.8947 L47.0369,246.9240 L47.6845,246.1488 L48.2955,246.8497 L48.9430,246.0746 L49.5538,246.7754 L50.2012,246.0004 L50.8117,246.7011 L51.4591,245.9262 L52.0693,246.6268 L52.7166,245.8521 L53.3266,246.5526 L53.9737,245.7779 L60.8627,246.1076 L62.1559,244.5596 L65.2725,245.1116 L66.5650,243.5643 L68.4256,244.1903 L71.6165,241.7965 L73.4749,242.4228 L78.5603,239.1842 L80.4157,239.8108 L81.7065,238.2655 L82.3110,238.9651 L83.6016,237.4200 L84.2058,238.1197 L85.4962,236.5748 L86.1001,237.2745 L87.3903,235.7299 L87.9937,236.4296 L89.2837,234.8851 L89.8869,235.5848 L91.8216,233.2686 L92.4243,233.9684 L93.7139,232.4244 L94.3163,233.1243 L95.6057,231.5806 L96.2077,232.2804 L97.4969,230.7369 L98.0986,231.4368 L100.0321,229.1219 L100.6334,229.8219 L101.9222,228.2788 L102.5231,228.9788 L104.4560,226.6646 L105.0565,227.3647 L106.3448,225.8222 L106.9450,226.5223 L108.8773,224.2088 L109.4770,224.9090 L111.4089,222.5959 L112.0083,223.2963 L116.4700,219.3716 L117.0685,220.0721 L118.3558,218.5308 L118.9540,219.2313 L120.8846,216.9196 L121.4824,217.6203 L125.9400,213.6988 L126.5369,214.3997 L127.8234,212.8593 L128.4199,213.5602 L130.3493,211.2499 L130.9454,211.9510 L135.3989,208.0327 L135.9942,208.7339 L137.2799,207.1944 L137.8748,207.8957 L139.8029,205.5869 L140.3975,206.2882 L144.2044,203.1425 L144.7982,203.8440 L146.0830,202.3054 L146.6764,203.0069 L147.9610,201.4686 L148.5541,202.1701 L150.4807,199.8631 L151.0734,200.5647 L156.1098,197.3551 L157.9347,197.9898 L159.2181,196.4528 L159.8092,197.1544 L164.8395,193.9481 L166.6608,194.5832 L167.9432,193.0474 L169.7632,193.6826 L171.0452,192.1472 L174.0931,192.7162 L175.3746,191.1815 L175.9628,191.8827 L176.6034,191.1155 L177.1913,191.8167 L177.8318,191.0495 L178.4195,191.7506 L179.0600,190.9836 L179.6474,191.6846 L180.2877,190.9177 L180.8749,191.6186 L181.5152,190.8518 L182.1021,191.5526 L188.8728,190.4567 L190.0437,191.8572 L193.1319,190.9596 L194.3010,192.3591 L196.1634,191.5277 L197.3312,192.9265 L199.2478,190.6307 L199.8312,191.3301 L201.1088,189.7998 L201.6919,190.4993 L203.6079,188.2041 L204.1905,188.9037 L205.4677,187.3738 L206.0500,188.0734 L207.3269,186.5438 L207.9090,187.2434 L212.9016,184.0550 L214.7015,184.6898 L215.9775,183.1612 L217.7761,183.7961 L219.0516,182.2680 L222.0659,182.8383 L223.3409,181.3108 L223.9200,182.0102 L224.5574,181.2465 L228.7831,181.7526 L230.0572,180.2262 L230.6350,180.9252 L231.2719,180.1621 L231.8495,180.8610 L232.4864,180.0980 L233.0637,180.7968 L233.7005,180.0339 L234.2776,180.7326 L234.9142,179.9698 L235.4911,180.6684 L236.1277,179.9058 L236.7043,180.6043 L237.3408,179.8417 L237.9172,180.5402 L244.6125,179.4579 L245.7623,180.8535 L248.8182,179.9638 L249.9662,181.3586 L251.8106,180.5333 L252.9575,181.9273 L253.5926,181.1663 L254.7386,182.5598 L255.3735,181.7990 L256.5188,183.1920 L257.1536,182.4314 L258.2981,183.8238 L258.9327,183.0634 L260.0764,184.4553 L260.7108,183.6951 L261.8537,185.0865 L262.4880,184.3265 L263.6302,185.7173 L264.2642,184.9575 L265.4056,186.3478 L266.0395,185.5882 L267.1801,186.9780 L267.8138,186.2185 L272.4980,188.8664 L273.1312,188.1075 L275.4702,189.4302 L278.5049,188.5419 L279.6403,189.9285 L280.2729,189.1704 L286.8351,189.5387 L288.0991,188.0237 L291.0598,188.5869 L292.3232,187.0724 L295.2811,187.6358 L296.5439,186.1220 L297.1083,186.8144 L299.5662,185.2365 L302.5192,185.8002 L303.7811,184.2875 L307.9241,184.7871 L309.1853,183.2752 L309.7473,183.9672 L310.3778,183.2113 L310.9396,183.9031 L311.5700,183.1474 L312.1316,183.8391 L312.7619,183.0835 L313.3232,183.7752 L313.9535,183.0196 L314.5145,183.7112 L321.0960,182.6367 L322.2153,184.0187 L326.4101,183.0726 L327.5273,184.4535 L328.1563,183.6992 L330.4595,185.0156 L332.2747,184.1978 L335.1319,186.2027 L336.9453,185.3853 L340.3540,188.0768 L340.9818,187.3240 L342.0928,188.7009 L342.7205,187.9482 L344.3856,190.0125 L345.0130,189.2601 L346.1223,190.6356 L346.7495,189.8835 L347.3038,190.5710 L346.5310,194.2013 L347.6391,195.5746 L348.2660,194.8229 L351.1800,195.3790 L353.0596,193.1249 L353.6126,193.8113 L354.2390,193.0600 L351.4001,191.0645 L354.5340,187.3063 L353.9809,186.6186 L353.3541,187.3704 L349.2584,186.8749 L348.0040,188.3792 L346.8953,187.0031 L346.2679,187.7555 L345.1584,186.3789 L344.5308,187.1314 L342.3098,184.3765 L341.6819,185.1294 L338.3456,180.9922 L340.1587,180.1754 L341.2708,181.5552 L341.8989,180.8021 L343.6382,181.4283 L344.8941,179.9224 L346.0044,181.3015 L346.6322,180.5487 L351.9142,180.9847 L353.1689,179.4801 L353.7225,180.1692 L356.2315,177.1606 L355.6782,176.4711 L356.3796,174.2769 L353.6113,170.8252 L354.8669,169.3196 L354.3130,168.6285 L359.8891,163.2976 L358.7824,161.9138 L359.4849,159.7156 L357.1956,158.3907 L356.5674,159.1440 L352.4643,158.6324 L350.0232,160.2004 L347.8010,157.4264 L352.2042,152.1473 L352.7594,152.8417 L354.6461,150.5797 L355.2009,151.2742 L357.0873,149.0125 L357.6417,149.7071 L360.2312,145.2431 L359.6771,144.5478 L362.1925,141.5320 L361.7135,139.3860 L360.4555,140.8942 L359.9012,140.1981 L358.6430,141.7065 L358.0884,141.0104 L364.9338,134.1645 L365.4874,134.8614 L367.3742,132.5992 L367.9275,133.2962 L371.0717,129.5265 L370.5189,128.8290 L371.1478,128.0750 L368.9355,125.2830 L369.5648,124.5286 L367.9043,122.4324 L367.2748,123.1871 L366.1669,121.7889 L365.5372,122.5437 L364.4286,121.1450 L365.0584,120.3900 L365.6127,121.0895 L368.0559,119.5243 L368.6096,120.2238 L370.4983,117.9596 L371.0517,118.6591 L373.5695,115.6407 L374.1224,116.3404 L378.4506,112.5137 L379.0027,113.2137 L380.2610,111.7051 L380.8128,112.4051 L382.0709,110.8968 L382.6223,111.5968 L383.8802,110.0887 L384.4314,110.7887 L385.6891,109.2808 L386.2399,109.9808 L387.4975,108.4731 L388.0480,109.1731 L392.9195,106.0515 L393.4691,106.7515 L395.9035,105.1914 L397.6295,105.8381 L398.8857,104.3319 L399.4343,105.0318 L400.0623,104.2788 L400.6106,104.9786 L407.1148,103.9605 L408.2085,105.3588 L411.1831,104.5005 L412.2752,105.8980 L414.0747,105.0931 L415.1656,106.4898 L415.7923,105.7383 L416.8825,107.1346 L417.5090,106.3833 L418.5984,107.7790 L419.2248,107.0279 L420.3135,108.4230 L420.9396,107.6721 L422.0276,109.0667 L422.6536,108.3160 L424.9100,109.6565 L431.1671,102.1527 L431.7094,102.8503 L433.5862,100.5996 L435.2954,101.2448 L437.7129,99.6925 L439.7085,105.3739 L439.0836,106.1233 L439.2877,112.5982 L443.6585,107.3557 L444.1982,108.0513 Z"/>
<path d="M458.8402,143.9245 L458.3052,143.2370 L457.6841,143.9823 L453.3980,138.4772 L452.7762,139.2232 L452.2398,138.5343 L451.6179,139.2804 L453.2271,141.3461 L452.6054,142.0920 L454.7494,144.8434 L454.1281,145.5889 L454.6638,146.2762 L452.8854,147.0798 L451.8132,145.7050 L450.5701,147.1964 L450.0337,146.5089 L448.2536,147.3129 L446.0205,145.9956 L445.3986,146.7418 L447.0102,148.8047 L445.6823,151.7294 L446.2193,152.4163 L445.5133,154.5942 L447.6602,157.3384 L448.2814,156.5931 L449.3538,157.9643 L451.7526,156.4147 L453.4445,157.0406 L454.6859,155.5510 L455.2211,156.2364 L455.8417,155.4917 L457.4460,157.5470 L458.6867,156.0583 L457.0829,154.0024 L457.7894,151.8273 L460.0136,153.1398 L460.6340,152.3953 L463.4764,152.9629 L464.7167,151.4746 Z"/>
<path d="M432.4603,130.1808 L431.9195,129.4885 L431.2955,130.2370 L429.1304,127.4666 L428.5061,128.2154 L427.4225,126.8293 L426.7980,127.5784 L426.2559,126.8851 L424.3820,129.1327 L426.0085,131.2110 L426.6329,130.4621 L427.7164,131.8470 L428.3406,131.0983 L432.6682,136.6313 L433.2918,135.8833 L433.8320,136.5742 L435.7024,134.3306 Z"/>
<path d="M427.9273,138.2990 L425.6790,136.9739 L423.8888,137.7797 L422.8045,136.3965 L422.1801,137.1454 L419.3031,136.5678 L416.7233,141.0052 L418.9767,142.3297 L420.7678,141.5231 L425.6442,147.7344 L429.3022,144.6849 L428.7615,143.9952 L429.4676,141.8094 Z"/>
<path d="M426.1502,159.1607 L423.9050,157.8460 L423.2820,158.5934 L419.9513,155.9018 L418.1623,156.7093 L417.0776,155.3325 L416.4539,156.0807 L415.9113,155.3921 L415.2875,156.1403 L414.7447,155.4517 L414.1208,156.2000 L413.5778,155.5113 L412.9538,156.2597 L412.4105,155.5709 L411.7864,156.3194 L411.2429,155.6305 L410.6188,156.3792 L410.0751,155.6902 L409.4508,156.4389 L408.9069,155.7498 L408.2826,156.4987 L407.7384,155.8095 L407.1140,156.5584 L406.5696,155.8692 L405.9451,156.6182 L405.4004,155.9289 L404.7758,156.6780 L404.2310,155.9886 L403.6063,156.7379 L403.0612,156.0484 L402.4365,156.7977 L401.8912,156.1081 L401.2663,156.8576 L400.7208,156.1679 L400.0959,156.9174 L399.5501,156.2277 L398.9251,156.9773 L392.5194,156.5867 L391.2682,158.0872 L392.3626,159.4672 L392.9880,158.7172 L393.5349,159.4070 L394.1602,158.6570 L394.7069,159.3467 L395.3321,158.5969 L395.8786,159.2865 L396.5037,158.5367 L397.0499,159.2263 L397.6750,158.4766 L398.2210,159.1661 L398.8460,158.4165 L399.3917,159.1059 L400.0166,158.3565 L400.5621,159.0458 L407.0339,157.9964 L408.1222,159.3738 L411.0819,158.5051 L412.1685,159.8816 L413.9591,159.0733 L415.5871,161.1369 L416.2106,160.3890 L420.0853,163.7645 L420.7083,163.0172 L423.5772,163.5827 L426.6906,159.8477 Z"/>
<path d="M422.0049,170.8071 L421.4641,170.1219 L418.5141,170.9917 L417.4310,169.6205 L415.6435,170.4291 L414.5592,169.0572 L413.9361,169.8047 L412.8511,168.4322 L412.2279,169.1799 L407.7216,166.5554 L407.0978,167.3036 L404.8417,165.9901 L403.0491,166.7997 L401.9596,165.4243 L401.3353,166.1732 L398.4507,165.6073 L397.2015,167.1056 L394.3140,166.5398 L391.2679,168.8496 L391.8146,169.5376 L397.1227,168.5425 L398.2137,169.9174 L401.1767,169.0457 L403.9788,171.0449 L405.7704,170.2351 L406.8579,171.6080 L407.4815,170.8600 L408.5683,172.2324 L411.5241,171.3613 L412.6093,172.7328 L413.2323,171.9854 L419.5966,172.3622 Z"/>
<path d="M419.5681,183.0599 L419.0274,182.3768 L416.0793,183.2492 L414.9965,181.8823 L414.3742,182.6289 L411.5840,180.6403 L409.7962,181.4502 L408.7108,180.0816 L408.0879,180.8288 L405.2918,178.8375 L403.5015,179.6479 L402.4135,178.2776 L401.7900,179.0255 L396.5713,178.5907 L389.3167,183.2715 L391.0334,183.8934 L392.2816,182.3963 L392.8274,183.0816 L394.0754,181.5846 L394.6209,182.2699 L396.4139,181.4585 L397.5039,182.8286 L396.8016,185.0094 L397.8911,186.3780 L397.2677,187.1259 L398.3568,188.4937 L397.7336,189.2413 L398.8223,190.6082 L398.1992,191.3557 L404.7207,199.5411 L405.3428,198.7948 L406.9697,200.8375 L407.5916,200.0914 L411.4626,203.4272 L412.0840,202.6817 L413.1658,204.0411 L413.7869,203.2958 L415.4083,205.3338 L416.0293,204.5888 L417.6492,206.6255 L418.2698,205.8808 L419.8882,207.9163 L420.5087,207.1718 L424.8177,212.5928 L424.1979,213.3365 L425.8118,215.3663 L428.2077,213.8125 L428.7450,214.4888 L429.4466,212.3259 L425.7646,206.1634 L425.1446,206.9075 L420.7524,202.9019 L420.1318,203.6466 L419.0526,202.2882 L418.4318,203.0331 L416.8118,200.9945 L416.1908,201.7397 L415.1099,200.3799 L414.4887,201.1253 L413.4071,199.7650 L412.7857,200.5106 L411.7034,199.1498 L411.0818,199.8955 L409.4571,197.8533 L408.8353,198.5993 L407.7512,197.2371 L407.1292,197.9834 L404.9592,195.2573 L404.3369,196.0039 L398.3568,188.4937 L398.9800,187.7460 L397.4252,184.2614 L398.7512,181.3324 L399.2958,182.0174 L402.2548,181.1434 L403.3426,182.5127 L403.9658,181.7651 L405.0528,183.1339 L405.6758,182.3865 L406.7622,183.7547 L407.3850,183.0075 L408.4706,184.3753 L409.0933,183.6283 L410.1782,184.9955 L410.8007,184.2486 L415.2955,186.8541 L415.9175,186.1079 L418.7838,186.6634 L420.0272,185.1715 Z"/>
<path d="M418.4045,213.6712 L417.8652,212.9938 L415.3035,217.3923 L416.3019,220.1658 L415.5208,223.7492 L416.5991,225.1000 L415.8989,227.2622 L416.9767,228.6115 L416.3573,229.3549 L417.4347,230.7034 L416.8154,231.4466 L417.8925,232.7942 L417.2734,233.5372 L418.3500,234.8839 L417.7311,235.6267 L418.8073,236.9726 L418.1885,237.7152 L419.2644,239.0602 L418.6458,239.8027 L419.7213,241.1468 L419.1028,241.8891 L420.1779,243.2323 L419.5596,243.9745 L420.6343,245.3168 L420.0161,246.0588 L421.0905,247.4003 L420.4724,248.1421 L421.5464,249.4827 L420.9285,250.2243 L422.0021,251.5640 L421.3844,252.3055 L421.8400,254.3856 L423.7739,250.7510 L422.7010,249.4112 L423.4812,245.8458 L422.4076,244.5041 L423.1070,242.3491 L422.0329,241.0060 L422.6512,240.2639 L421.6578,237.5053 L422.2764,236.7630 L420.2069,232.6554 L420.9069,230.4961 L419.8308,229.1481 L420.5310,226.9875 L418.9968,223.5445 L419.6974,221.3819 L418.6199,220.0303 L419.3207,217.8664 L418.2427,216.5134 L418.8627,215.7693 Z"/>
<path d="M398.9560,219.7619 L398.4132,219.0842 L397.7918,219.8298 L398.1775,223.3530 L396.9350,224.8438 L397.4778,225.5206 L396.5433,231.9506 L397.6281,233.3013 L396.7725,238.3041 L397.8566,239.6523 L397.1579,241.8147 L398.2415,243.1615 L397.6214,243.9056 L398.6262,246.6680 L397.9280,248.8280 L399.4732,252.2587 L398.7753,254.4166 L399.8570,255.7583 L399.2378,256.5014 L400.7809,259.9252 L400.0835,262.0803 L401.1639,263.4189 L400.4668,265.5728 L401.5467,266.9100 L400.9282,267.6522 L401.4680,268.3205 L400.8497,269.0626 L401.3895,269.7306 L400.7712,270.4727 L401.3109,271.1404 L400.6927,271.8824 L400.8399,279.5919 L399.6044,281.0749 L400.1438,281.7407 L398.9084,283.2235 L399.4478,283.8889 L401.9182,280.9237 L401.3791,280.2579 L404.0074,274.4765 L403.4684,273.8096 L404.0862,273.0680 L403.5471,272.4008 L404.5597,264.6098 L403.4808,263.2722 L404.1782,261.1183 L403.0987,259.7793 L403.7175,259.0368 L402.6376,257.6969 L403.2565,256.9542 L402.1762,255.6135 L402.7953,254.8705 L401.7146,253.5290 L402.3338,252.7859 L401.2528,251.4434 L401.8721,250.7001 L400.7907,249.3568 L401.4102,248.6133 L400.3284,247.2691 L400.9481,246.5255 L398.9401,240.9998 L399.6388,238.8377 L398.0918,235.3959 L398.7124,234.6513 L397.7065,231.8812 L398.3273,231.1363 L397.7850,230.4607 L398.4058,229.7157 L397.8634,229.0399 L398.4844,228.2948 L397.9419,227.6187 Z"/>
<path d="M411.3216,236.7190 L410.7820,236.0455 L410.0827,238.2057 L411.1617,239.5518 L410.4626,241.7108 L411.5411,243.0555 L410.8422,245.2132 L411.9201,246.5565 L411.1416,250.1265 L412.2190,251.4679 L411.6005,252.2102 L412.5975,254.9627 L411.8195,258.5276 L412.8957,259.8657 L412.0382,264.8372 L413.0338,267.5815 L414.2688,266.0992 L413.7313,265.4315 L415.0466,262.5397 L413.9714,261.2030 L414.7495,257.6406 L413.6738,256.3020 L414.3720,254.1486 L413.2958,252.8086 L413.9141,252.0665 L412.9175,249.3125 L413.6162,247.1567 L412.5389,245.8139 L413.1577,245.0712 L412.0801,243.7276 L412.6990,242.9847 L411.6210,241.6402 L412.2401,240.8972 L411.1617,239.5518 L411.7809,238.8086 L410.7021,237.4624 Z"/>
<path d="M389.9440,214.6042 L389.3992,213.9248 L388.1542,215.4183 L388.6217,217.5233 L385.9780,223.3596 L386.5230,224.0375 L385.9008,224.7839 L386.4458,225.4615 L385.8237,226.2078 L386.3686,226.8852 L385.7466,227.6314 L386.2914,228.3086 L385.6695,229.0547 L386.2143,229.7316 L385.5925,230.4776 L386.1371,231.1542 L385.1304,239.0076 L386.2190,240.3574 L385.4438,243.9421 L386.9984,247.3820 L386.3006,249.5447 L387.3876,250.8903 L386.7672,251.6348 L387.8538,252.9795 L387.2334,253.7239 L388.3196,255.0678 L387.6995,255.8120 L388.7853,257.1549 L388.1653,257.8990 L389.2507,259.2411 L388.6309,259.9849 L389.7159,261.3261 L389.0962,262.0698 L390.1809,263.4102 L389.5613,264.1537 L390.6456,265.4931 L390.0262,266.2365 L392.0383,271.7358 L391.2646,275.2998 L392.3471,276.6348 L391.7285,277.3772 L392.1921,279.4536 L390.9552,280.9381 L391.4963,281.6046 L390.1824,284.4972 L390.7234,285.1631 L391.9598,283.6791 L391.4189,283.0130 L392.6555,281.5289 L392.1921,279.4536 L393.4290,277.9691 L392.4246,275.2249 L393.2761,270.2503 L392.1934,268.9130 L392.8900,266.7581 L391.8068,265.4194 L392.4261,264.6762 L391.3424,263.3367 L391.9619,262.5933 L390.8778,261.2529 L391.4974,260.5094 L390.4130,259.1681 L391.0327,258.4244 L389.0171,252.9074 L389.7147,250.7464 L387.6963,245.2187 L388.3943,243.0550 L387.3069,241.7066 L388.0052,239.5416 L386.9173,238.1918 L387.6930,234.6044 L386.6045,233.2526 L387.2261,232.5069 L387.0678,224.7152 L388.3118,223.2227 L387.9219,219.6952 L389.1664,218.2022 L388.6992,216.0976 Z"/>
<path d="M382.6202,210.0446 L382.0737,209.3637 L380.2038,211.6069 L380.7504,212.2875 L378.8807,214.5306 L379.4275,215.2108 L378.1811,216.7060 L378.7279,217.3858 L376.0833,223.2290 L376.6302,223.9078 L376.0073,224.6551 L376.5541,225.3336 L375.9313,226.0807 L376.4781,226.7590 L375.4758,234.6274 L376.5685,235.9805 L375.8704,238.1495 L376.9626,239.5012 L376.3406,240.2474 L377.4324,241.5982 L376.8106,242.3442 L377.9020,243.6941 L377.2804,244.4400 L378.3714,245.7890 L377.7499,246.5347 L379.3856,248.5566 L378.7643,249.3020 L380.3990,251.3221 L379.7780,252.0673 L382.4236,256.8469 L381.8031,257.5915 L383.8251,263.1073 L383.2050,263.8514 L383.5188,268.7631 L384.4451,262.3632 L382.8910,258.9347 L383.5880,256.7742 L381.9560,254.7580 L382.5767,254.0132 L380.9437,251.9952 L381.5646,251.2501 L378.9167,246.4632 L379.5381,245.7176 L378.4475,244.3688 L379.0691,243.6230 L377.0386,238.0791 L377.7367,235.9103 L376.6445,234.5574 L377.2667,233.8109 L376.7205,233.1341 L377.3428,232.3874 L377.1770,224.5864 L378.4226,223.0920 L377.9522,220.9870 L379.1982,219.4923 L378.7279,217.3858 L381.2970,212.9680 L380.7504,212.2875 Z"/>
<path d="M475.6981,342.4063 L475.1762,341.7580 L472.3066,342.6538 L470.7387,340.7077 L470.1300,341.4390 L468.5606,339.4917 L469.7784,338.0287 L467.6846,335.4293 L468.2938,334.6975 L467.7702,334.0471 L464.1994,337.0568 L465.2477,338.3568 L464.6384,339.0887 L465.6864,340.3878 L465.0773,341.1195 L468.8270,344.2812 L469.4356,343.5501 L473.3513,343.9504 Z"/>
<path d="M367.6842,238.6429 L367.1363,237.9662 L366.4387,240.1371 L367.5343,241.4895 L366.9117,242.2365 L367.9320,245.0102 L367.2348,247.1786 L368.8016,250.6233 L368.1796,251.3695 L368.4268,257.7209 L369.0484,256.9751 L368.5018,256.3021 L369.4986,248.4564 L367.9320,245.0102 L368.6294,242.8412 L367.5343,241.4895 L368.1569,240.7426 L367.0614,239.3900 Z"/>
<path d="M429.4372,320.8847 L428.9054,320.2287 L428.2923,320.9650 L426.6959,318.9962 L426.0824,319.7328 L425.0173,318.4195 L423.2572,319.2365 L422.1910,317.9226 L420.4298,318.7398 L415.9972,316.2698 L415.3828,317.0075 L413.6987,316.4295 L412.4695,317.9053 L406.1808,317.6476 L404.9506,319.1247 L404.4140,318.4664 L398.0354,319.6068 L396.9595,318.2891 L392.8804,319.2696 L388.4119,316.7919 L386.6387,317.6123 L388.7980,320.2509 L389.4144,319.5110 L393.8804,321.9857 L395.6503,321.1657 L396.7264,322.4825 L398.4952,321.6628 L399.5702,322.9790 L400.1855,322.2402 L400.7227,322.8982 L407.0955,321.7563 L408.1672,323.0711 L413.3804,322.0106 L414.4496,323.3243 L419.6553,322.2646 L420.7221,323.5772 L421.3357,322.8404 L426.4527,323.1740 L427.6791,321.7013 L429.3559,322.2767 L429.9689,321.5406 Z"/>
<path d="M351.8706,318.6248 L351.3238,317.9621 L350.7044,318.7055 L351.2513,319.3681 L350.5595,321.5169 L351.6530,322.8408 L351.0339,323.5838 L352.1269,324.9068 L351.5080,325.6497 L352.6006,326.9718 L351.9818,327.7145 L354.1658,330.3564 L353.5474,331.0988 L363.8924,343.6093 L364.5094,342.8687 L372.1736,350.6555 L372.7895,349.9161 L374.4122,351.8802 L375.0278,351.1411 L379.9634,355.6338 L380.5784,354.8954 L371.9309,344.4197 L371.3147,345.1595 L368.0623,341.2207 L367.4455,341.9611 L364.1877,338.0168 L363.5705,338.7577 L353.2194,326.2292 L353.8382,325.4865 L351.1788,320.7737 Z"/>
<path d="M166.3477,307.8193 L165.7638,307.1398 L163.9101,307.9817 L162.7413,306.6222 L160.8864,307.4643 L161.4713,308.1441 L160.2013,309.6661 L161.3708,311.0248 L160.6357,314.6647 L162.3384,318.1377 L166.7787,312.8161 L166.1952,312.1376 L167.5150,309.1778 Z"/>
</g>
<g fill="#D4D4D4" fill-rule="evenodd">
<path d="M470.2106,146.2078 L476.5929,154.4269 L475.9739,155.1697 L479.1582,159.2692 L478.5396,160.0116 L480.6601,162.7407 L480.0419,163.4827 L481.1015,164.8461 L479.8653,166.3297 L479.3354,165.6483 L479.9536,164.9064 L476.7718,160.8138 L477.3905,160.0713 L473.6729,155.2880 L474.2921,154.5449 L468.9705,147.6958 Z M447.9151,123.6955 L451.1412,127.8453 L450.5186,128.5922 L448.3681,125.8268 L447.7451,126.5740 L446.1305,124.4984 L445.5073,125.2460 L443.8913,123.1690 L443.2678,123.9168 L442.1896,122.5315 L441.5659,123.2795 L439.9473,121.2004 L439.3234,121.9488 L438.2434,120.5620 L438.8674,119.8135 L439.4074,120.5070 L440.0314,119.7586 L441.1107,121.1454 L441.7345,120.3972 L442.8132,121.7835 L443.4368,121.0354 L445.0535,123.1137 L445.6768,122.3660 L447.2920,124.4430 Z M480.9247,167.6920 L481.4541,168.3728 L480.8363,169.1144 L481.8950,170.4754 L482.5127,169.7341 L483.0418,170.4144 L482.4242,171.1557 L483.4821,172.5157 L482.8646,173.2568 L480.2184,169.8559 L479.6005,170.5975 L479.0708,169.9169 L478.4529,170.6586 L477.9229,169.9779 L477.3049,170.7196 L477.8349,171.4002 L476.5989,172.8836 L477.1290,173.5638 L476.5111,174.3054 L477.5710,175.6652 L478.1887,174.9238 L478.7184,175.6035 L479.3360,174.8622 L480.9239,176.9005 L480.3065,177.6416 L480.8356,178.3206 L479.6009,179.8025 L478.5423,178.4447 L477.9248,179.1858 L477.3951,178.5067 L476.1599,179.9892 L475.6300,179.3101 L475.0123,180.0515 L474.4822,179.3723 L475.1000,178.6309 L474.0395,177.2718 L474.6574,176.5302 L474.1270,175.8504 L474.7450,175.1086 L474.2146,174.4285 L475.4507,172.9449 L474.9203,172.2644 L478.6291,167.8133 L479.1590,168.4944 L479.7770,167.7526 L480.3067,168.4336 Z M475.8018,167.2534 L476.3323,167.9348 L472.6224,172.3871 L473.1533,173.0677 L467.5889,179.7458 L467.0573,179.0660 L465.2022,181.2924 L464.6702,180.6127 L463.4333,182.0971 L462.9010,181.4174 L462.2825,182.1598 L461.7500,181.4800 L461.1313,182.2224 L460.5986,181.5425 L459.9799,182.2851 L459.4470,181.6051 L458.2093,183.0904 L457.6761,182.4105 L455.2004,185.3815 L457.3337,188.0988 L457.9524,187.3564 L459.5507,189.3929 L460.1690,188.6507 L462.2979,191.3639 L462.9159,190.6222 L463.9794,191.9779 L464.5972,191.2363 L465.6600,192.5916 L465.0423,193.3329 L464.5109,192.6555 L463.8931,193.3970 L462.8298,192.0418 L462.2118,192.7834 L461.1478,191.4277 L460.5296,192.1696 L459.4649,190.8134 L458.8466,191.5554 L455.6486,187.4831 L455.0298,188.2257 L453.4287,186.1875 L452.8097,186.9304 L451.7414,185.5709 L451.1222,186.3140 L450.0533,184.9540 L449.4339,185.6972 L448.8991,185.0171 L448.2797,185.7604 L447.7447,185.0802 L447.1251,185.8236 L446.5899,185.1433 L445.9703,185.8869 L445.4349,185.2064 L444.8152,185.9501 L444.2795,185.2696 L443.0399,186.7571 L442.5040,186.0766 L441.2642,187.5644 L440.7279,186.8839 L439.4879,188.3718 L438.9514,187.6914 L442.6718,183.2271 L443.2078,183.9081 L444.4478,182.4202 L444.9835,183.1012 L445.6034,182.3574 L446.1389,183.0384 L446.7587,182.2946 L447.2940,182.9755 L447.9137,182.2319 L448.4488,182.9126 L449.0684,182.1691 L450.1380,183.5303 L450.7575,182.7870 L452.3606,184.8278 L452.9798,184.0848 L454.0477,185.4446 L454.6668,184.7018 L454.1329,184.0218 L456.6093,181.0500 L457.1428,181.7303 L458.3808,180.2447 L458.9140,180.9250 L459.5329,180.1823 L460.0658,180.8625 L460.6846,180.1199 L461.2174,180.8000 L461.8361,180.0575 L462.3686,180.7375 L462.9873,179.9951 L463.5196,180.6751 L464.7567,179.1904 L465.2887,179.8704 Z M430.5017,113.7256 L431.0436,114.4211 L424.1686,122.6666 L424.7112,123.3609 L423.4613,124.8600 L424.0040,125.5538 L420.2546,130.0507 L419.7114,129.3574 L419.0864,130.1070 L418.5430,129.4136 L417.9179,130.1633 L417.3743,129.4699 L416.7491,130.2197 L416.2052,129.5261 L415.5800,130.2760 L415.0359,129.5824 L414.4105,130.3324 L413.8662,129.6386 L413.2407,130.3887 L412.6962,129.6949 L412.0707,130.4451 L411.5259,129.7512 L410.2746,131.2518 L409.7296,130.5580 L409.1038,131.3084 L408.5585,130.6144 L407.3069,132.1154 L406.7613,131.4214 L406.1354,132.1721 L405.5896,131.4780 L404.3376,132.9795 L403.7914,132.2854 L403.1653,133.0362 L402.6190,132.3421 L401.3666,133.8440 L400.8199,133.1499 L399.5674,134.6519 L399.0204,133.9578 L398.3940,134.7090 L397.8468,134.0148 L396.5939,135.5173 L396.0464,134.8231 L395.4198,135.5744 L394.8721,134.8802 L393.6188,136.3831 L393.0707,135.6888 L392.4440,136.4404 L391.8957,135.7460 L391.2689,136.4977 L390.7204,135.8032 L390.0935,136.5550 L389.5448,135.8605 L388.2907,137.3642 L387.7417,136.6697 L387.1146,137.4217 L386.5653,136.7271 L385.9381,137.4791 L384.8390,136.0896 L384.2117,136.8419 L383.6618,136.1469 L383.0343,136.8993 L382.4842,136.2042 L381.8567,136.9567 L381.3064,136.2616 L380.6788,137.0142 L379.5775,135.6236 L378.9497,136.3763 L378.3988,135.6809 L377.7709,136.4337 L377.2198,135.7382 L376.5918,136.4911 L376.0404,135.7955 L375.4124,136.5486 L374.8608,135.8528 L374.2326,136.6060 L373.6808,135.9102 L373.0525,136.6635 L372.5005,135.9675 L371.8721,136.7209 L371.3199,136.0249 L370.6914,136.7784 L370.1389,136.0823 L369.5104,136.8359 L368.9577,136.1397 L370.8435,133.8787 L371.3959,134.5752 L372.6530,133.0681 L373.2051,133.7645 L373.8335,133.0111 L374.3855,133.7075 L375.0138,132.9541 L375.5655,133.6504 L376.1937,132.8971 L376.7452,133.5933 L377.3734,132.8402 L377.9246,133.5363 L378.5527,132.7833 L379.1037,133.4793 L379.7317,132.7263 L380.8331,134.1180 L381.4609,133.3653 L382.0113,134.0610 L382.6390,133.3083 L383.1893,134.0039 L383.8169,133.2514 L384.3668,133.9469 L384.9944,133.1944 L385.5441,133.8898 L386.1715,133.1375 L386.7211,133.8328 L387.3484,133.0806 L387.8977,133.7758 L388.5250,133.0237 L389.0740,133.7188 L389.7012,132.9668 L390.2500,133.6619 L390.8771,132.9099 L391.4257,133.6049 L392.0527,132.8531 L392.6011,133.5480 L393.8549,132.0445 L394.4030,132.7394 L395.0298,131.9878 L395.5776,132.6826 L396.2043,131.9311 L396.7520,132.6258 L398.0052,131.1230 L398.5525,131.8177 L399.8056,130.3151 L400.3526,131.0099 L400.9790,130.2587 L401.5258,130.9533 L402.7785,129.4511 L403.3250,130.1458 L404.5775,128.6438 L405.1236,129.3385 L406.3759,127.8367 L406.9218,128.5314 L407.5478,127.7806 L408.0935,128.4752 L409.3454,126.9738 L409.8907,127.6685 L410.5166,126.9179 L411.0617,127.6124 L412.3133,126.1115 L412.8581,126.8060 L413.4838,126.0556 L414.0283,126.7501 L414.6539,125.9998 L415.1983,126.6942 L416.4493,125.1938 L416.9933,125.8882 L417.6187,125.1382 L418.7062,126.5266 L419.9567,125.0268 L420.5001,125.7210 Z M423.4939,114.0507 L424.0372,114.7466 L420.2840,119.2477 L419.7403,118.5523 L414.7351,124.5549 L414.1906,123.8601 L412.9390,125.3610 L411.8492,123.9712 L413.7269,121.7193 L414.2717,122.4146 L420.5297,114.9096 L421.0735,115.6056 L422.3249,114.1049 L422.8683,114.8009 Z M415.3039,114.4305 L416.3934,115.8234 L413.8892,118.8266 L412.7990,117.4344 L412.1728,118.1854 L411.0819,116.7927 L410.4555,117.5439 L409.3639,116.1506 L408.7373,116.9020 L407.6449,115.5082 L407.0182,116.2598 L405.9251,114.8655 L405.2982,115.6172 L404.2044,114.2224 L403.5773,114.9744 L403.0300,114.2768 L402.4029,115.0288 L401.8554,114.3311 L401.2281,115.0833 L400.6805,114.3855 L400.0531,115.1378 L399.5052,114.4399 L398.2503,115.9447 L397.7021,115.2468 L397.0745,115.9993 L396.5261,115.3014 L395.2708,116.8066 L394.7221,116.1086 L394.0943,116.8613 L393.5454,116.1633 L392.2897,117.6689 L391.7404,116.9709 L390.4846,118.4767 L389.9350,117.7787 L388.6789,119.2847 L388.1291,118.5867 L390.0134,116.3274 L390.5630,117.0257 L391.8190,115.5197 L392.3684,116.2180 L393.6242,114.7122 L394.1732,115.4105 L394.8010,114.6577 L395.3498,115.3559 L396.6053,113.8506 L397.1538,114.5488 L398.4090,113.0437 L398.9572,113.7419 L399.5847,112.9894 L400.1327,113.6876 L400.7601,112.9352 L401.3078,113.6333 L401.9352,112.8810 L402.4827,113.5790 L403.1100,112.8268 L403.6572,113.5247 L404.2844,112.7726 L404.8315,113.4704 L405.4586,112.7185 L406.0054,113.4162 L406.6324,112.6643 L407.7254,114.0594 L408.3522,113.3077 L408.8984,114.0051 L409.5252,113.2535 L410.6170,114.6479 L411.2436,113.8965 L411.7892,114.5935 L412.4157,113.8422 L413.5064,115.2359 L414.1327,114.4848 L414.6777,115.1815 Z M414.6302,136.7965 L415.1740,137.4888 L413.9242,138.9877 L414.4680,139.6796 L413.2184,141.1784 L413.7623,141.8700 L413.1375,142.6193 L412.5936,141.9278 L411.9687,142.6773 L411.4246,141.9857 L410.7997,142.7352 L410.2553,142.0436 L409.6303,142.7932 L409.0856,142.1015 L407.8354,143.6010 L407.2905,142.9093 L406.6653,143.6591 L406.1202,142.9673 L404.8696,144.4672 L404.3241,143.7754 L403.6988,144.5254 L403.1531,143.8336 L401.9021,145.3338 L401.3562,144.6420 L400.7306,145.3922 L400.1844,144.7003 L398.9331,146.2010 L398.3866,145.5090 L397.7608,146.2595 L397.2141,145.5675 L395.9624,147.0686 L395.4153,146.3766 L394.1635,147.8779 L393.6161,147.1859 L392.9901,147.9367 L392.4425,147.2446 L391.1903,148.7463 L390.6424,148.0543 L390.0162,148.8052 L389.4680,148.1131 L388.8417,148.8641 L388.2934,148.1719 L387.6670,148.9231 L387.1184,148.2308 L386.4920,148.9820 L385.9432,148.2896 L385.3166,149.0410 L384.7676,148.3485 L384.1409,149.1000 L383.5917,148.4074 L382.9649,149.1590 L382.4154,148.4663 L381.7886,149.2180 L381.2389,148.5252 L380.6120,149.2770 L380.0621,148.5842 L379.4350,149.3361 L378.3346,147.9500 L377.7074,148.7021 L377.1569,148.0089 L376.5296,148.7611 L375.9788,148.0678 L375.3515,148.8201 L374.8005,148.1268 L374.1730,148.8791 L373.6218,148.1857 L372.9943,148.9382 L372.4429,148.2446 L371.8152,148.9972 L370.7118,147.6098 L370.0840,148.3626 L369.5319,147.6687 L368.2761,149.1745 L367.7238,148.4806 L367.0958,149.2336 L366.5432,148.5396 L365.9151,149.2927 L365.3624,148.5987 L364.7342,149.3519 L364.1812,148.6578 L363.5529,149.4111 L362.9996,148.7168 L362.3713,149.4702 L361.8178,148.7759 L363.0747,147.2690 L363.6280,147.9634 L364.8847,146.4567 L365.4377,147.1512 L366.0659,146.3979 L366.6187,147.0923 L367.2468,146.3392 L367.7994,147.0335 L368.4275,146.2804 L368.9798,146.9747 L370.2357,145.4687 L370.7877,146.1630 L371.4156,145.4101 L371.9674,146.1043 L372.5952,145.3515 L373.1467,146.0456 L373.7744,145.2929 L374.3257,145.9869 L374.9534,145.2344 L375.5044,145.9283 L376.1320,145.1758 L376.6828,145.8697 L377.3103,145.1173 L377.8609,145.8110 L378.4883,145.0588 L379.0387,145.7524 L379.6659,145.0003 L380.7662,146.3872 L381.3932,145.6353 L381.9431,146.3286 L382.5700,145.5767 L383.1196,146.2699 L383.7465,145.5182 L384.2959,146.2113 L384.9227,145.4597 L385.4719,146.1527 L386.0986,145.4012 L386.6475,146.0941 L387.2741,145.3427 L387.8228,146.0355 L388.4494,145.2842 L388.9978,145.9770 L389.6243,145.2257 L390.1725,145.9184 L391.4252,144.4161 L391.9732,145.1088 L392.5994,144.3578 L393.1471,145.0504 L394.3995,143.5486 L394.9469,144.2412 L395.5730,143.4904 L396.1202,144.1829 L397.3721,142.6815 L397.9190,143.3740 L399.1708,141.8728 L399.7173,142.5654 L400.9690,141.0643 L401.5152,141.7569 L402.1409,141.0065 L402.6869,141.6990 L403.9382,140.1984 L404.4839,140.8909 L405.7349,139.3905 L406.2803,140.0830 L406.9058,139.3329 L407.4509,140.0253 L408.7016,138.5254 L409.2465,139.2178 L409.8717,138.4679 L410.4164,139.1603 L411.6667,137.6607 L412.2110,138.3530 L412.8361,137.6034 L413.3802,138.2956 Z M448.2780,214.7689 L448.8114,215.4434 L447.5760,216.9262 L447.0424,216.2518 L446.4246,216.9933 L444.2888,214.2946 L445.5250,212.8109 L447.6602,215.5103 Z M387.8259,156.8264 L388.3739,157.5170 L387.7481,158.2676 L388.8438,159.6481 L388.2182,160.3985 L387.6703,159.7084 L387.0445,160.4589 L386.4964,159.7687 L385.8706,160.5193 L385.3222,159.8291 L384.6963,160.5798 L384.1477,159.8895 L383.5217,160.6402 L382.9729,159.9498 L382.3468,160.7007 L381.7978,160.0102 L381.1716,160.7612 L380.6223,160.0707 L379.3697,161.5728 L378.8202,160.8823 L378.1938,161.6335 L377.6440,160.9428 L377.0175,161.6941 L376.4675,161.0034 L375.8410,161.7548 L375.2907,161.0640 L374.6641,161.8155 L374.1136,161.1246 L372.8601,162.6278 L372.3094,161.9369 L371.6825,162.6886 L371.1315,161.9976 L370.5046,162.7494 L369.9534,162.0584 L368.6993,163.5622 L368.1478,162.8711 L367.5207,163.6231 L366.9689,162.9320 L366.3417,163.6841 L365.7897,162.9929 L364.5351,164.4973 L363.9829,163.8061 L363.3555,164.5585 L362.8029,163.8672 L364.0579,162.3623 L364.6102,163.0538 L365.8650,161.5492 L366.4170,162.2407 L367.6716,160.7363 L368.2233,161.4278 L368.8505,160.6757 L369.4020,161.3671 L370.6562,159.8631 L371.2074,160.5546 L371.8344,159.8027 L372.3854,160.4940 L373.0123,159.7422 L373.5630,160.4335 L374.8167,158.9301 L375.3671,159.6214 L375.9939,158.8698 L376.5441,159.5610 L377.1707,158.8095 L377.7207,159.5006 L378.9738,157.9979 L379.5234,158.6890 L380.1499,157.9377 L380.6993,158.6287 L381.3257,157.8776 L381.8749,158.5685 L382.5012,157.8174 L383.0502,158.5083 L384.3026,157.0064 L384.8512,157.6972 L385.4773,156.9464 L386.0258,157.6372 L386.6518,156.8864 L387.2000,157.5771 Z M430.3561,216.5168 L434.6462,221.9171 L434.0278,222.6593 L429.7370,217.2598 Z M387.2038,168.3457 L388.8459,170.4104 L387.5958,171.9098 L387.0484,171.2219 L386.4233,171.9717 L385.8756,171.2837 L384.6252,172.7835 L384.0772,172.0955 L382.8265,173.5955 L382.2783,172.9076 L381.0274,174.4078 L380.4789,173.7198 L378.6023,175.9705 L378.0533,175.2826 L376.8021,176.7833 L376.2528,176.0955 L374.3757,178.3468 L373.8260,177.6590 L372.5744,179.1601 L372.0244,178.4724 L370.1467,180.7244 L369.5963,180.0368 L367.7183,182.2891 L367.1675,181.6016 L365.2892,183.8543 L364.7380,183.1669 L363.4856,184.6689 L362.9341,183.9815 L361.0552,186.2348 L360.5034,185.5475 L359.2505,187.0500 L358.6984,186.3627 L358.0719,187.1140 L356.9670,185.7391 L357.5936,184.9876 L358.1461,185.6752 L359.3992,184.1724 L359.9514,184.8600 L361.8308,182.6062 L362.3825,183.2939 L363.6353,181.7915 L364.1867,182.4793 L366.0656,180.2261 L366.6166,180.9139 L368.4952,178.6610 L369.0458,179.3490 L370.9241,177.0965 L371.4743,177.7845 L373.3523,175.5323 L373.9021,176.2205 L375.1539,174.7193 L375.7034,175.4075 L377.5808,173.1559 L378.1299,173.8442 L379.3813,172.3434 L379.9302,173.0317 L381.8069,170.7809 L382.3554,171.4693 L383.6064,169.9689 L384.1545,170.6573 L385.4053,169.1572 L385.9532,169.8456 Z M386.6604,178.4062 L388.3013,180.4652 L387.6768,181.2143 L387.1299,180.5282 L385.8807,182.0266 L385.3335,181.3405 L383.4594,183.5883 L382.9117,182.9024 L379.7877,186.6494 L379.2396,185.9637 L375.4900,190.4609 L374.9412,189.7756 L370.5660,195.0234 L370.0164,194.3385 L366.8906,198.0876 L366.3405,197.4031 L364.4647,199.6529 L363.9142,198.9684 L362.0382,201.2186 L361.4873,200.5343 L360.2364,202.0346 L359.6852,201.3503 L358.4340,202.8508 L357.8825,202.1665 L357.2569,202.9169 L356.7052,202.2325 L356.0794,202.9830 L355.5275,202.2985 L356.1533,201.5480 L355.6013,200.8632 L356.2272,200.1126 L356.7791,200.7974 L357.4049,200.0469 L357.9566,200.7316 L359.2080,199.2307 L359.7594,199.9155 L361.0107,198.4148 L361.5618,199.0995 L363.4383,196.8489 L363.9890,197.5337 L366.4907,194.5333 L367.0409,195.2184 L370.1675,191.4684 L370.7172,192.1538 L375.0935,186.9049 L375.6425,187.5907 L379.3929,183.0924 L379.9412,183.7787 L382.4410,180.7803 L382.9889,181.4668 L384.8634,179.2184 L385.4109,179.9049 Z M386.8972,184.8326 L387.9905,186.2030 L386.7421,187.7004 L386.1954,187.0155 L370.5863,205.7383 L371.1352,206.4209 L364.8914,213.9103 L364.3417,213.2286 L360.5947,217.7231 L360.0443,217.0419 L358.1705,219.2895 L357.6198,218.6084 L356.3704,220.1070 L355.8193,219.4259 L354.5697,220.9247 L354.0184,220.2436 L353.3935,220.9932 L352.8419,220.3120 L352.2169,221.0616 L351.6652,220.3803 L351.0401,221.1300 L350.4881,220.4487 L349.8629,221.1985 L348.7583,219.8354 L348.1329,220.5855 L347.5803,219.9038 L346.9549,220.6539 L345.8491,219.2901 L347.7259,217.0392 L348.8312,218.4035 L349.4566,217.6534 L350.5612,219.0172 L351.1864,218.2673 L351.7384,218.9490 L352.3635,218.1992 L352.9153,218.8809 L353.5404,218.1311 L354.0919,218.8127 L354.7169,218.0631 L355.2682,218.7446 L356.5179,217.2456 L357.0689,217.9271 L358.3185,216.4283 L358.8692,217.1098 L361.3679,214.1126 L361.9181,214.7943 L376.9067,196.8160 L376.3584,196.1320 L384.4769,186.3942 L385.0241,187.0794 Z M397.1828,199.2515 L398.2707,200.6146 L393.9127,205.8428 L394.4570,206.5235 L391.9670,209.5108 L390.8775,208.1501 L393.3682,205.1620 L392.8236,204.4810 Z M482.9160,308.1702 L483.9601,309.4781 L483.3507,310.2102 L483.8726,310.8638 L483.2632,311.5958 L484.3068,312.9023 L483.6976,313.6342 L484.2193,314.2871 L483.6101,315.0188 L484.1318,315.6715 L483.5227,316.4032 L484.5657,317.7078 L485.1746,316.9763 L485.6959,317.6285 L486.3047,316.8971 L486.8258,317.5492 L487.4345,316.8179 L487.9553,317.4699 L487.3467,318.2011 L487.8674,318.8529 L487.2588,319.5840 L486.2170,318.2805 L485.6082,319.0118 L485.0870,318.3599 L484.4782,319.0913 L483.9568,318.4394 L483.3478,319.1709 L481.2606,316.5616 L481.8699,315.8297 L481.3478,315.1769 L481.9571,314.4450 L481.4350,313.7919 L482.0444,313.0599 L480.4775,311.0994 L479.8679,311.8317 L479.3453,311.1780 L478.7355,311.9104 L478.2127,311.2566 L476.9931,312.7216 L476.4699,312.0678 L472.2006,317.1962 L471.6767,316.5429 L470.4567,318.0084 L469.9326,317.3551 L474.2032,312.2253 L474.7267,312.8793 L476.5566,310.6812 L477.0798,311.3352 L478.2996,309.8701 L478.8225,310.5241 L479.4323,309.7916 L479.9550,310.4456 L480.5647,309.7132 L481.0872,310.3671 Z M401.3729,207.5524 L402.4583,208.9117 L401.2149,210.4036 L401.7575,211.0828 L400.5142,212.5745 L401.0569,213.2533 L399.8137,214.7449 L400.3565,215.4234 L399.7349,216.1691 L398.6492,214.8122 L399.2709,214.0663 L398.7279,213.3875 L399.9714,211.8955 L399.4284,211.2163 L400.6721,209.7242 L400.1291,209.0447 Z M410.5014,220.5051 L411.0418,221.1816 L410.4214,221.9260 L410.9617,222.6022 L410.3415,223.3465 L410.8817,224.0225 L410.2615,224.7667 L410.8017,225.4424 L410.1816,226.1865 L410.7218,226.8619 L410.1017,227.6059 L411.1818,228.9561 L410.5619,229.7000 L411.1018,230.3747 L410.4820,231.1185 L411.0218,231.7929 L409.7824,233.2803 L409.2424,232.6060 L409.8622,231.8622 L409.3221,231.1877 L409.9420,230.4438 L409.4019,229.7690 L410.0219,229.0251 L408.9414,227.6748 L409.5615,226.9306 L409.0211,226.2551 L409.6413,225.5109 L409.1009,224.8351 L409.7212,224.0908 L409.1807,223.4148 L409.8011,222.6704 L409.2606,221.9941 Z M390.3320,196.7832 L391.4228,198.1484 L383.9436,207.1205 L382.8508,205.7575 Z M377.8499,201.0473 L378.3976,201.7302 L374.6532,206.2217 L375.2012,206.9038 L373.3292,209.1494 L373.8773,209.8311 L372.0055,212.0764 L372.5537,212.7576 L370.6821,215.0028 L371.2305,215.6835 L369.9829,217.1801 L370.5312,217.8606 L369.9075,218.6088 L370.4558,219.2889 L369.2085,220.7852 L369.7569,221.4650 L368.5097,222.9611 L369.0581,223.6405 L368.4345,224.3885 L368.9829,225.0676 L368.3594,225.8155 L368.9077,226.4944 L367.6609,227.9900 L368.2092,228.6685 L367.5859,229.4162 L368.1342,230.0945 L367.5110,230.8421 L368.0591,231.5201 L367.4360,232.2676 L367.9841,232.9454 L366.1149,235.1878 L365.5665,234.5103 L366.1897,233.7627 L365.6413,233.0850 L366.2645,232.3374 L365.7160,231.6594 L366.3393,230.9117 L365.7908,230.2334 L366.4142,229.4856 L365.8656,228.8071 L367.1125,227.3113 L366.5640,226.6324 L367.1875,225.8844 L366.6389,225.2053 L367.8861,223.7091 L367.3375,223.0296 L367.9612,222.2815 L367.4125,221.6017 L368.6600,220.1052 L368.1114,219.4251 L369.3590,217.9284 L368.8104,217.2479 L370.0582,215.7512 L369.5096,215.0703 L370.7576,213.5733 L370.2090,212.8921 L372.0811,210.6465 L371.5327,209.9648 L374.0291,206.9703 L373.4808,206.2881 Z M458.6596,316.7624 L458.0485,317.4963 L457.5220,316.8419 L456.9109,317.5759 L455.8574,316.2668 L455.2461,317.0010 L454.7190,316.3463 L454.1077,317.0805 L453.0530,315.7708 L452.4415,316.5053 L451.9138,315.8502 L451.3022,316.5848 L450.2464,315.2744 L449.6347,316.0091 L448.0497,314.0426 L448.6617,313.3076 L449.1901,313.9634 L449.8020,313.2285 L450.8582,314.5397 L451.4700,313.8050 L452.5255,315.1157 L453.1371,314.3811 L453.6645,315.0364 L454.2760,314.3019 L455.3304,315.6120 L455.9417,314.8778 L456.4686,315.5327 L457.0799,314.7985 Z M445.8513,312.8099 L445.2390,313.5452 L444.1806,312.2327 L443.5682,312.9681 L442.5091,311.6552 L441.8965,312.3908 L440.3066,310.4204 L439.6937,311.1563 L438.1024,309.1847 L437.4893,309.9209 L435.8964,307.9480 L435.2831,308.6845 L434.2204,307.3686 L433.6069,308.1053 L432.0116,306.1304 L431.3978,306.8674 L430.3334,305.5501 L429.7195,306.2873 L428.1217,304.3105 L427.5075,305.0479 L425.3749,302.4102 L424.7604,303.1480 L422.6253,300.5079 L422.0104,301.2461 L419.3381,297.9427 L418.7228,298.6813 L416.0466,295.3742 L415.4310,296.1133 L414.3594,294.7894 L414.9752,294.0501 L415.5110,294.7122 L416.1267,293.9731 L417.1977,295.2969 L417.8132,294.5580 L421.0225,298.5261 L421.6375,297.7877 L423.7740,300.4301 L424.3887,299.6920 L427.0558,302.9918 L427.6701,302.2542 L429.2685,304.2323 L429.8826,303.4949 L431.4795,305.4718 L432.0934,304.7347 L433.6888,306.7104 L434.3024,305.9736 L435.3652,307.2900 L435.9786,306.5534 L437.5716,308.5271 L438.1848,307.7908 L439.7763,309.7632 L440.3892,309.0272 L441.9793,310.9984 L442.5920,310.2627 L443.6512,311.5762 L444.2637,310.8406 Z M447.3543,316.1681 L448.4111,317.4786 L447.1875,318.9482 L446.6590,318.2932 L446.0471,319.0280 L445.5184,318.3730 L444.2945,319.8429 L443.7655,319.1878 L443.1534,319.9229 L442.6242,319.2678 L442.0120,320.0029 L441.4826,319.3477 L440.2581,320.8183 L439.7284,320.1631 L439.1161,320.8984 L438.5861,320.2432 L437.9737,320.9786 L437.4436,320.3233 L436.8311,321.0588 L436.3007,320.4034 L437.5259,318.9321 L435.9344,316.9644 L435.3216,317.7003 L434.2598,316.3878 L434.8728,315.6517 L435.4037,316.3081 L436.0165,315.5721 L437.0777,316.8847 L437.6905,316.1489 L438.2208,316.8050 L438.8334,316.0693 L439.8935,317.3811 L440.5060,316.6456 L441.0357,317.3014 L441.6481,316.5660 L442.1776,317.2217 L442.7899,316.4864 L443.3193,317.1420 L443.9315,316.4068 L444.4606,317.0624 L445.0727,316.3272 L445.6016,316.9827 L446.2136,316.2477 L446.7423,316.9031 Z M339.5100,193.1519 L340.0656,193.8394 L338.8105,195.3444 L339.3661,196.0316 L339.9936,195.2792 L342.2141,198.0264 L342.8412,197.2744 L343.3959,197.9609 L341.5148,200.2167 L338.7386,196.7840 L338.1112,197.5365 L336.9995,196.1623 L337.6272,195.4097 L337.0712,194.7223 L337.6989,193.9696 L337.1429,193.2819 L336.5151,194.0347 L335.9589,193.3469 L335.3310,194.0998 L334.2179,192.7239 L333.5898,193.4770 L333.0330,192.7889 L332.4048,193.5421 L331.2905,192.1655 L330.6622,192.9189 L330.1048,192.2304 L329.4764,192.9839 L328.9187,192.2953 L328.2902,193.0489 L327.1742,191.6715 L326.5455,192.4253 L325.9873,191.7364 L325.3585,192.4903 L324.8000,191.8013 L324.1711,192.5553 L323.0535,191.1769 L323.6825,190.4228 L324.2413,191.1121 L324.8703,190.3580 L325.4288,191.0473 L326.0577,190.2933 L326.6160,190.9825 L327.2448,190.2286 L327.8029,190.9177 L328.4316,190.1639 L328.9895,190.8529 L329.6180,190.0992 L330.7332,191.4769 L331.3616,190.7234 L331.9189,191.4121 L332.5472,190.6587 L333.6611,192.0357 L334.2893,191.2825 L334.8460,191.9708 L335.4740,191.2177 L336.5868,192.5940 L337.2146,191.8411 L338.8824,193.9045 Z M397.0553,285.4477 L398.1345,286.7779 L394.4292,291.2255 L393.8891,290.5611 L392.6538,292.0439 L392.1135,291.3794 L390.8780,292.8624 L390.3374,292.1980 L387.2481,295.9060 L386.7069,295.2419 L384.2351,298.2088 L384.7766,298.8726 L384.1587,299.6142 L384.7001,300.2777 L385.3179,299.5362 L385.8591,300.1996 L386.4769,299.4581 L387.0178,300.1215 L388.2531,298.6388 L388.7938,299.3021 L390.6464,297.0784 L391.1867,297.7418 L392.4216,296.2595 L392.9617,296.9230 L393.5790,296.1820 L394.1188,296.8454 L392.8842,298.3273 L392.3443,297.6641 L390.4922,299.8873 L389.9518,299.2242 L388.0994,301.4477 L387.5587,300.7847 L386.3236,302.2672 L385.7826,301.6042 L383.9296,303.8284 L383.3882,303.1655 L382.7704,303.9070 L381.6870,302.5809 L382.3050,301.8392 L381.7631,301.1758 L382.9991,299.6923 L382.4573,299.0285 L383.0754,298.2867 L382.5336,297.6227 L385.0061,294.6550 L385.5476,295.3194 L388.0197,292.3522 L388.5608,293.0168 L390.4145,290.7917 L390.9552,291.4564 L392.1909,289.9732 L392.7312,290.6379 Z M381.6595,270.9943 L382.7461,272.3325 L379.6480,276.0504 L379.1044,275.3819 L377.8650,276.8693 L377.3210,276.2007 Z M366.5621,259.9583 L367.6557,261.3031 L367.0342,262.0487 L367.5809,262.7208 L365.7168,264.9575 L365.1699,264.2857 L362.6840,267.2684 L361.5891,265.9251 L362.8324,264.4333 L363.3798,265.1053 L366.4874,261.3765 L365.9405,260.7041 Z M388.8687,287.3892 L389.4099,288.0547 L387.5554,290.2805 L387.0140,289.6154 L385.1592,291.8416 L384.6174,291.1765 L383.9991,291.9187 L383.4571,291.2535 L384.6939,289.7690 L385.2358,290.4343 L387.0908,288.2079 L387.6322,288.8733 Z M378.1812,281.7716 L378.7247,282.4390 L378.1053,283.1823 L378.6488,283.8494 L378.0295,284.5926 L378.5729,285.2595 L377.9537,286.0026 L378.4970,286.6691 L377.8779,287.4122 L378.4212,288.0785 L377.8022,288.8214 L378.8885,290.1534 L378.2696,290.8961 L378.8126,291.5618 L378.1938,292.3044 L378.7368,292.9698 L378.1180,293.7124 L378.6609,294.3775 L378.0423,295.1200 L378.5851,295.7849 L377.9666,296.5273 L378.5094,297.1919 L377.8909,297.9342 L377.3480,297.2697 L376.7294,298.0121 L377.2724,298.6765 L376.6539,299.4188 L377.1968,300.0830 L376.5783,300.8252 L377.1212,301.4891 L376.5028,302.2313 L377.0456,302.8949 L376.4273,303.6370 L376.9700,304.3004 L376.3519,305.0424 L376.8945,305.7055 L376.2764,306.4474 L377.3615,307.7729 L376.7435,308.5146 L377.2859,309.1770 L376.6680,309.9187 L377.7526,311.2428 L377.1348,311.9843 L378.2190,313.3075 L377.6014,314.0488 L378.1434,314.7101 L377.5259,315.4513 L378.0678,316.1124 L377.4504,316.8535 L378.5339,318.1748 L377.9167,318.9158 L378.9998,320.2363 L378.3827,320.9771 L379.4655,322.2967 L378.8485,323.0373 L380.4719,325.0153 L379.8552,325.7556 L381.4776,327.7318 L380.8611,328.4718 L381.9421,329.7882 L381.3258,330.5281 L381.8662,331.1860 L382.4824,330.4462 L383.0226,331.1040 L382.4065,331.8437 L384.5661,334.4728 L383.9503,335.2122 L386.6472,338.4943 L386.0318,339.2332 L389.2640,343.1658 L388.6490,343.9042 L393.4889,349.7910 L392.8747,350.5285 L396.0956,354.4450 L395.4818,355.1820 L396.5545,356.4860 L395.9409,357.2229 L393.7946,354.6146 L394.4085,353.8774 L390.6479,349.3058 L391.2624,348.5680 L386.9569,343.3327 L387.5720,342.5942 L383.7981,338.0039 L384.4138,337.2647 L381.7144,333.9805 L382.3305,333.2408 L380.1689,330.6101 L380.7853,329.8701 L379.1628,327.8950 L379.7795,327.1547 L378.1560,325.1778 L378.7729,324.4373 L377.6901,323.1184 L378.3071,322.3777 L377.2239,321.0579 L377.8411,320.3170 L376.7575,318.9963 L377.3749,318.2553 L376.2909,316.9338 L376.9084,316.1925 L375.8240,314.8702 L376.4417,314.1288 L375.8994,313.4672 L376.5171,312.7257 L375.4322,311.4020 L376.0501,310.6603 L375.5076,309.9981 L376.1255,309.2563 L375.5829,308.5939 L376.2010,307.8520 L375.1154,306.5264 L375.7337,305.7844 L375.1908,305.1212 L375.8091,304.3791 L375.2661,303.7156 L375.8845,302.9735 L375.3415,302.3098 L375.9599,301.5675 L374.8737,300.2394 L375.4923,299.4970 L374.9490,298.8326 L375.5677,298.0900 L375.0244,297.4254 L375.6431,296.6828 L375.0998,296.0179 L375.7186,295.2752 L375.1752,294.6100 L375.7941,293.8672 L375.2506,293.2018 L375.8696,292.4589 L375.3260,291.7932 L375.9451,291.0502 L374.8577,289.7181 L375.4770,288.9750 L374.9332,288.3086 L375.5524,287.5654 L375.0086,286.8987 L375.6280,286.1554 L374.5400,284.8214 L377.0180,281.8475 L377.5618,282.5150 Z M346.6079,250.5717 L347.7102,251.9233 L346.4631,253.4194 L347.0142,254.0947 L345.1437,256.3386 L344.0409,254.9883 L343.4172,255.7364 L342.8655,255.0611 L339.7467,258.8024 L340.2988,259.4773 L339.0514,260.9737 L338.4991,260.2990 L339.1229,259.5507 L338.5706,258.8758 L344.1852,252.1406 L344.7368,252.8164 Z M425.5546,387.3193 L427.1413,389.2499 L426.5320,389.9818 L426.0031,389.3386 L425.3938,390.0706 L423.8061,388.1401 L423.1965,388.8725 L421.6075,386.9408 L422.2173,386.2082 L423.2767,387.4963 L423.8864,386.7639 L424.9450,388.0516 Z M397.0907,357.1378 L398.6983,359.0921 L398.0850,359.8285 L400.7621,363.0819 L400.1492,363.8179 L402.8233,367.0667 L402.2108,367.8023 L404.3479,370.3980 L403.7357,371.1333 L400.5287,367.2392 L401.1414,366.5035 L399.0010,363.9038 L399.6140,363.1677 L396.3998,359.2627 L397.0132,358.5260 L396.4771,357.8745 Z M420.1483,392.5342 L422.2668,395.1057 L421.6574,395.8378 L422.1868,396.4801 L421.5775,397.2121 L422.1068,397.8542 L422.7160,397.1224 L425.3601,400.3310 L424.7514,401.0624 L425.2799,401.7036 L424.6711,402.4349 L424.1426,401.7938 L423.5338,402.5253 L423.0050,401.8841 L422.3961,402.6156 L421.8671,401.9744 L422.4760,401.2428 L421.4178,399.9597 L422.0269,399.2279 L417.2588,393.4452 L416.6490,394.1778 L413.9950,390.9599 L413.3848,391.6929 L411.2589,389.1161 L410.6483,389.8495 L407.9875,386.6252 L407.3766,387.3590 L406.3111,386.0684 L406.9222,385.3343 L405.3233,383.3968 L405.9347,382.6625 L406.4677,383.3086 L407.6902,381.8402 L408.7556,383.1323 L408.1445,383.8663 L409.2094,385.1575 L409.8203,384.4237 L413.5429,388.9384 L414.1533,388.2052 L416.2772,390.7819 L416.8872,390.0490 L419.5387,393.2666 Z M337.9627,294.2732 L339.6142,296.2773 L338.9926,297.0232 L343.3911,302.3592 L342.1492,303.8495 L338.8502,299.8496 L339.4716,299.1039 L338.9214,298.4365 L338.2999,299.1823 L337.7494,298.5149 L338.3710,297.7690 L337.8205,297.1013 L338.4422,296.3554 L337.3409,295.0193 Z M382.8106,356.1167 L385.5033,359.3796 L384.8890,360.1173 L387.5786,363.3756 L386.9647,364.1127 L389.1143,366.7160 L388.5007,367.4529 L390.1117,369.4033 L389.4983,370.1399 L391.1084,372.0886 L390.4952,372.8249 L391.5680,374.1231 L390.9551,374.8592 L391.4914,375.5079 L390.8785,376.2440 L391.4147,376.8925 L390.8019,377.6284 L389.1925,375.6828 L389.8056,374.9465 L388.1952,372.9991 L388.8085,372.2626 L387.1972,370.3135 L387.8108,369.5767 L387.2735,368.9266 L387.8871,368.1897 L385.7369,365.5871 L386.3508,364.8499 L380.9664,358.3310 Z M280.5895,235.2856 L289.0481,245.5294 L288.4195,246.2831 L291.7942,250.3688 L291.1661,251.1220 L293.4134,253.8419 L292.7856,254.5947 L294.4698,256.6325 L293.8423,257.3850 L295.5253,259.4209 L294.2709,260.9253 L293.7098,260.2471 L294.3371,259.4948 L292.0918,256.7795 L292.7195,256.0268 L291.0342,253.9882 L291.6621,253.2352 L288.2882,249.1527 L288.9166,248.3992 L279.8950,237.4798 L279.2652,238.2348 L277.0036,235.4982 L276.3735,236.2536 L276.9392,236.9379 L276.3092,237.6932 L279.7009,241.7948 L279.0714,242.5496 L281.3299,245.2801 L280.7007,246.0345 L282.3933,248.0802 L281.7643,248.8343 L283.4559,250.8781 L282.8272,251.6319 L283.9543,252.9934 L283.3258,253.7471 L285.0156,255.7877 L284.3873,256.5410 L284.9504,257.2208 L284.3222,257.9741 L286.0108,260.0120 L285.3828,260.7650 L286.5080,262.1226 L285.8802,262.8754 L287.0049,264.2320 L286.3773,264.9847 L286.9395,265.6627 L286.3120,266.4152 L287.4362,267.7704 L286.8088,268.5228 L287.9326,269.8771 L287.3054,270.6293 L285.6192,268.5979 L286.2467,267.8454 L285.1220,266.4900 L285.7497,265.7373 L284.6246,264.3811 L285.2524,263.6282 L283.5639,261.5922 L284.1920,260.8391 L283.0658,259.4807 L283.6940,258.7274 L282.5673,257.3681 L283.1957,256.6146 L282.0687,255.2544 L282.6972,254.5007 L281.5698,253.1396 L282.1985,252.3858 L280.5064,250.3425 L281.1354,249.5884 L279.4423,247.5433 L280.0715,246.7889 L277.8123,244.0591 L278.4418,243.3044 L272.7844,236.4667 L272.1541,237.2224 L270.4537,235.1680 L269.8231,235.9240 L268.6886,234.5536 L268.0578,235.3098 L266.9226,233.9390 L266.2916,234.6954 L265.7236,234.0098 L265.0926,234.7663 L264.5244,234.0806 L263.8932,234.8372 L263.3249,234.1514 L262.6936,234.9081 L262.1250,234.2223 L261.4936,234.9791 L260.9248,234.2931 L259.6619,235.8070 L259.0927,235.1211 L258.4612,235.8781 L257.8918,235.1921 L259.1550,233.6778 L259.7242,234.3640 L260.9873,232.8500 L261.5562,233.5362 L262.8191,232.0224 L263.3877,232.7086 L264.0190,231.9518 L264.5874,232.6380 L265.2186,231.8813 L265.7867,232.5674 L266.4179,231.8108 L266.9858,232.4967 L267.6168,231.7403 L268.1845,232.4262 L268.8155,231.6698 L269.3829,232.3556 L270.0138,231.5993 L270.5810,232.2850 L271.2118,231.5288 L271.7788,232.2145 L272.4095,231.4584 L273.5428,232.8293 L274.1733,232.0735 L275.3059,233.4439 L275.9362,232.6882 L277.0680,234.0581 L277.6982,233.3026 L279.9597,236.0407 Z M320.1302,287.6820 L327.3270,296.3903 L326.7044,297.1373 L328.9143,299.8105 L328.2921,300.5571 L329.9483,302.5600 L329.3263,303.3063 L330.4298,304.6405 L329.8080,305.3866 L330.9112,306.7199 L330.2895,307.4659 L331.3922,308.7983 L330.7707,309.5441 L331.8731,310.8757 L331.2517,311.6213 L332.9044,313.6171 L332.2833,314.3624 L333.9350,316.3564 L333.3141,317.1014 L334.9648,319.0936 L334.3442,319.8384 L345.3181,333.0788 L345.9371,332.3358 L353.0390,340.9070 L353.6570,340.1653 L357.4708,344.7694 L358.0881,344.0283 L362.4378,349.2808 L363.0545,348.5404 L367.3946,353.7830 L366.7785,354.5226 L364.0666,351.2477 L363.4501,351.9878 L359.1032,346.7400 L358.4860,347.4809 L355.2195,343.5385 L354.6019,344.2799 L350.7840,339.6736 L350.1658,340.4156 L343.6040,332.5009 L342.9849,333.2440 L333.6531,321.9914 L334.2736,321.2467 L332.0723,318.5916 L332.6932,317.8465 L331.5919,316.5177 L332.2130,315.7725 L330.5602,313.7777 L331.1815,313.0322 L330.0790,311.7013 L330.7005,310.9556 L329.5977,309.6239 L330.2193,308.8780 L329.1161,307.5454 L329.7379,306.7994 L328.6342,305.4659 L329.2562,304.7197 L327.5999,302.7179 L328.2221,301.9714 L326.5648,299.9678 L327.1872,299.2210 L322.7622,293.8698 L321.5161,295.3648 L322.0698,296.0341 L321.4468,296.7816 L319.7848,294.7734 L320.4080,294.0256 L320.9621,294.6953 L321.5853,293.9477 L319.9229,291.9379 L319.2995,292.6858 L317.0806,290.0040 L318.9518,287.7592 L319.5065,288.4302 Z M271.7641,259.4665 L274.0249,262.1863 L273.3961,262.9403 L272.2659,261.5809 L271.6369,262.3350 L269.9402,260.2950 L269.3110,261.0494 L268.7450,260.3691 L268.1157,261.1237 L267.5496,260.4433 L266.9202,261.1979 L266.3537,260.5175 L265.0948,262.0270 L264.5281,261.3465 L263.2689,262.8562 L262.7018,262.1758 L260.8128,264.4407 L260.2454,263.7604 L241.3495,286.4153 L241.9195,287.0928 L241.2896,287.8480 L240.7196,287.1706 L240.0896,287.9259 L239.5193,287.2484 L242.6695,283.4716 L242.0994,282.7935 L249.0302,274.4841 L248.4610,273.8048 L251.6115,270.0276 L252.1803,270.7074 L259.1100,262.3992 L259.6778,263.0799 L261.5673,260.8145 L262.1347,261.4952 L264.0239,259.2301 L264.5908,259.9110 L265.8501,258.4012 L266.4168,259.0821 L267.0463,258.3273 L267.6127,259.0081 L268.2422,258.2534 L269.3743,259.6146 L270.0036,258.8601 L271.1350,260.2209 Z M197.1659,197.3185 L198.3327,198.7149 L197.0558,200.2446 L196.4723,199.5467 L195.1951,201.0766 L194.0273,199.6805 L193.3886,200.4457 L192.2200,199.0491 L192.8589,198.2838 L193.4432,198.9822 L194.0820,198.2170 L195.2500,199.6136 Z M181.2492,198.1860 L180.6094,198.9524 L180.0225,198.2529 L179.3826,199.0194 L178.7955,198.3198 L178.1555,199.0864 L177.5681,198.3867 L176.9280,199.1534 L176.3404,198.4536 L175.7002,199.2204 L175.1124,198.5205 L174.4721,199.2874 L173.8840,198.5875 L175.1648,197.0534 L175.7527,197.7536 L176.3930,196.9867 L176.9806,197.6868 L177.6208,196.9200 L178.2083,197.6200 L178.8484,196.8533 L179.4355,197.5532 L180.0756,196.7866 Z M172.6553,198.6544 L171.3743,200.1887 L170.7856,199.4887 L170.1450,200.2559 L169.5561,199.5558 L168.9154,200.3231 L168.3263,199.6229 L167.6855,200.3903 L167.0962,199.6900 L168.3779,198.1550 L168.9671,198.8555 L169.6079,198.0880 L170.1968,198.7884 L170.8375,198.0211 L171.4262,198.7214 L172.0668,197.9542 Z M168.0907,223.7547 L169.2663,225.1456 L166.0701,228.9741 L164.8937,227.5843 Z M191.2833,305.4419 L194.1762,308.8291 L193.5438,309.5871 L191.2294,306.8781 L190.5967,307.6365 L189.4384,306.2811 L188.8055,307.0397 L187.0667,305.0057 L186.4336,305.7646 L185.2735,304.4078 L184.6401,305.1669 L183.4792,303.8096 L182.8457,304.5689 L182.2649,303.8901 L181.6313,304.6495 L180.4692,303.2916 L179.8354,304.0512 L178.6725,302.6927 L178.0385,303.4525 L177.4567,302.7731 L176.8227,303.5330 L175.6585,302.1739 L175.0243,302.9340 L174.4419,302.2543 L173.8075,303.0145 L173.2249,302.3346 L172.5905,303.0950 L171.4246,301.7350 L170.7900,302.4955 L170.2067,301.8153 L169.5720,302.5759 L168.9885,301.8957 L168.3537,302.6564 L167.7700,301.9761 L166.5002,303.4977 L165.9162,302.8174 L165.2812,303.5784 L164.6969,302.8980 L164.0618,303.6590 L162.8926,302.2979 L163.5278,301.5366 L164.1124,302.2174 L165.3827,300.6951 L165.9670,301.3759 L166.6020,300.6149 L167.1861,301.2956 L168.4559,299.7737 L169.0397,300.4544 L169.6745,299.6936 L170.2580,300.3743 L170.8928,299.6136 L172.0591,300.9745 L172.6937,300.2140 L173.2766,300.8942 L173.9111,300.1338 L175.0762,301.4941 L175.7105,300.7339 L176.2927,301.4138 L176.9269,300.6537 L178.0908,302.0132 L178.7248,301.2533 L179.3064,301.9329 L179.9404,301.1731 L181.1030,302.5320 L181.7367,301.7724 L182.8985,303.1307 L183.5321,302.3713 L184.6932,303.7292 L185.3266,302.9700 L186.4868,304.3273 L187.1201,303.5683 L188.2796,304.9251 L188.9126,304.1663 L190.6505,306.2004 Z M186.6405,316.4917 L188.9565,319.1947 L188.3243,319.9525 L187.1664,318.6016 L186.5341,319.3596 L184.2162,316.6559 L183.5835,317.4143 L181.2629,314.7081 L180.6298,315.4669 L178.8875,313.4358 L178.2542,314.1949 L175.9286,311.4845 L175.2949,312.2440 L173.5489,310.2097 L172.9150,310.9695 L171.1673,308.9339 L171.8015,308.1738 L172.9666,309.5313 L173.6006,308.7714 L174.7649,310.1283 L175.3987,309.3687 L177.1438,311.4030 L177.7774,310.6436 L180.1016,313.3540 L180.7349,312.5950 L183.0564,315.3030 L183.6892,314.5444 L186.0080,317.2499 Z M156.5400,309.9106 L157.7109,311.2698 L157.0758,312.0309 L157.6612,312.7102 L157.0261,313.4712 L157.6114,314.1502 L156.9764,314.9111 L158.1467,316.2683 L157.5119,317.0291 L158.6817,318.3854 L158.0471,319.1459 L158.6319,319.8237 L157.9973,320.5842 L159.1666,321.9391 L158.5322,322.6994 L160.2852,324.7300 L159.6511,325.4900 L160.8191,326.8427 L160.1852,327.6026 L161.3528,328.9544 L160.7190,329.7140 L162.4695,331.7401 L161.8360,332.4994 L163.5854,334.5236 L162.9521,335.2827 L163.5351,335.9570 L164.1683,335.1980 L163.5854,334.5236 L164.2187,333.7646 L163.0528,332.4151 L163.6862,331.6558 L163.1031,330.9807 L163.7366,330.2214 L164.9026,331.5716 L164.2692,332.3308 L165.4347,333.6801 L164.8015,334.4391 L165.9665,335.7875 L165.3335,336.5463 L167.0802,338.5673 L166.4474,339.3258 L168.1930,341.3450 L167.5605,342.1032 L168.1421,342.7758 L167.5096,343.5339 L169.2539,345.5504 L168.6217,346.3083 L169.2029,346.9800 L168.5708,347.7377 L170.3138,349.7515 L169.6819,350.5090 L170.2626,351.1799 L169.6308,351.9372 L168.4690,350.5956 L169.1010,349.8380 L164.4481,344.4637 L165.0808,343.7054 L163.3337,341.6869 L163.9666,340.9282 L162.2184,338.9078 L162.8516,338.1489 L161.6855,336.8009 L162.3188,336.0418 L160.5689,334.0182 L161.2024,333.2588 L160.0352,331.9086 L160.6689,331.1491 L159.5013,329.7980 L160.1352,329.0383 L158.3828,327.0101 L159.0169,326.2501 L157.8481,324.8968 L158.4824,324.1366 L156.7282,322.1052 L157.3628,321.3447 L156.1927,319.9893 L156.8275,319.2287 L155.6570,317.8724 L156.2919,317.1115 L155.7065,316.4330 L156.3415,315.6721 L155.7560,314.9933 L156.3911,314.2322 L155.8056,313.5532 L156.4407,312.7921 L155.8551,312.1127 L156.4903,311.3515 L155.9047,310.6719 Z M162.1373,323.8867 L163.3045,325.2397 L162.6707,325.9994 L163.8375,327.3514 L163.2038,328.1109 L164.3702,329.4620 L163.7366,330.2214 L161.9866,328.1947 L162.6204,327.4351 L161.4531,326.0829 L162.0870,325.3231 L161.5033,324.6466 Z M143.8221,307.1591 L144.4104,307.8404 L143.7740,308.6029 L144.9502,309.9646 L144.3140,310.7270 L145.4898,312.0878 L144.8538,312.8500 L146.0291,314.2099 L145.3932,314.9719 L146.5681,316.3309 L145.9324,317.0927 L147.1068,318.4508 L146.4713,319.2124 L144.7091,317.1753 L145.3449,316.4134 L144.1696,315.0542 L144.8055,314.2921 L143.6297,312.9320 L144.2659,312.1697 L143.0896,310.8087 L143.7259,310.0463 L142.5492,308.6844 Z M48.1720,200.9834 L49.3986,202.4027 L46.7983,205.5142 L46.1847,204.8051 L43.5840,207.9172 L42.9699,207.2083 L41.6693,208.7645 L41.0549,208.0556 L39.7541,209.6122 L39.1393,208.9033 L38.4888,209.6816 L37.8738,208.9727 L36.5726,210.5296 L35.9572,209.8207 L35.3065,210.5992 L34.6909,209.8902 L34.0401,210.6689 L33.4242,209.9597 L32.7733,210.7386 L32.1572,210.0293 L30.8552,211.5872 L30.2387,210.8779 L29.5876,211.6570 L28.9708,210.9477 L30.9243,208.6103 L31.5408,209.3199 L32.8429,207.7619 L33.4591,208.4715 L34.1100,207.6926 L34.7259,208.4021 L35.3768,207.6234 L35.9924,208.3328 L37.2940,206.7754 L37.9092,207.4849 L39.2106,205.9278 L39.8255,206.6373 L41.1266,205.0804 L41.7412,205.7899 L43.0421,204.2332 L43.6564,204.9427 L44.9571,203.3863 L45.5710,204.0958 Z M168.3672,353.4521 L170.6898,356.1325 L170.0583,356.8895 L171.7989,358.8977 L171.1677,359.6544 L171.7477,360.3234 L170.4854,361.8367 L169.3249,360.4990 L169.9563,359.7422 L167.6339,357.0643 L168.2655,356.3071 L167.1036,354.9669 Z M44.1255,211.5983 L44.7391,212.3062 L42.1397,215.4169 L41.5257,214.7093 L40.2258,216.2649 L39.6115,215.5573 L38.3113,217.1131 L37.6967,216.4056 L37.0465,217.1836 L36.4316,216.4760 L35.1310,218.0323 L34.5158,217.3246 L33.8654,218.1029 L33.2499,217.3952 L31.9489,218.9519 L31.3331,218.2442 L30.6825,219.0227 L30.0664,218.3149 L28.7651,219.8720 L28.1486,219.1643 L26.8470,220.7217 L26.2302,220.0139 L24.2776,222.3503 L23.6604,221.6427 L21.0564,224.7585 L20.4386,224.0510 L23.6940,220.1559 L24.3113,220.8638 L26.9151,217.7482 L27.5319,218.4563 L28.8336,216.8988 L29.4501,217.6069 L30.1008,216.8283 L30.7170,217.5363 L32.0183,215.9792 L32.6342,216.6873 L33.2847,215.9089 L33.9003,216.6169 L35.2012,215.0602 L35.8165,215.7682 L36.4668,214.9900 L37.0818,215.6979 L38.3823,214.1417 L38.9970,214.8496 L40.2973,213.2936 L40.9116,214.0016 L41.5616,213.2237 L42.1757,213.9315 Z M156.1738,355.7524 L157.3400,357.0940 L156.7075,357.8521 L158.4559,359.8629 L157.8237,360.6208 L158.4063,361.2906 L157.7741,362.0484 L158.3566,362.7180 L157.7246,363.4757 L156.5592,362.1366 L157.1915,361.3787 L156.6086,360.7088 L157.2409,359.9508 L154.9085,357.2691 Z M33.7956,221.0738 L31.8450,223.4080 L31.2293,222.7012 L29.9287,224.2575 L29.3127,223.5507 L28.0119,225.1073 L27.3955,224.4006 L24.7934,227.5142 L25.4101,228.2206 L24.1092,229.7773 L24.7259,230.4833 L23.4252,232.0398 L22.8083,231.3340 L23.4588,230.5557 L22.8418,229.8496 L23.4923,229.0711 L22.8753,228.3648 L28.0802,222.1366 L28.6965,222.8438 L29.9975,221.2870 L30.6135,221.9942 L31.9143,220.4376 L32.5299,221.1448 L33.1802,220.3667 Z M45.0577,250.7252 L44.4101,251.5003 L43.7986,250.8001 L43.1509,251.5753 L42.5391,250.8749 L41.8914,251.6503 L40.6671,250.2492 L40.0192,251.0248 L38.7941,249.6232 L38.1459,250.3989 L35.0799,246.8922 L34.4313,247.6684 L33.8176,246.9666 L34.4662,246.1902 L32.0098,243.3807 L32.6589,242.6039 L31.4298,241.1978 L32.0791,240.4209 L31.4644,239.7175 L32.1137,238.9404 L30.8840,237.5328 L31.5335,236.7555 L30.9185,236.0513 L31.5681,235.2740 L32.7977,236.6824 L32.1483,237.4596 L33.3775,238.8670 L32.7283,239.6440 L34.5710,241.7534 L33.9221,242.5301 L38.8295,248.1463 L39.4777,247.3704 L41.3151,249.4737 L41.9630,248.6982 L43.1869,250.0996 L43.8346,249.3243 Z"/>
</g>
</svg>
